Recursive Mono-Linear C Slanted.ufo
<glyph name="quotedbl" format="2">
	<unicode hex="0022"/>
	<advance width="600"/>
	<outline>
		<contour>
			<point x="272" y="431" type="curve"/>
			<point x="371" y="737" type="line" smooth="yes"/>
			<point x="374" y="746"/>
			<point x="371" y="750"/>
			<point x="365" y="750" type="curve" smooth="yes"/>
			<point x="305" y="750"/>
			<point x="240" y="750"/>
			<point x="168" y="750" type="curve"/>
			<point x="162" y="714"/>
			<point x="156" y="683"/>
			<point x="150" y="648" type="curve" smooth="yes"/>
			<point x="114" y="442" type="line" smooth="yes"/>
			<point x="113" y="435"/>
			<point x="117" y="431"/>
			<point x="123" y="431" type="curve" smooth="yes"/>
			<point x="174" y="431"/>
			<point x="221" y="431"/>
		</contour>
		<contour>
			<point x="545" y="431" type="curve"/>
			<point x="644" y="737" type="line" smooth="yes"/>
			<point x="647" y="746"/>
			<point x="644" y="750"/>
			<point x="638" y="750" type="curve" smooth="yes"/>
			<point x="578" y="750"/>
			<point x="513" y="750"/>
			<point x="441" y="750" type="curve"/>
			<point x="387" y="442" type="line" smooth="yes"/>
			<point x="386" y="435"/>
			<point x="390" y="431"/>
			<point x="396" y="431" type="curve" smooth="yes"/>
			<point x="447" y="431"/>
			<point x="494" y="431"/>
		</contour>
	</outline>
</glyph>
<glyph name="numbersign" format="2">
	<unicode hex="0023"/>
	<advance width="600"/>
	<outline>
		<contour>
			<point x="285" y="720" type="curve"/>
			<point x="174" y="474"/>
			<point x="62" y="226"/>
			<point x="-49" y="-20" type="curve"/>
			<point x="0" y="-20"/>
			<point x="58" y="-20"/>
			<point x="106" y="-20" type="curve"/>
			<point x="113" y="-20"/>
			<point x="119" y="-19"/>
			<point x="123" y="-9" type="curve" smooth="yes"/>
			<point x="231" y="230"/>
			<point x="340" y="470"/>
			<point x="447" y="709" type="curve" smooth="yes"/>
			<point x="451" y="718"/>
			<point x="448" y="720"/>
			<point x="441" y="720" type="curve" smooth="yes"/>
			<point x="393" y="720"/>
			<point x="332" y="720"/>
		</contour>
		<contour>
			<point x="508" y="720" type="curve"/>
			<point x="397" y="474"/>
			<point x="285" y="226"/>
			<point x="174" y="-20" type="curve"/>
			<point x="219" y="-20"/>
			<point x="283" y="-20"/>
			<point x="329" y="-20" type="curve"/>
			<point x="336" y="-20"/>
			<point x="342" y="-19"/>
			<point x="346" y="-9" type="curve" smooth="yes"/>
			<point x="454" y="230"/>
			<point x="563" y="470"/>
			<point x="670" y="709" type="curve" smooth="yes"/>
			<point x="674" y="718"/>
			<point x="671" y="720"/>
			<point x="664" y="720" type="curve" smooth="yes"/>
			<point x="619" y="720"/>
			<point x="552" y="720"/>
		</contour>
		<contour>
			<point x="620" y="405" type="line"/>
			<point x="623" y="418"/>
			<point x="656" y="540"/>
			<point x="659" y="553" type="curve" smooth="yes"/>
			<point x="660" y="556"/>
			<point x="660" y="559"/>
			<point x="658" y="561" type="curve" smooth="yes"/>
			<point x="657" y="563"/>
			<point x="654" y="564"/>
			<point x="651" y="564" type="curve" smooth="yes"/>
			<point x="124" y="564" type="line"/>
			<point x="121" y="551"/>
			<point x="88" y="429"/>
			<point x="85" y="416" type="curve" smooth="yes"/>
			<point x="83" y="409"/>
			<point x="86" y="405"/>
			<point x="93" y="405" type="curve" smooth="yes"/>
		</contour>
		<contour>
			<point x="15" y="289" type="line"/>
			<point x="12" y="276"/>
			<point x="-21" y="154"/>
			<point x="-24" y="141" type="curve" smooth="yes"/>
			<point x="-25" y="138"/>
			<point x="-25" y="135"/>
			<point x="-23" y="133" type="curve" smooth="yes"/>
			<point x="-22" y="131"/>
			<point x="-19" y="130"/>
			<point x="-16" y="130" type="curve" smooth="yes"/>
			<point x="511" y="130" type="line"/>
			<point x="514" y="143"/>
			<point x="547" y="265"/>
			<point x="550" y="278" type="curve" smooth="yes"/>
			<point x="552" y="285"/>
			<point x="549" y="289"/>
			<point x="542" y="289" type="curve" smooth="yes"/>
		</contour>
	</outline>
</glyph>
<glyph name="dollar" format="2">
	<unicode hex="0024"/>
	<advance width="600"/>
	<outline>
		<contour>
			<point x="224" y="-22" type="curve" smooth="yes"/>
			<point x="384" y="-22"/>
			<point x="494" y="22"/>
			<point x="526" y="153" type="curve" smooth="yes"/>
			<point x="535" y="188" type="line" smooth="yes"/>
			<point x="566" y="313"/>
			<point x="526" y="397"/>
			<point x="411" y="428" type="curve" smooth="yes"/>
			<point x="333" y="449" type="line" smooth="yes"/>
			<point x="286" y="463"/>
			<point x="282" y="473"/>
			<point x="287" y="496" type="curve" smooth="yes"/>
			<point x="289" y="504" type="line" smooth="yes"/>
			<point x="296" y="529"/>
			<point x="316" y="544"/>
			<point x="376" y="544" type="curve" smooth="yes"/>
			<point x="463" y="544"/>
			<point x="522" y="535"/>
			<point x="570" y="515" type="curve"/>
			<point x="590" y="515" type="line"/>
			<point x="602" y="562"/>
			<point x="615" y="614"/>
			<point x="630" y="674" type="curve" smooth="yes"/>
			<point x="633" y="688"/>
			<point x="632" y="693"/>
			<point x="622" y="697" type="curve" smooth="yes"/>
			<point x="586" y="712"/>
			<point x="527" y="722"/>
			<point x="439" y="722" type="curve" smooth="yes"/>
			<point x="259" y="722"/>
			<point x="150" y="666"/>
			<point x="114" y="530" type="curve" smooth="yes"/>
			<point x="107" y="507" type="line" smooth="yes"/>
			<point x="81" y="410"/>
			<point x="114" y="319"/>
			<point x="223" y="288" type="curve" smooth="yes"/>
			<point x="279" y="272" type="line" smooth="yes"/>
			<point x="355" y="250"/>
			<point x="368" y="235"/>
			<point x="361" y="212" type="curve" smooth="yes"/>
			<point x="359" y="205" type="line" smooth="yes"/>
			<point x="350" y="174"/>
			<point x="326" y="165"/>
			<point x="242" y="165" type="curve" smooth="yes"/>
			<point x="162" y="165"/>
			<point x="108" y="179"/>
			<point x="55" y="209" type="curve"/>
			<point x="35" y="209" type="line"/>
			<point x="20" y="148"/>
			<point x="4" y="82"/>
			<point x="-7" y="39" type="curve" smooth="yes"/>
			<point x="-11" y="25"/>
			<point x="-10" y="21"/>
			<point x="1" y="14" type="curve" smooth="yes"/>
			<point x="30" y="-5"/>
			<point x="101" y="-22"/>
		</contour>
		<contour>
			<point x="436" y="460" type="curve"/>
			<point x="462" y="518"/>
			<point x="533" y="676"/>
			<point x="580" y="784" type="curve" smooth="yes"/>
			<point x="584" y="793"/>
			<point x="580" y="797"/>
			<point x="574" y="797" type="curve" smooth="yes"/>
			<point x="511" y="797"/>
			<point x="490" y="797"/>
			<point x="425" y="797" type="curve"/>
			<point x="416" y="761"/>
			<point x="408" y="729"/>
			<point x="398" y="689" type="curve" smooth="yes"/>
			<point x="388" y="649"/>
			<point x="364" y="559"/>
			<point x="349" y="500" type="curve" smooth="yes"/>
			<point x="347" y="492"/>
			<point x="349" y="487"/>
			<point x="358" y="484" type="curve" smooth="yes"/>
			<point x="377" y="478"/>
			<point x="410" y="468"/>
		</contour>
		<contour>
			<point x="211" y="247" type="curve"/>
			<point x="161" y="138"/>
			<point x="82" y="-33"/>
			<point x="60" y="-80" type="curve" smooth="yes"/>
			<point x="54" y="-92"/>
			<point x="60" y="-96"/>
			<point x="66" y="-96" type="curve" smooth="yes"/>
			<point x="132" y="-96"/>
			<point x="167" y="-96"/>
			<point x="221" y="-96" type="curve"/>
			<point x="229" y="-66"/>
			<point x="235" y="-40"/>
			<point x="247" y="6" type="curve" smooth="yes"/>
			<point x="258" y="52"/>
			<point x="284" y="154"/>
			<point x="296" y="203" type="curve" smooth="yes"/>
			<point x="299" y="217"/>
			<point x="297" y="223"/>
			<point x="289" y="225" type="curve" smooth="yes"/>
			<point x="263" y="232"/>
			<point x="239" y="239"/>
		</contour>
	</outline>
	<guideline x="-69" y="0" angle="75.96" identifier="6JPoDXL0BA"/>
	<guideline x="-19" y="0" angle="75.96" identifier="Mc5WjQ3eyV"/>
	<guideline x="31" y="0" angle="75.96" identifier="2uWOAjhF6D"/>
	<guideline x="81" y="0" angle="75.96" identifier="x6USyTm1No"/>
	<guideline x="131" y="0" angle="75.96" identifier="1w4lmFxX8M"/>
	<guideline x="181" y="0" angle="75.96" identifier="nUOeyn9kLV"/>
	<guideline x="231" y="0" angle="75.96" identifier="e1QkpL4jY9"/>
	<guideline x="281" y="0" angle="75.96" identifier="3WvQcQD9lu"/>
	<guideline x="331" y="0" angle="75.96" identifier="z2dys0GKSy"/>
	<guideline x="381" y="0" angle="75.96" identifier="buger3Y4xk"/>
	<guideline x="431" y="0" angle="75.96" identifier="NHd0UR1lZz"/>
	<guideline x="481" y="0" angle="75.96" identifier="RXP5Cw9Oot"/>
	<guideline x="531" y="0" angle="75.96" identifier="A91mmWQVJ9"/>
	<guideline x="-69" y="-250" angle="0" identifier="BHmNbibj3r"/>
	<guideline x="-69" y="-200" angle="0" identifier="UuXiBlhW6e"/>
	<guideline x="-69" y="-150" angle="0" identifier="fZ4MtlkzjS"/>
	<guideline x="-69" y="-100" angle="0" identifier="Gye766qz2f"/>
	<guideline x="-69" y="-50" angle="0" identifier="FPkpkvPCxp"/>
	<guideline x="-69" y="0" angle="0" identifier="pfg2RD7KgF"/>
	<guideline x="-69" y="50" angle="0" identifier="rwIVzurhRa"/>
	<guideline x="-69" y="100" angle="0" identifier="q9NaWxdkJs"/>
	<guideline x="-69" y="150" angle="0" identifier="pau723V7ug"/>
	<guideline x="-69" y="200" angle="0" identifier="r5udLJWsuF"/>
	<guideline x="-69" y="250" angle="0" identifier="bqdCyqAmYC"/>
	<guideline x="-69" y="300" angle="0" identifier="EwVXIndcUt"/>
	<guideline x="-69" y="350" angle="0" identifier="4oRImbgqUB"/>
	<guideline x="-69" y="400" angle="0" identifier="oQe0kf7v7F"/>
	<guideline x="-69" y="450" angle="0" identifier="u7Rc2xrq53"/>
	<guideline x="-69" y="500" angle="0" identifier="SjELbu2xvj"/>
	<guideline x="-69" y="550" angle="0" identifier="xsqgOrPSfi"/>
	<guideline x="-69" y="600" angle="0" identifier="7SH4mTbpWt"/>
	<guideline x="-69" y="650" angle="0" identifier="VVTA6F9nXG"/>
	<guideline x="-69" y="700" angle="0" identifier="mZPELNh4bG"/>
</glyph>
<glyph name="asterisk" format="2">
	<unicode hex="002A"/>
	<advance width="600"/>
	<outline>
		<contour>
			<point x="444" y="568" type="curve" smooth="yes"/>
			<point x="386" y="568"/>
			<point x="339" y="568"/>
			<point x="281" y="568" type="curve"/>
			<point x="281" y="521"/>
			<point x="283" y="473"/>
			<point x="284" y="426" type="curve" smooth="yes"/>
			<point x="285" y="374" type="line"/>
			<point x="178" y="503" type="line" smooth="yes"/>
			<point x="174" y="507"/>
			<point x="167" y="507"/>
			<point x="161" y="499" type="curve" smooth="yes"/>
			<point x="125" y="452"/>
			<point x="103" y="423"/>
			<point x="63" y="374" type="curve"/>
			<point x="243" y="311" type="line"/>
			<point x="48" y="270" type="line" smooth="yes"/>
			<point x="40" y="268"/>
			<point x="38" y="263"/>
			<point x="40" y="255" type="curve" smooth="yes"/>
			<point x="55" y="206"/>
			<point x="71" y="164"/>
			<point x="87" y="119" type="curve"/>
			<point x="260" y="254" type="line"/>
			<point x="165" y="60" type="line" smooth="yes"/>
			<point x="162" y="54"/>
			<point x="164" y="50"/>
			<point x="169" y="50" type="curve" smooth="yes"/>
			<point x="227" y="50"/>
			<point x="274" y="50"/>
			<point x="332" y="50" type="curve"/>
			<point x="331" y="97"/>
			<point x="329" y="136"/>
			<point x="328" y="183" type="curve" smooth="yes"/>
			<point x="327" y="249" type="line"/>
			<point x="445" y="133" type="line" smooth="yes"/>
			<point x="452" y="126"/>
			<point x="457" y="128"/>
			<point x="464" y="135" type="curve" smooth="yes"/>
			<point x="504" y="184"/>
			<point x="523" y="211"/>
			<point x="558" y="260" type="curve"/>
			<point x="374" y="310" type="line"/>
			<point x="566" y="351" type="line" smooth="yes"/>
			<point x="575" y="353"/>
			<point x="579" y="359"/>
			<point x="577" y="368" type="curve" smooth="yes"/>
			<point x="561" y="417"/>
			<point x="550" y="453"/>
			<point x="534" y="502" type="curve"/>
			<point x="354" y="366" type="line"/>
			<point x="448" y="558" type="line" smooth="yes"/>
			<point x="451" y="564"/>
			<point x="449" y="568"/>
		</contour>
	</outline>
</glyph>
<glyph name="zero" format="2">
	<unicode hex="0030"/>
	<advance width="600"/>
	<outline>
		<contour>
			<point x="399" y="720" type="curve" smooth="yes"/>
			<point x="238" y="720"/>
			<point x="131" y="640"/>
			<point x="91" y="480" type="curve" smooth="yes"/>
			<point x="33" y="248" type="line" smooth="yes"/>
			<point x="-10" y="75"/>
			<point x="57" y="-20"/>
			<point x="215" y="-20" type="curve" smooth="yes"/>
			<point x="375" y="-20"/>
			<point x="503" y="49"/>
			<point x="546" y="220" type="curve" smooth="yes"/>
			<point x="598" y="429" type="line" smooth="yes"/>
			<point x="643" y="610"/>
			<point x="562" y="720"/>
		</contour>
		<contour>
			<point x="366" y="540" type="curve" smooth="yes"/>
			<point x="380" y="540"/>
			<point x="389" y="535"/>
			<point x="394" y="526" type="curve" smooth="yes"/>
			<point x="400" y="516"/>
			<point x="400" y="503"/>
			<point x="397" y="489" type="curve" smooth="yes"/>
			<point x="328" y="211" type="line" smooth="yes"/>
			<point x="321" y="184"/>
			<point x="300" y="160"/>
			<point x="270" y="160" type="curve" smooth="yes"/>
			<point x="255" y="160"/>
			<point x="246" y="166"/>
			<point x="241" y="175" type="curve" smooth="yes"/>
			<point x="236" y="184"/>
			<point x="237" y="197"/>
			<point x="240" y="211" type="curve" smooth="yes"/>
			<point x="309" y="489" type="line" smooth="yes"/>
			<point x="316" y="516"/>
			<point x="336" y="540"/>
		</contour>
		<contour>
			<point x="495" y="571" type="line"/>
			<point x="432" y="527"/>
			<point x="389" y="488"/>
			<point x="354" y="451" type="curve" smooth="yes"/>
			<point x="320" y="415"/>
			<point x="302" y="381"/>
			<point x="290" y="333" type="curve"/>
			<point x="319" y="356" type="line"/>
			<point x="212" y="356" type="line"/>
			<point x="160" y="146" type="line"/>
			<point x="210" y="177"/>
			<point x="254" y="214"/>
			<point x="283" y="244" type="curve" smooth="yes"/>
			<point x="313" y="275"/>
			<point x="331" y="307"/>
			<point x="349" y="377" type="curve"/>
			<point x="330" y="355" type="line"/>
			<point x="441" y="355" type="line"/>
		</contour>
	</outline>
</glyph>
<glyph name="one" format="2">
	<unicode hex="0031"/>
	<advance width="600"/>
	<outline>
		<contour>
			<point x="326" y="710" type="curve"/>
			<point x="302" y="697"/>
			<point x="267" y="677"/>
			<point x="229" y="656" type="curve" smooth="yes"/>
			<point x="195" y="637"/>
			<point x="159" y="617"/>
			<point x="132" y="602" type="curve"/>
			<point x="74" y="371" type="line" smooth="yes"/>
			<point x="72" y="364"/>
			<point x="75" y="362"/>
			<point x="81" y="362" type="curve" smooth="yes"/>
			<point x="91" y="362"/>
			<point x="106" y="367"/>
			<point x="139" y="392" type="curve" smooth="yes"/>
			<point x="178" y="421"/>
			<point x="220" y="464"/>
			<point x="294" y="557" type="curve"/>
			<point x="252" y="535" type="line"/>
			<point x="326" y="535" type="line"/>
			<point x="304" y="565" type="line"/>
			<point x="274" y="448"/>
			<point x="211" y="193"/>
			<point x="204" y="164" type="curve" smooth="yes"/>
			<point x="197" y="135"/>
			<point x="191" y="112"/>
			<point x="188" y="101" type="curve"/>
			<point x="171" y="72" type="line"/>
			<point x="399" y="72" type="line"/>
			<point x="403" y="89"/>
			<point x="551" y="679"/>
			<point x="556" y="699" type="curve" smooth="yes"/>
			<point x="558" y="706"/>
			<point x="555" y="710"/>
			<point x="548" y="710" type="curve" smooth="yes"/>
			<point x="535" y="710"/>
			<point x="360" y="709"/>
		</contour>
		<contour>
			<point x="27" y="185" type="curve"/>
			<point x="24" y="170"/>
			<point x="-13" y="23"/>
			<point x="-16" y="11" type="curve" smooth="yes"/>
			<point x="-17" y="7"/>
			<point x="-17" y="5"/>
			<point x="-15" y="3" type="curve" smooth="yes"/>
			<point x="-14" y="1"/>
			<point x="-11" y="0"/>
			<point x="-8" y="0" type="curve" smooth="yes"/>
			<point x="5" y="0"/>
			<point x="486" y="0"/>
			<point x="501" y="0" type="curve"/>
			<point x="505" y="17"/>
			<point x="539" y="152"/>
			<point x="545" y="174" type="curve" smooth="yes"/>
			<point x="546" y="181"/>
			<point x="543" y="185"/>
			<point x="536" y="185" type="curve" smooth="yes"/>
			<point x="515" y="185"/>
			<point x="41" y="185"/>
		</contour>
	</outline>
</glyph>
<glyph name="two" format="2">
	<unicode hex="0032"/>
	<advance width="600"/>
	<outline>
		<contour>
			<point x="394" y="720" type="curve" smooth="yes"/>
			<point x="289" y="720"/>
			<point x="207" y="696"/>
			<point x="164" y="677" type="curve" smooth="yes"/>
			<point x="154" y="673"/>
			<point x="152" y="669"/>
			<point x="150" y="659" type="curve" smooth="yes"/>
			<point x="134" y="595"/>
			<point x="115" y="520"/>
			<point x="105" y="479" type="curve"/>
			<point x="125" y="479" type="line"/>
			<point x="183" y="508"/>
			<point x="255" y="523"/>
			<point x="327" y="523" type="curve" smooth="yes"/>
			<point x="375" y="523"/>
			<point x="396" y="517"/>
			<point x="403" y="512" type="curve" smooth="yes"/>
			<point x="410" y="507"/>
			<point x="412" y="499"/>
			<point x="410" y="492" type="curve" smooth="yes"/>
			<point x="409" y="489" type="line" smooth="yes"/>
			<point x="402" y="469"/>
			<point x="378" y="459"/>
			<point x="255" y="410" type="curve" smooth="yes"/>
			<point x="75" y="338"/>
			<point x="29" y="275"/>
			<point x="-4" y="140" type="curve" smooth="yes"/>
			<point x="-36" y="11" type="line" smooth="yes"/>
			<point x="-38" y="4"/>
			<point x="-35" y="0"/>
			<point x="-28" y="0" type="curve" smooth="yes"/>
			<point x="-16" y="0"/>
			<point x="479" y="0"/>
			<point x="494" y="0" type="curve"/>
			<point x="498" y="16"/>
			<point x="534" y="160"/>
			<point x="538" y="174" type="curve" smooth="yes"/>
			<point x="540" y="181"/>
			<point x="537" y="185"/>
			<point x="530" y="185" type="curve" smooth="yes"/>
			<point x="380" y="185" type="line" smooth="yes"/>
			<point x="288" y="185"/>
			<point x="217" y="171"/>
			<point x="165" y="142" type="curve"/>
			<point x="231" y="158" type="line"/>
			<point x="151" y="158" type="line"/>
			<point x="165" y="129" type="line"/>
			<point x="187" y="189"/>
			<point x="236" y="228"/>
			<point x="320" y="263" type="curve" smooth="yes"/>
			<point x="529" y="350"/>
			<point x="590" y="399"/>
			<point x="617" y="505" type="curve" smooth="yes"/>
			<point x="621" y="521" type="line" smooth="yes"/>
			<point x="648" y="629"/>
			<point x="602" y="720"/>
		</contour>
	</outline>
</glyph>
<glyph name="five" format="2">
	<unicode hex="0035"/>
	<advance width="600"/>
	<outline>
		<contour>
			<point x="181" y="700" type="curve"/>
			<point x="178" y="687"/>
			<point x="142" y="543"/>
			<point x="139" y="531" type="curve" smooth="yes"/>
			<point x="137" y="523"/>
			<point x="140" y="520"/>
			<point x="147" y="520" type="curve" smooth="yes"/>
			<point x="161" y="520"/>
			<point x="579" y="520"/>
			<point x="592" y="520" type="curve"/>
			<point x="595" y="531"/>
			<point x="630" y="672"/>
			<point x="634" y="689" type="curve" smooth="yes"/>
			<point x="636" y="696"/>
			<point x="633" y="700"/>
			<point x="626" y="700" type="curve" smooth="yes"/>
			<point x="611" y="700"/>
			<point x="196" y="700"/>
		</contour>
		<contour>
			<point x="174" y="700" type="line"/>
			<point x="132.708" y="562.804"/>
			<point x="61" y="324"/>
			<point x="50" y="288" type="curve" smooth="yes"/>
			<point x="48" y="280"/>
			<point x="51" y="276"/>
			<point x="60" y="276" type="curve" smooth="yes"/>
			<point x="243" y="276" type="line"/>
			<point x="255" y="284"/>
			<point x="269" y="287"/>
			<point x="295" y="287" type="curve" smooth="yes"/>
			<point x="327" y="287"/>
			<point x="353" y="271"/>
			<point x="341" y="235" type="curve" smooth="yes"/>
			<point x="340" y="232" type="line" smooth="yes"/>
			<point x="326" y="191"/>
			<point x="289" y="175"/>
			<point x="203" y="175" type="curve" smooth="yes"/>
			<point x="130" y="175"/>
			<point x="80" y="182"/>
			<point x="32" y="203" type="curve"/>
			<point x="12" y="203" type="line"/>
			<point x="7" y="181"/>
			<point x="-23" y="64"/>
			<point x="-27" y="49" type="curve" smooth="yes"/>
			<point x="-30" y="36"/>
			<point x="-32" y="29"/>
			<point x="-19" y="20" type="curve" smooth="yes"/>
			<point x="14" y="-3"/>
			<point x="95" y="-20"/>
			<point x="198" y="-20" type="curve" smooth="yes"/>
			<point x="408" y="-20"/>
			<point x="509" y="38"/>
			<point x="554" y="218" type="curve" smooth="yes"/>
			<point x="560" y="242" type="line" smooth="yes"/>
			<point x="585" y="341"/>
			<point x="532" y="430"/>
			<point x="412" y="430" type="curve" smooth="yes"/>
			<point x="348" y="430"/>
			<point x="302" y="411"/>
			<point x="263" y="375" type="curve"/>
			<point x="321" y="400" type="line"/>
			<point x="241" y="400" type="line"/>
			<point x="263" y="370" type="line"/>
			<point x="283" y="426"/>
			<point x="311.024" y="512.738"/>
			<point x="335" y="584" type="curve" smooth="yes"/>
			<point x="345" y="614"/>
			<point x="347" y="645"/>
			<point x="342" y="675" type="curve"/>
			<point x="304" y="700" type="line"/>
		</contour>
	</outline>
</glyph>
<glyph name="seven" format="2">
	<unicode hex="0037"/>
	<advance width="600"/>
	<outline>
		<contour>
			<point x="138" y="700" type="curve"/>
			<point x="136" y="690"/>
			<point x="76" y="451"/>
			<point x="73" y="441" type="curve" smooth="yes"/>
			<point x="71" y="434"/>
			<point x="74" y="430"/>
			<point x="81" y="430" type="curve" smooth="yes"/>
			<point x="91" y="430"/>
			<point x="266" y="430"/>
			<point x="276" y="430" type="curve"/>
			<point x="279" y="440"/>
			<point x="308" y="561"/>
			<point x="325" y="629" type="curve" smooth="yes"/>
			<point x="336" y="674"/>
			<point x="291" y="700"/>
		</contour>
		<contour>
			<point x="455" y="508" type="line"/>
			<point x="379" y="440"/>
			<point x="353" y="407"/>
			<point x="248" y="270" type="curve" smooth="yes"/>
			<point x="143" y="133"/>
			<point x="59" y="25"/>
			<point x="55" y="11" type="curve" smooth="yes"/>
			<point x="53" y="4"/>
			<point x="56" y="0"/>
			<point x="63" y="0" type="curve" smooth="yes"/>
			<point x="73" y="0"/>
			<point x="292" y="0"/>
			<point x="302" y="0" type="curve"/>
			<point x="383" y="123"/>
			<point x="459" y="239"/>
			<point x="492" y="290" type="curve" smooth="yes"/>
			<point x="525" y="341"/>
			<point x="627" y="496"/>
			<point x="628" y="500" type="curve" smooth="yes"/>
			<point x="631" y="512"/>
			<point x="671" y="674"/>
			<point x="675" y="689" type="curve" smooth="yes"/>
			<point x="677" y="696"/>
			<point x="674" y="700"/>
			<point x="667" y="700" type="curve" smooth="yes"/>
			<point x="657" y="700"/>
			<point x="314" y="700"/>
			<point x="138" y="700" type="curve"/>
			<point x="99" y="544"/>
			<point x="114" y="507"/>
			<point x="165" y="507" type="curve" smooth="yes"/>
			<point x="226" y="507" type="line" smooth="yes"/>
			<point x="266" y="507"/>
			<point x="367" y="507"/>
			<point x="463" y="507" type="curve"/>
			<point x="441" y="537" type="line"/>
			<point x="431" y="457" type="line"/>
		</contour>
	</outline>
</glyph>
<glyph name="eight" format="2">
	<unicode hex="0038"/>
	<advance width="600"/>
	<outline>
		<contour>
			<point x="394" y="720" type="curve" smooth="yes"/>
			<point x="239" y="720"/>
			<point x="142" y="641"/>
			<point x="114" y="545" type="curve" smooth="yes"/>
			<point x="107" y="516" type="line" smooth="yes"/>
			<point x="78" y="395"/>
			<point x="118" y="329"/>
			<point x="206" y="297" type="curve" smooth="yes"/>
			<point x="326" y="253" type="line" smooth="yes"/>
			<point x="352" y="243"/>
			<point x="363" y="228"/>
			<point x="356" y="200" type="curve" smooth="yes"/>
			<point x="349" y="172"/>
			<point x="318" y="156"/>
			<point x="270" y="156" type="curve" smooth="yes"/>
			<point x="218" y="156"/>
			<point x="202" y="176"/>
			<point x="210" y="211" type="curve" smooth="yes"/>
			<point x="219" y="246"/>
			<point x="257" y="280"/>
			<point x="341" y="298" type="curve"/>
			<point x="162" y="361" type="line"/>
			<point x="140" y="277" type="line"/>
			<point x="177" y="313" type="line"/>
			<point x="82" y="297"/>
			<point x="18" y="258"/>
			<point x="0" y="178" type="curve" smooth="yes"/>
			<point x="-2" y="169" type="line" smooth="yes"/>
			<point x="-29" y="47"/>
			<point x="48" y="-20"/>
			<point x="232" y="-20" type="curve" smooth="yes"/>
			<point x="408" y="-20"/>
			<point x="514" y="29"/>
			<point x="544" y="148" type="curve" smooth="yes"/>
			<point x="551" y="176" type="line" smooth="yes"/>
			<point x="575" y="272"/>
			<point x="536" y="354"/>
			<point x="446" y="385" type="curve" smooth="yes"/>
			<point x="337" y="422" type="line" smooth="yes"/>
			<point x="302" y="434"/>
			<point x="286" y="458"/>
			<point x="295" y="493" type="curve" smooth="yes"/>
			<point x="303" y="524"/>
			<point x="328" y="542"/>
			<point x="365" y="542" type="curve" smooth="yes"/>
			<point x="380" y="542"/>
			<point x="395" y="538"/>
			<point x="403" y="528" type="curve" smooth="yes"/>
			<point x="411" y="518"/>
			<point x="415" y="505"/>
			<point x="405" y="481" type="curve" smooth="yes"/>
			<point x="402" y="474" type="line" smooth="yes"/>
			<point x="388" y="442"/>
			<point x="363" y="422"/>
			<point x="332" y="413" type="curve"/>
			<point x="459" y="322" type="line"/>
			<point x="483" y="418" type="line"/>
			<point x="445" y="386" type="line"/>
			<point x="529" y="394"/>
			<point x="597" y="439"/>
			<point x="616" y="516" type="curve" smooth="yes"/>
			<point x="618" y="524" type="line" smooth="yes"/>
			<point x="642" y="619"/>
			<point x="573" y="720"/>
		</contour>
	</outline>
</glyph>
<glyph name="nine" format="2">
	<unicode hex="0039"/>
	<advance width="600"/>
	<outline>
		<contour>
			<point x="387" y="720" type="curve" smooth="yes"/>
			<point x="226" y="720"/>
			<point x="119" y="629"/>
			<point x="83" y="486" type="curve" smooth="yes"/>
			<point x="76" y="459" type="line" smooth="yes"/>
			<point x="41" y="325"/>
			<point x="95" y="240"/>
			<point x="205" y="240" type="curve" smooth="yes"/>
			<point x="261" y="240"/>
			<point x="320" y="255"/>
			<point x="362" y="319" type="curve"/>
			<point x="311" y="292" type="line"/>
			<point x="397" y="292" type="line"/>
			<point x="429" y="419" type="line"/>
			<point x="398" y="407"/>
			<point x="372" y="403"/>
			<point x="334" y="403" type="curve" smooth="yes"/>
			<point x="315" y="403"/>
			<point x="301" y="407"/>
			<point x="294" y="414" type="curve" smooth="yes"/>
			<point x="285" y="421"/>
			<point x="285" y="436"/>
			<point x="288" y="451" type="curve" smooth="yes"/>
			<point x="293" y="473" type="line" smooth="yes"/>
			<point x="301" y="506"/>
			<point x="322" y="526"/>
			<point x="357" y="526" type="curve" smooth="yes"/>
			<point x="380" y="526"/>
			<point x="393" y="522"/>
			<point x="401" y="513" type="curve" smooth="yes"/>
			<point x="409" y="504"/>
			<point x="410" y="489"/>
			<point x="401" y="454" type="curve" smooth="yes"/>
			<point x="353" y="263" type="line" smooth="yes"/>
			<point x="345" y="229"/>
			<point x="330" y="204"/>
			<point x="310" y="191" type="curve" smooth="yes"/>
			<point x="286" y="175"/>
			<point x="247" y="168"/>
			<point x="196" y="168" type="curve" smooth="yes"/>
			<point x="144" y="168"/>
			<point x="110" y="173"/>
			<point x="69" y="186" type="curve"/>
			<point x="49" y="186" type="line"/>
			<point x="46" y="176"/>
			<point x="13" y="37"/>
			<point x="10" y="25" type="curve" smooth="yes"/>
			<point x="8" y="16"/>
			<point x="9" y="12"/>
			<point x="17" y="8" type="curve" smooth="yes"/>
			<point x="57" y="-10"/>
			<point x="114" y="-20"/>
			<point x="203" y="-20" type="curve" smooth="yes"/>
			<point x="390" y="-20"/>
			<point x="513" y="48"/>
			<point x="569" y="271" type="curve" smooth="yes"/>
			<point x="604" y="411" type="line" smooth="yes"/>
			<point x="648" y="586"/>
			<point x="586" y="720"/>
		</contour>
	</outline>
</glyph>
<glyph name="at" format="2">
	<unicode hex="0040"/>
	<advance width="600"/>
	<outline>
		<contour>
			<point x="411" y="719" type="curve" smooth="yes"/>
			<point x="226" y="719"/>
			<point x="137" y="665"/>
			<point x="98" y="508" type="curve" smooth="yes"/>
			<point x="-20" y="37" type="line" smooth="yes"/>
			<point x="-55" y="-103"/>
			<point x="2" y="-174"/>
			<point x="187" y="-174" type="curve" smooth="yes"/>
			<point x="312" y="-174"/>
			<point x="391" y="-151"/>
			<point x="412" y="-134" type="curve"/>
			<point x="416" y="-131"/>
			<point x="417" y="-129"/>
			<point x="419" y="-122" type="curve" smooth="yes"/>
			<point x="454" y="23" type="line"/>
			<point x="434" y="23" type="line"/>
			<point x="381" y="9"/>
			<point x="302" y="0"/>
			<point x="231" y="0" type="curve" smooth="yes"/>
			<point x="149" y="0"/>
			<point x="108" y="11"/>
			<point x="90" y="35" type="curve"/>
			<point x="76" y="54"/>
			<point x="78" y="80"/>
			<point x="87" y="115" type="curve" smooth="yes"/>
			<point x="164" y="425" type="line" smooth="yes"/>
			<point x="187" y="518"/>
			<point x="218" y="550"/>
			<point x="368" y="550" type="curve" smooth="yes"/>
			<point x="445" y="550"/>
			<point x="494" y="539"/>
			<point x="512" y="514" type="curve"/>
			<point x="522" y="501"/>
			<point x="524" y="485"/>
			<point x="519" y="465" type="curve" smooth="yes"/>
			<point x="442" y="156" type="line" smooth="yes"/>
			<point x="438" y="139"/>
			<point x="427" y="129"/>
			<point x="411" y="129" type="curve" smooth="yes"/>
			<point x="405" y="129" type="line" smooth="yes"/>
			<point x="389" y="129"/>
			<point x="384" y="139"/>
			<point x="388" y="156" type="curve" smooth="yes"/>
			<point x="409" y="241"/>
			<point x="447" y="392"/>
			<point x="468" y="475" type="curve" smooth="yes"/>
			<point x="469" y="482"/>
			<point x="466" y="486"/>
			<point x="459" y="486" type="curve" smooth="yes"/>
			<point x="372" y="486" type="line"/>
			<point x="356" y="452"/>
			<point x="332" y="402"/>
			<point x="332" y="401" type="curve" smooth="yes"/>
			<point x="310" y="313"/>
			<point x="287" y="222"/>
			<point x="265" y="133" type="curve" smooth="yes"/>
			<point x="252" y="83"/>
			<point x="271" y="54"/>
			<point x="348" y="54" type="curve" smooth="yes"/>
			<point x="382" y="54" type="line" smooth="yes"/>
			<point x="465" y="54"/>
			<point x="514" y="92"/>
			<point x="530" y="157" type="curve" smooth="yes"/>
			<point x="618" y="508" type="line" smooth="yes"/>
			<point x="652" y="644"/>
			<point x="596" y="719"/>
		</contour>
		<contour>
			<point x="180" y="54" type="curve" smooth="yes"/>
			<point x="206" y="54"/>
			<point x="229" y="69"/>
			<point x="251" y="102" type="curve"/>
			<point x="318" y="102" type="line"/>
			<point x="335" y="172" type="line"/>
			<point x="307" y="172"/>
			<point x="292" y="172"/>
			<point x="279" y="172" type="curve"/>
			<point x="278" y="172"/>
			<point x="277" y="173"/>
			<point x="277" y="174" type="curve" smooth="yes"/>
			<point x="324" y="361" type="line" smooth="yes"/>
			<point x="324" y="362"/>
			<point x="326" y="363"/>
			<point x="327" y="363" type="curve" smooth="yes"/>
			<point x="341" y="363"/>
			<point x="361" y="363"/>
			<point x="384" y="363" type="curve"/>
			<point x="401" y="433" type="line"/>
			<point x="334" y="433" type="line"/>
			<point x="328" y="471"/>
			<point x="316" y="491"/>
			<point x="290" y="491" type="curve" smooth="yes"/>
			<point x="261" y="491"/>
			<point x="231" y="472"/>
			<point x="218" y="422" type="curve" smooth="yes"/>
			<point x="143" y="122" type="line" smooth="yes"/>
			<point x="131" y="73"/>
			<point x="151" y="54"/>
		</contour>
	</outline>
</glyph>
<glyph name="C" format="2">
	<unicode hex="0043"/>
	<advance width="600"/>
	<outline>
		<contour>
			<point x="294" y="-20" type="curve"/>
			<point x="394" y="-20"/>
			<point x="487" y="7"/>
			<point x="515" y="35" type="curve" smooth="yes"/>
			<point x="518" y="38"/>
			<point x="520" y="41"/>
			<point x="521" y="45" type="curve" smooth="yes"/>
			<point x="523" y="53"/>
			<point x="558" y="190"/>
			<point x="573" y="251" type="curve"/>
			<point x="553" y="251" type="line"/>
			<point x="481" y="214"/>
			<point x="419" y="190"/>
			<point x="336" y="190" type="curve"/>
			<point x="302" y="190"/>
			<point x="277" y="195"/>
			<point x="263" y="209" type="curve" smooth="yes"/>
			<point x="246" y="226"/>
			<point x="243" y="251"/>
			<point x="257" y="301" type="curve" smooth="yes"/>
			<point x="292" y="430" type="line" smooth="yes"/>
			<point x="311" y="499"/>
			<point x="336" y="520"/>
			<point x="383" y="520" type="curve"/>
			<point x="413" y="520"/>
			<point x="437" y="512"/>
			<point x="458" y="496" type="curve"/>
			<point x="434" y="537" type="line"/>
			<point x="429" y="514"/>
			<point x="423" y="492"/>
			<point x="418" y="469" type="curve"/>
			<point x="416" y="461"/>
			<point x="420" y="458"/>
			<point x="429" y="458" type="curve"/>
			<point x="490" y="458"/>
			<point x="552" y="458"/>
			<point x="615" y="458" type="curve"/>
			<point x="630" y="517"/>
			<point x="645" y="577"/>
			<point x="658" y="630" type="curve"/>
			<point x="660" y="639"/>
			<point x="658" y="643"/>
			<point x="654" y="648" type="curve" smooth="yes"/>
			<point x="628" y="684"/>
			<point x="516" y="720"/>
			<point x="415" y="720" type="curve"/>
			<point x="224" y="720"/>
			<point x="114" y="638"/>
			<point x="74" y="482" type="curve" smooth="yes"/>
			<point x="28" y="301" type="line" smooth="yes"/>
			<point x="-24" y="95"/>
			<point x="72" y="-20"/>
		</contour>
	</outline>
	<anchor name="bottom" x="252" y="0"/>
	<anchor name="top" x="409.7995302052" y="711"/>
	<guideline x="449" y="210" angle="0" identifier="i5BjB14gvh"/>
</glyph>
<glyph name="D" format="2">
	<unicode hex="0044"/>
	<advance width="600"/>
	<outline>
		<contour>
			<point x="577" y="226" type="curve" smooth="yes"/>
			<point x="632" y="441" type="line" smooth="yes"/>
			<point x="674" y="605"/>
			<point x="595" y="700"/>
			<point x="395" y="700" type="curve" smooth="yes"/>
			<point x="304" y="700"/>
			<point x="200" y="700"/>
			<point x="109" y="700" type="curve"/>
			<point x="92" y="634"/>
			<point x="78" y="577"/>
			<point x="62" y="511" type="curve" smooth="yes"/>
			<point x="60" y="506"/>
			<point x="63" y="500"/>
			<point x="70" y="500" type="curve" smooth="yes"/>
			<point x="159" y="500"/>
			<point x="257" y="500"/>
			<point x="346" y="500" type="curve" smooth="yes"/>
			<point x="364" y="500"/>
			<point x="374" y="495"/>
			<point x="384" y="485" type="curve" smooth="yes"/>
			<point x="404" y="465"/>
			<point x="401" y="443"/>
			<point x="387" y="386" type="curve" smooth="yes"/>
			<point x="363" y="290" type="line" smooth="yes"/>
			<point x="349.6953397918" y="236.7813591672"/>
			<point x="313.4731182796" y="200"/>
			<point x="269" y="200" type="curve"/>
			<point x="264" y="200"/>
			<point x="259" y="200"/>
			<point x="254" y="200" type="curve"/>
			<point x="273" y="278"/>
			<point x="292" y="355"/>
			<point x="312" y="433" type="curve" smooth="yes"/>
			<point x="318" y="458"/>
			<point x="326" y="489"/>
			<point x="331" y="508" type="curve"/>
			<point x="348" y="527" type="line"/>
			<point x="112" y="530" type="line"/>
			<point x="66" y="348"/>
			<point x="20" y="167"/>
			<point x="-18" y="11" type="curve"/>
			<point x="-20" y="3"/>
			<point x="-16" y="0"/>
			<point x="-10" y="0" type="curve"/>
			<point x="6" y="0"/>
			<point x="152" y="0"/>
			<point x="234" y="0" type="curve"/>
			<point x="431" y="0"/>
			<point x="537" y="70"/>
		</contour>
	</outline>
	<anchor name="top" x="399.7995302052" y="711"/>
	<guideline x="360" y="200" angle="0" identifier="Q8fdmsONrg"/>
</glyph>
<glyph name="E" format="2">
	<unicode hex="0045"/>
	<advance width="600"/>
	<outline>
		<contour>
			<point x="137" y="700" type="line"/>
			<point x="120.7138092452" y="634.8552369809"/>
			<point x="108.7482663123" y="585.8995319603"/>
			<point x="92" y="521" type="curve" smooth="yes"/>
			<point x="90" y="516"/>
			<point x="93" y="510"/>
			<point x="100" y="510" type="curve" smooth="yes"/>
			<point x="619" y="510" type="line"/>
			<point x="636" y="575"/>
			<point x="648" y="624"/>
			<point x="664" y="689" type="curve" smooth="yes"/>
			<point x="666" y="694"/>
			<point x="663" y="700"/>
			<point x="656" y="700" type="curve" smooth="yes"/>
		</contour>
		<contour>
			<point x="217" y="435" type="line"/>
			<point x="178" y="265" type="line"/>
			<point x="504" y="265" type="line"/>
			<point x="516" y="318"/>
			<point x="529" y="371"/>
			<point x="541" y="424" type="curve" smooth="yes"/>
			<point x="542" y="429"/>
			<point x="540" y="435"/>
			<point x="533" y="435" type="curve"/>
		</contour>
		<contour>
			<point x="18" y="0" type="curve"/>
			<point x="492" y="0" type="line"/>
			<point x="507" y="60"/>
			<point x="521" y="119"/>
			<point x="536" y="179" type="curve" smooth="yes"/>
			<point x="538" y="185"/>
			<point x="533" y="190"/>
			<point x="527" y="190" type="curve"/>
			<point x="281" y="190" type="line"/>
			<point x="306.3333333333" y="290.358974359"/>
			<point x="331.7983751893" y="393.1935007571"/>
			<point x="357" y="494" type="curve" smooth="yes"/>
			<point x="366" y="527"/>
			<point x="374" y="560"/>
			<point x="382" y="593" type="curve"/>
			<point x="399" y="612" type="line"/>
			<point x="160" y="608" type="line"/>
			<point x="110" y="409"/>
			<point x="60" y="210"/>
			<point x="10" y="11" type="curve"/>
			<point x="9" y="5"/>
			<point x="12" y="0"/>
		</contour>
	</outline>
	<anchor name="top" x="409.7995302052" y="711"/>
	<anchor name="ogonek" x="471.7499303373" y="-1"/>
	<anchor name="bottom" x="251.7499303373" y="-1"/>
</glyph>
<glyph name="F" format="2">
	<unicode hex="0046"/>
	<advance width="600"/>
	<outline>
		<contour>
			<point x="242" y="0" type="curve"/>
			<point x="249" y="28"/>
			<point x="258" y="62"/>
			<point x="267" y="98" type="curve"/>
			<point x="299" y="224"/>
			<point x="329" y="350"/>
			<point x="361" y="476" type="curve" smooth="yes"/>
			<point x="370" y="514"/>
			<point x="380" y="552"/>
			<point x="389" y="590" type="curve"/>
			<point x="401" y="610" type="line"/>
			<point x="170" y="612" type="line"/>
			<point x="121" y="412"/>
			<point x="69" y="211"/>
			<point x="20" y="11" type="curve" smooth="yes"/>
			<point x="18" y="5"/>
			<point x="22" y="0"/>
			<point x="28" y="0" type="curve" smooth="yes"/>
			<point x="100" y="0"/>
			<point x="170" y="0"/>
		</contour>
		<contour>
			<point x="137" y="700" type="line"/>
			<point x="120" y="631"/>
			<point x="105" y="570"/>
			<point x="88" y="501" type="curve" smooth="yes"/>
			<point x="86" y="496"/>
			<point x="89" y="490"/>
			<point x="96" y="490" type="curve"/>
			<point x="605" y="490" type="line"/>
			<point x="622" y="559"/>
			<point x="637" y="620"/>
			<point x="654" y="689" type="curve"/>
			<point x="656" y="694"/>
			<point x="653" y="700"/>
			<point x="646" y="700" type="curve"/>
		</contour>
		<contour>
			<point x="201" y="400" type="line"/>
			<point x="151" y="200" type="line"/>
			<point x="495" y="200" type="line"/>
			<point x="512" y="267"/>
			<point x="525" y="322"/>
			<point x="542" y="389" type="curve"/>
			<point x="544" y="396"/>
			<point x="539" y="400"/>
			<point x="534" y="400" type="curve"/>
		</contour>
	</outline>
</glyph>
<glyph name="H" format="2">
	<unicode hex="0048"/>
	<advance width="600"/>
	<outline>
		<contour>
			<point x="137" y="700" type="curve"/>
			<point x="128" y="664"/>
			<point x="119" y="629"/>
			<point x="110" y="593" type="curve" smooth="yes"/>
			<point x="62" y="399"/>
			<point x="13" y="205"/>
			<point x="-35" y="11" type="curve" smooth="yes"/>
			<point x="-37" y="5"/>
			<point x="-33" y="0"/>
			<point x="-27" y="0" type="curve" smooth="yes"/>
			<point x="45" y="0"/>
			<point x="116" y="0"/>
			<point x="188" y="0" type="curve"/>
			<point x="245" y="229"/>
			<point x="303" y="460"/>
			<point x="360" y="689" type="curve" smooth="yes"/>
			<point x="362" y="694"/>
			<point x="360" y="700"/>
			<point x="352" y="700" type="curve" smooth="yes"/>
			<point x="280" y="700"/>
			<point x="209" y="700"/>
		</contour>
		<contour>
			<point x="172" y="458" type="line"/>
			<point x="141" y="262" type="line" smooth="yes"/>
			<point x="140" y="257"/>
			<point x="141" y="251"/>
			<point x="149" y="251" type="curve"/>
			<point x="463" y="251" type="line"/>
			<point x="486" y="458" type="line"/>
			<point x="454" y="458" type="line"/>
			<point x="428" y="458"/>
			<point x="402" y="458"/>
			<point x="376" y="458" type="curve"/>
		</contour>
		<contour>
			<point x="502" y="0" type="curve"/>
			<point x="510" y="32"/>
			<point x="520" y="70"/>
			<point x="530" y="110" type="curve" smooth="yes"/>
			<point x="578" y="303"/>
			<point x="626" y="496"/>
			<point x="674" y="689" type="curve" smooth="yes"/>
			<point x="676" y="695"/>
			<point x="672" y="700"/>
			<point x="666" y="700" type="curve" smooth="yes"/>
			<point x="594" y="700"/>
			<point x="523" y="700"/>
			<point x="452" y="700" type="curve"/>
			<point x="395" y="471"/>
			<point x="337" y="240"/>
			<point x="280" y="11" type="curve" smooth="yes"/>
			<point x="278.209430585" y="5.6282917549"/>
			<point x="281.2052668078" y="0"/>
			<point x="288" y="0" type="curve" smooth="yes"/>
			<point x="359" y="0"/>
			<point x="430" y="0"/>
		</contour>
	</outline>
	<anchor name="top" x="409.7995302052" y="711"/>
</glyph>
<glyph name="J" format="2">
	<unicode hex="004A"/>
	<advance width="600"/>
	<outline>
		<contour>
			<point x="214" y="195" type="curve" smooth="yes"/>
			<point x="140" y="195"/>
			<point x="96" y="209"/>
			<point x="42" y="241" type="curve"/>
			<point x="22" y="241" type="line"/>
			<point x="6" y="178"/>
			<point x="-10" y="116"/>
			<point x="-26" y="53" type="curve"/>
			<point x="-26" y="50"/>
			<point x="-26" y="47"/>
			<point x="-25" y="45" type="curve" smooth="yes"/>
			<point x="-4" y="17"/>
			<point x="86" y="-20"/>
			<point x="220" y="-20" type="curve"/>
			<point x="387" y="-20"/>
			<point x="512" y="85"/>
			<point x="546" y="227" type="curve" smooth="yes"/>
			<point x="585" y="381"/>
			<point x="623" y="535"/>
			<point x="662" y="689" type="curve" smooth="yes"/>
			<point x="664" y="695"/>
			<point x="660" y="700"/>
			<point x="654" y="700" type="curve" smooth="yes"/>
			<point x="496" y="700"/>
			<point x="337" y="700"/>
			<point x="179" y="700" type="curve"/>
			<point x="162" y="635"/>
			<point x="144" y="569"/>
			<point x="127" y="504" type="curve"/>
			<point x="125" y="497"/>
			<point x="130" y="493"/>
			<point x="135" y="493" type="curve"/>
			<point x="226" y="493"/>
			<point x="318" y="493"/>
			<point x="409" y="493" type="curve"/>
			<point x="371" y="504" type="line"/>
			<point x="396" y="480" type="line"/>
			<point x="386" y="522" type="line"/>
			<point x="367.7412675602" y="449.9794442654"/>
			<point x="350.2587324398" y="378.0205557346"/>
			<point x="332" y="306" type="curve"/>
			<point x="322" y="267"/>
			<point x="309" y="240"/>
			<point x="292" y="223" type="curve" smooth="yes"/>
			<point x="271" y="203"/>
			<point x="246" y="195"/>
		</contour>
	</outline>
	<anchor name="top" x="404.7995302052" y="711"/>
	<guideline x="-69" y="0" angle="75.96" identifier="kdWzWa6uOq"/>
	<guideline x="-19" y="0" angle="75.96" identifier="kTlLsOI6FR"/>
	<guideline x="31" y="0" angle="75.96" identifier="t8Hq2dz6I8"/>
	<guideline x="81" y="0" angle="75.96" identifier="CmbMjw25zd"/>
	<guideline x="131" y="0" angle="75.96" identifier="74OhpJ38To"/>
	<guideline x="181" y="0" angle="75.96" identifier="0AomaIQG4u"/>
	<guideline x="231" y="0" angle="75.96" identifier="ynspjvYKJu"/>
	<guideline x="281" y="0" angle="75.96" identifier="cc4vlawiFS"/>
	<guideline x="331" y="0" angle="75.96" identifier="t0SYi7i2pT"/>
	<guideline x="381" y="0" angle="75.96" identifier="C6DW1HGYSV"/>
	<guideline x="431" y="0" angle="75.96" identifier="fHfDmoTbUA"/>
	<guideline x="481" y="0" angle="75.96" identifier="WMT50lx0yT"/>
	<guideline x="531" y="0" angle="75.96" identifier="hJ0cjSmKXA"/>
	<guideline x="-69" y="-250" angle="0" identifier="Vz2Nftv6IB"/>
	<guideline x="-69" y="-200" angle="0" identifier="9YjYyrxd8b"/>
	<guideline x="-69" y="-150" angle="0" identifier="ajoPWYgWuJ"/>
	<guideline x="-69" y="-100" angle="0" identifier="rhvxEIpZXX"/>
	<guideline x="-69" y="-50" angle="0" identifier="iDCGLDvD9y"/>
	<guideline x="-69" y="0" angle="0" identifier="m7FdmLpooH"/>
	<guideline x="-69" y="50" angle="0" identifier="84TrXzFBcN"/>
	<guideline x="-69" y="100" angle="0" identifier="uLntbPcbLC"/>
	<guideline x="-69" y="150" angle="0" identifier="TFf2pB4SKJ"/>
	<guideline x="-69" y="200" angle="0" identifier="No79H7nPcM"/>
	<guideline x="-69" y="250" angle="0" identifier="xC62B3gaya"/>
	<guideline x="-69" y="300" angle="0" identifier="lyOK0zzs0I"/>
	<guideline x="-69" y="350" angle="0" identifier="0k1u91AfzK"/>
	<guideline x="-69" y="400" angle="0" identifier="5yCOjU8oUW"/>
	<guideline x="-69" y="450" angle="0" identifier="ASAFpKRdjt"/>
	<guideline x="-69" y="500" angle="0" identifier="ktelDahUK5"/>
	<guideline x="-69" y="550" angle="0" identifier="eAPZAVVo3H"/>
	<guideline x="-69" y="600" angle="0" identifier="cDmzcEndpe"/>
	<guideline x="-69" y="650" angle="0" identifier="wpsxLCxnGv"/>
	<guideline x="-69" y="700" angle="0" identifier="s8iZtVJklU"/>
</glyph>
<glyph name="L" format="2">
	<unicode hex="004C"/>
	<advance width="600"/>
	<outline>
		<contour>
			<point x="-21" y="0" type="curve"/>
			<point x="501" y="0" type="line"/>
			<point x="534.560338004" y="132.2672144863"/>
			<point x="488.905511811" y="207"/>
			<point x="373" y="207" type="curve"/>
			<point x="254" y="207" type="line"/>
			<point x="294" y="368"/>
			<point x="334" y="528"/>
			<point x="374" y="689" type="curve"/>
			<point x="376" y="694"/>
			<point x="373" y="700"/>
			<point x="366" y="700" type="curve"/>
			<point x="291" y="700"/>
			<point x="217" y="700"/>
			<point x="142" y="700" type="curve"/>
			<point x="134" y="667"/>
			<point x="125" y="633"/>
			<point x="117" y="600" type="curve"/>
			<point x="68" y="404"/>
			<point x="19" y="207"/>
			<point x="-30" y="11" type="curve"/>
			<point x="-32" y="5"/>
			<point x="-28" y="0"/>
		</contour>
		<contour>
			<point x="385" y="290" type="curve"/>
			<point x="379" y="267"/>
			<point x="369" y="229"/>
			<point x="363" y="206" type="curve"/>
			<point x="329" y="74"/>
			<point x="378" y="0"/>
			<point x="501" y="0" type="curve"/>
			<point x="523" y="88"/>
			<point x="550" y="191"/>
			<point x="573" y="279" type="curve"/>
			<point x="575" y="285"/>
			<point x="571" y="290"/>
			<point x="565" y="290" type="curve" smooth="yes"/>
			<point x="505" y="290"/>
			<point x="445" y="290"/>
		</contour>
	</outline>
	<anchor name="top" x="260" y="711"/>
	<anchor name="bottom" x="237" y="-1"/>
	<anchor name="dot" x="452" y="400"/>
	<anchor name="caronslovak" x="515" y="550"/>
	<guideline x="-69" y="0" angle="75.96" identifier="ZlXA4EC0ZP"/>
	<guideline x="-19" y="0" angle="75.96" identifier="TTp09xf3CN"/>
	<guideline x="31" y="0" angle="75.96" identifier="LaWIuHPago"/>
	<guideline x="81" y="0" angle="75.96" identifier="HoMy7mwylQ"/>
	<guideline x="131" y="0" angle="75.96" identifier="QYrcuVOjRY"/>
	<guideline x="181" y="0" angle="75.96" identifier="M2GzQrUPRR"/>
	<guideline x="231" y="0" angle="75.96" identifier="nvMf84bTHB"/>
	<guideline x="281" y="0" angle="75.96" identifier="Y2IdloNoMB"/>
	<guideline x="331" y="0" angle="75.96" identifier="sEdNxc137p"/>
	<guideline x="381" y="0" angle="75.96" identifier="cgvoVYdz1O"/>
	<guideline x="431" y="0" angle="75.96" identifier="ezHzLctJ55"/>
	<guideline x="481" y="0" angle="75.96" identifier="GrtAcU5VTS"/>
	<guideline x="531" y="0" angle="75.96" identifier="kipECkPMGu"/>
	<guideline x="-69" y="-250" angle="0" identifier="Qc4C7fpld0"/>
	<guideline x="-69" y="-200" angle="0" identifier="efSdJU7Enz"/>
	<guideline x="-69" y="-150" angle="0" identifier="Km1UnKKqEF"/>
	<guideline x="-69" y="-100" angle="0" identifier="rmezAQ15cX"/>
	<guideline x="-69" y="-50" angle="0" identifier="dddsrJxAd7"/>
	<guideline x="-69" y="0" angle="0" identifier="iRNFh8akuo"/>
	<guideline x="-69" y="50" angle="0" identifier="RlVS1d1K9w"/>
	<guideline x="-69" y="100" angle="0" identifier="RNk9OUVtvs"/>
	<guideline x="-69" y="150" angle="0" identifier="vY7RqM8Vux"/>
	<guideline x="-69" y="200" angle="0" identifier="WuSvKNGi9x"/>
	<guideline x="-69" y="250" angle="0" identifier="KKS6B0EtEp"/>
	<guideline x="-69" y="300" angle="0" identifier="NYqb9GU1pl"/>
	<guideline x="-69" y="350" angle="0" identifier="lbR93nN4Yd"/>
	<guideline x="-69" y="400" angle="0" identifier="raYx22IEdO"/>
	<guideline x="-69" y="450" angle="0" identifier="ZWOGE6Lo9u"/>
	<guideline x="-69" y="500" angle="0" identifier="dWJ2UwuRAJ"/>
	<guideline x="-69" y="550" angle="0" identifier="rRRoiqsr9H"/>
	<guideline x="-69" y="600" angle="0" identifier="WohrQa0iqY"/>
	<guideline x="-69" y="650" angle="0" identifier="AVUFXb5aHz"/>
	<guideline x="-69" y="700" angle="0" identifier="Ys67OSy8ir"/>
</glyph>
<glyph name="M" format="2">
	<unicode hex="004D"/>
	<advance width="600"/>
	<outline>
		<contour>
			<point x="154" y="0" type="curve"/>
			<point x="162.2772144025" y="30.8514355003"/>
			<point x="172" y="61"/>
			<point x="180" y="92" type="curve" smooth="yes"/>
			<point x="199" y="165"/>
			<point x="199" y="215"/>
			<point x="193" y="518" type="curve"/>
			<point x="188" y="491" type="line"/>
			<point x="221" y="491" type="line"/>
			<point x="212" y="516" type="line"/>
			<point x="227" y="367"/>
			<point x="239" y="250"/>
			<point x="250" y="132" type="curve"/>
			<point x="252" y="125"/>
			<point x="256" y="124"/>
			<point x="260" y="124" type="curve"/>
			<point x="264" y="124"/>
			<point x="267" y="124"/>
			<point x="271" y="124" type="curve"/>
			<point x="342" y="241"/>
			<point x="413" y="357"/>
			<point x="500" y="504" type="curve"/>
			<point x="482" y="491" type="line"/>
			<point x="524" y="491" type="line"/>
			<point x="521" y="506" type="line"/>
			<point x="367" y="210"/>
			<point x="345" y="159"/>
			<point x="329" y="92" type="curve" smooth="yes"/>
			<point x="323" y="65"/>
			<point x="314" y="38"/>
			<point x="307" y="11" type="curve"/>
			<point x="306" y="5"/>
			<point x="308" y="0"/>
			<point x="315" y="0" type="curve"/>
			<point x="377" y="0"/>
			<point x="442" y="0"/>
			<point x="504" y="0" type="curve"/>
			<point x="513" y="33"/>
			<point x="521" y="65"/>
			<point x="529" y="98" type="curve"/>
			<point x="578" y="295"/>
			<point x="628" y="492"/>
			<point x="677" y="689" type="curve" smooth="yes"/>
			<point x="678" y="695"/>
			<point x="676" y="700"/>
			<point x="669" y="700" type="curve"/>
			<point x="604" y="700"/>
			<point x="540" y="700"/>
			<point x="475" y="700" type="curve"/>
			<point x="399" y="582"/>
			<point x="376" y="530"/>
			<point x="332" y="395" type="curve"/>
			<point x="383" y="455" type="line"/>
			<point x="310" y="455" type="line"/>
			<point x="329" y="395" type="line"/>
			<point x="342" y="536"/>
			<point x="343" y="587"/>
			<point x="339" y="688" type="curve" smooth="yes"/>
			<point x="339" y="696"/>
			<point x="336" y="700"/>
			<point x="326" y="700" type="curve"/>
			<point x="261" y="700"/>
			<point x="197" y="700"/>
			<point x="132" y="700" type="curve"/>
			<point x="122" y="667"/>
			<point x="114" y="635"/>
			<point x="107" y="602" type="curve"/>
			<point x="58" y="405"/>
			<point x="8" y="208"/>
			<point x="-41" y="11" type="curve"/>
			<point x="-42" y="5"/>
			<point x="-40" y="0"/>
			<point x="-33" y="0" type="curve"/>
			<point x="29" y="0"/>
			<point x="92" y="0"/>
		</contour>
	</outline>
</glyph>
<glyph name="N" format="2">
	<unicode hex="004E"/>
	<advance width="600"/>
	<outline>
		<contour>
			<point x="179" y="0" type="curve"/>
			<point x="185" y="23"/>
			<point x="189" y="41"/>
			<point x="198" y="75" type="curve"/>
			<point x="218" y="162"/>
			<point x="214" y="131"/>
			<point x="214" y="394" type="curve"/>
			<point x="199" y="386" type="line"/>
			<point x="257" y="386" type="line"/>
			<point x="233" y="394" type="line"/>
			<point x="259" y="257"/>
			<point x="283" y="132"/>
			<point x="303" y="26" type="curve" smooth="yes"/>
			<point x="308" y="1"/>
			<point x="310" y="0"/>
			<point x="330" y="0" type="curve" smooth="yes"/>
			<point x="377" y="0"/>
			<point x="435" y="0"/>
			<point x="495" y="0" type="curve"/>
			<point x="503" y="32"/>
			<point x="511" y="63"/>
			<point x="519" y="95" type="curve" smooth="yes"/>
			<point x="569" y="293"/>
			<point x="618" y="491"/>
			<point x="668" y="689" type="curve" smooth="yes"/>
			<point x="669" y="695"/>
			<point x="666" y="700"/>
			<point x="660" y="700" type="curve" smooth="yes"/>
			<point x="594" y="700"/>
			<point x="522" y="700"/>
			<point x="459" y="700" type="curve"/>
			<point x="453" y="678"/>
			<point x="447" y="655"/>
			<point x="440" y="628" type="curve" smooth="yes"/>
			<point x="419" y="543"/>
			<point x="423" y="569"/>
			<point x="423" y="297" type="curve"/>
			<point x="435" y="314" type="line"/>
			<point x="383" y="314" type="line"/>
			<point x="405" y="298" type="line"/>
			<point x="378" y="443"/>
			<point x="354" y="568"/>
			<point x="334" y="671" type="curve" smooth="yes"/>
			<point x="329" y="698"/>
			<point x="327" y="700"/>
			<point x="314" y="700" type="curve" smooth="yes"/>
			<point x="252" y="700"/>
			<point x="199.6741573034" y="700"/>
			<point x="142" y="700" type="curve"/>
			<point x="130" y="653"/>
			<point x="119" y="607"/>
			<point x="107" y="560" type="curve" smooth="yes"/>
			<point x="62" y="377"/>
			<point x="15" y="194"/>
			<point x="-31" y="11" type="curve" smooth="yes"/>
			<point x="-32" y="5"/>
			<point x="-29" y="0"/>
			<point x="-23" y="0" type="curve" smooth="yes"/>
			<point x="42.6732673267" y="0"/>
			<point x="113" y="0"/>
		</contour>
	</outline>
	<anchor name="top" x="409.5494605425" y="710"/>
	<anchor name="bottom" x="231.7499303373" y="-1"/>
	<guideline x="-452" y="75" angle="0" identifier="bL0TZADGlF"/>
	<guideline x="-348" y="628" angle="0" identifier="boGJUwkmVQ"/>
	<guideline x="-336" y="572" angle="0" identifier="eqKDnpqk64"/>
	<guideline x="-423" y="128" angle="0" identifier="sMBjmqAEoJ"/>
</glyph>
<glyph name="O" format="2">
	<unicode hex="004F"/>
	<advance width="600"/>
	<outline>
		<contour>
			<point x="391" y="720" type="curve"/>
			<point x="231" y="720"/>
			<point x="128" y="659"/>
			<point x="88" y="500" type="curve" smooth="yes"/>
			<point x="22" y="240" type="line" smooth="yes"/>
			<point x="-18" y="81"/>
			<point x="53" y="-20"/>
			<point x="244" y="-20" type="curve"/>
			<point x="403" y="-20"/>
			<point x="510" y="42"/>
			<point x="550" y="201" type="curve" smooth="yes"/>
			<point x="616" y="461" type="line" smooth="yes"/>
			<point x="656" y="620"/>
			<point x="581" y="720"/>
		</contour>
		<contour>
			<point x="243" y="235" type="curve" smooth="yes"/>
			<point x="302" y="468" type="line" smooth="yes"/>
			<point x="311" y="505"/>
			<point x="329" y="520"/>
			<point x="361" y="520" type="curve"/>
			<point x="374" y="520"/>
			<point x="382" y="517"/>
			<point x="388" y="511" type="curve" smooth="yes"/>
			<point x="397" y="502"/>
			<point x="398" y="487"/>
			<point x="393" y="465" type="curve" smooth="yes"/>
			<point x="334" y="232" type="line" smooth="yes"/>
			<point x="325" y="195"/>
			<point x="307" y="180"/>
			<point x="275" y="180" type="curve"/>
			<point x="262" y="180"/>
			<point x="253" y="183"/>
			<point x="247" y="189" type="curve" smooth="yes"/>
			<point x="239" y="197"/>
			<point x="238" y="213"/>
		</contour>
	</outline>
	<anchor name="top" x="410" y="711"/>
	<anchor name="bottom" x="231.7499303373" y="-1"/>
	<anchor name="ogonek" x="336" y="0"/>
	<anchor name="horn" x="527" y="675"/>
	<anchor name="hook" x="411" y="730"/>
	<guideline x="-69" y="0" angle="75.96" identifier="qyI5uhePaF"/>
	<guideline x="-19" y="0" angle="75.96" identifier="gHqErjKvUB"/>
	<guideline x="31" y="0" angle="75.96" identifier="VSjIPEV6qJ"/>
	<guideline x="81" y="0" angle="75.96" identifier="RHV8whNrdm"/>
	<guideline x="131" y="0" angle="75.96" identifier="U7SnEmHR0f"/>
	<guideline x="181" y="0" angle="75.96" identifier="TYbu8MEbCj"/>
	<guideline x="231" y="0" angle="75.96" identifier="iAfvLh8Jhl"/>
	<guideline x="281" y="0" angle="75.96" identifier="UQrKdQ5hXp"/>
	<guideline x="331" y="0" angle="75.96" identifier="YvIqbi7xxM"/>
	<guideline x="381" y="0" angle="75.96" identifier="RvlWnt9bu8"/>
	<guideline x="431" y="0" angle="75.96" identifier="A4tAONKNyK"/>
	<guideline x="481" y="0" angle="75.96" identifier="ORnMpUhKA3"/>
	<guideline x="531" y="0" angle="75.96" identifier="S8cSGoHeNN"/>
	<guideline x="-69" y="-250" angle="0" identifier="S7wHBa2USe"/>
	<guideline x="-69" y="-200" angle="0" identifier="6X6FoxGrPa"/>
	<guideline x="-69" y="-150" angle="0" identifier="drVMPy987j"/>
	<guideline x="-69" y="-100" angle="0" identifier="Pq094vu4AD"/>
	<guideline x="-69" y="-50" angle="0" identifier="5Wa9k4Qoai"/>
	<guideline x="-69" y="0" angle="0" identifier="al5SHoBIjX"/>
	<guideline x="-69" y="50" angle="0" identifier="zPni1KAujQ"/>
	<guideline x="-69" y="100" angle="0" identifier="GuxUijkuQS"/>
	<guideline x="-69" y="150" angle="0" identifier="xB1GMtwisf"/>
	<guideline x="-69" y="200" angle="0" identifier="JTtZWNqt6P"/>
	<guideline x="-69" y="250" angle="0" identifier="ziXeI87g0M"/>
	<guideline x="-69" y="300" angle="0" identifier="uhH2KmxTml"/>
	<guideline x="-69" y="350" angle="0" identifier="MjgK6fj1Cx"/>
	<guideline x="-69" y="400" angle="0" identifier="9OWeQk7QU1"/>
	<guideline x="-69" y="450" angle="0" identifier="5qnr1JmU1d"/>
	<guideline x="-69" y="500" angle="0" identifier="Xxx3TngSPb"/>
	<guideline x="-69" y="550" angle="0" identifier="0xLm3OnHNd"/>
	<guideline x="-69" y="600" angle="0" identifier="IRvThqIMcv"/>
	<guideline x="-69" y="650" angle="0" identifier="wcyg8MMd50"/>
	<guideline x="-69" y="700" angle="0" identifier="GHGf8ro87A"/>
</glyph>
<glyph name="P" format="2">
	<unicode hex="0050"/>
	<advance width="600"/>
	<outline>
		<contour>
			<point x="213" y="0" type="curve"/>
			<point x="220" y="28"/>
			<point x="229" y="62"/>
			<point x="238" y="98" type="curve"/>
			<point x="264.580265273" y="202.6597945125"/>
			<point x="289.419734727" y="307.3402054875"/>
			<point x="316" y="412" type="curve" smooth="yes"/>
			<point x="325" y="450"/>
			<point x="335" y="488"/>
			<point x="344" y="526" type="curve"/>
			<point x="356" y="546" type="line"/>
			<point x="124" y="548" type="line"/>
			<point x="80.2184624586" y="369.2998467698"/>
			<point x="34" y="190"/>
			<point x="-10" y="11" type="curve" smooth="yes"/>
			<point x="-12" y="5"/>
			<point x="-8" y="0"/>
			<point x="-2" y="0" type="curve" smooth="yes"/>
			<point x="70" y="0"/>
			<point x="140.9329608939" y="0"/>
		</contour>
		<contour>
			<point x="117" y="700" type="curve"/>
			<point x="100" y="634"/>
			<point x="87" y="576"/>
			<point x="70" y="510" type="curve" smooth="yes"/>
			<point x="68" y="505"/>
			<point x="71" y="499"/>
			<point x="78" y="499" type="curve"/>
			<point x="164" y="499"/>
			<point x="253" y="499"/>
			<point x="339" y="499" type="curve"/>
			<point x="365" y="499"/>
			<point x="377" y="496"/>
			<point x="386" y="488" type="curve" smooth="yes"/>
			<point x="395" y="480"/>
			<point x="397" y="469"/>
			<point x="391" y="445" type="curve" smooth="yes"/>
			<point x="382" y="408" type="line" smooth="yes"/>
			<point x="371" y="361"/>
			<point x="357" y="347"/>
			<point x="326" y="347" type="curve"/>
			<point x="297" y="347"/>
			<point x="269" y="347"/>
			<point x="240" y="347" type="curve"/>
			<point x="190" y="151" type="line"/>
			<point x="206" y="157" type="line"/>
			<point x="247" y="157"/>
			<point x="293" y="157"/>
			<point x="336" y="157" type="curve" smooth="yes"/>
			<point x="478" y="157"/>
			<point x="566" y="228"/>
			<point x="600" y="369" type="curve" smooth="yes"/>
			<point x="620" y="451" type="line" smooth="yes"/>
			<point x="658" y="606"/>
			<point x="587" y="700"/>
			<point x="430" y="700" type="curve" smooth="yes"/>
			<point x="323" y="700"/>
			<point x="225" y="700"/>
		</contour>
	</outline>
	<guideline x="320" y="499" angle="0" identifier="Xa8GzOhfE8"/>
</glyph>
<glyph name="Q" format="2">
	<unicode hex="0051"/>
	<advance width="600"/>
	<outline>
		<contour>
			<point x="410" y="144" type="curve"/>
			<point x="216" y="29" type="line"/>
			<point x="231" y="-12"/>
			<point x="245" y="-53"/>
			<point x="260" y="-94" type="curve" smooth="yes"/>
			<point x="282" y="-155"/>
			<point x="311" y="-177"/>
			<point x="399" y="-177" type="curve" smooth="yes"/>
			<point x="417" y="-177"/>
			<point x="435" y="-177"/>
			<point x="453" y="-177" type="curve" smooth="yes"/>
			<point x="460" y="-177"/>
			<point x="465" y="-173"/>
			<point x="467" y="-166" type="curve" smooth="yes"/>
			<point x="483.085097402" y="-102.8969255766"/>
			<point x="496.4330921519" y="-47.8621160337"/>
			<point x="512" y="17" type="curve"/>
			<point x="507" y="17" type="line"/>
			<point x="501" y="17"/>
			<point x="498" y="17"/>
			<point x="492" y="17" type="curve"/>
			<point x="462" y="17"/>
			<point x="448" y="20"/>
			<point x="441" y="44" type="curve"/>
			<point x="431" y="77"/>
			<point x="420" y="111"/>
		</contour>
		<component base="O"/>
	</outline>
	<guideline x="591" y="17" angle="0" identifier="OIdVLoU1zT"/>
	<guideline x="607" y="-177" angle="0" identifier="moK8BjsHu2"/>
	<guideline x="216" y="32" angle="75.96" identifier="XiPtnDM1aB"/>
</glyph>
<glyph name="S" format="2">
	<unicode hex="0053"/>
	<advance width="600"/>
	<outline>
		<contour>
			<point x="431" y="720" type="curve" smooth="yes"/>
			<point x="255" y="720"/>
			<point x="135" y="666"/>
			<point x="104" y="546" type="curve" smooth="yes"/>
			<point x="91" y="496" type="line" smooth="yes"/>
			<point x="74" y="424"/>
			<point x="77" y="330"/>
			<point x="241" y="280" type="curve" smooth="yes"/>
			<point x="302" y="261" type="line" smooth="yes"/>
			<point x="331" y="252"/>
			<point x="358" y="243"/>
			<point x="350" y="212" type="curve" smooth="yes"/>
			<point x="348" y="204" type="line" smooth="yes"/>
			<point x="342" y="180"/>
			<point x="315" y="173"/>
			<point x="260" y="173" type="curve" smooth="yes"/>
			<point x="159" y="173"/>
			<point x="92" y="199"/>
			<point x="41" y="238" type="curve"/>
			<point x="21" y="238" type="line"/>
			<point x="7" y="179"/>
			<point x="-8" y="120"/>
			<point x="-21" y="61" type="curve"/>
			<point x="-22" y="57"/>
			<point x="-23" y="53"/>
			<point x="-19" y="49" type="curve" smooth="yes"/>
			<point x="16" y="14"/>
			<point x="110" y="-20"/>
			<point x="239" y="-20" type="curve" smooth="yes"/>
			<point x="404" y="-20"/>
			<point x="509" y="35"/>
			<point x="543" y="169" type="curve" smooth="yes"/>
			<point x="553" y="211" type="line" smooth="yes"/>
			<point x="577" y="305"/>
			<point x="551" y="372"/>
			<point x="412" y="418" type="curve" smooth="yes"/>
			<point x="324" y="447" type="line" smooth="yes"/>
			<point x="304" y="454"/>
			<point x="295" y="466"/>
			<point x="300" y="485" type="curve" smooth="yes"/>
			<point x="303" y="497" type="line" smooth="yes"/>
			<point x="310" y="525"/>
			<point x="328" y="532"/>
			<point x="383" y="532" type="curve"/>
			<point x="411" y="532"/>
			<point x="440" y="526"/>
			<point x="456" y="517" type="curve"/>
			<point x="434" y="560" type="line"/>
			<point x="427" y="534"/>
			<point x="420" y="508"/>
			<point x="413" y="481" type="curve" smooth="yes"/>
			<point x="411" y="473"/>
			<point x="413" y="470"/>
			<point x="421" y="470" type="curve" smooth="yes"/>
			<point x="477" y="470"/>
			<point x="544" y="470"/>
			<point x="605" y="470" type="curve"/>
			<point x="620" y="529"/>
			<point x="635" y="589"/>
			<point x="650" y="648" type="curve" smooth="yes"/>
			<point x="653" y="661"/>
			<point x="654" y="662"/>
			<point x="649" y="667" type="curve" smooth="yes"/>
			<point x="625" y="691"/>
			<point x="542" y="720"/>
		</contour>
	</outline>
	<anchor name="top" x="428.7995302052" y="711"/>
	<anchor name="bottom" x="245" y="-1"/>
	<guideline x="-68" y="0" angle="75.96" identifier="8BBvkLVLax"/>
	<guideline x="-18" y="0" angle="75.96" identifier="yVPw8fyopB"/>
	<guideline x="32" y="0" angle="75.96" identifier="IPli5xwDJh"/>
	<guideline x="82" y="0" angle="75.96" identifier="xQQNBHeLsw"/>
	<guideline x="132" y="0" angle="75.96" identifier="A5GpzduW6S"/>
	<guideline x="182" y="0" angle="75.96" identifier="JGjEftkoqS"/>
	<guideline x="232" y="0" angle="75.96" identifier="TAmKxLjkdW"/>
	<guideline x="282" y="0" angle="75.96" identifier="6CNIMpWScm"/>
	<guideline x="332" y="0" angle="75.96" identifier="2IYobtZNBZ"/>
	<guideline x="382" y="0" angle="75.96" identifier="uq0CSUay2t"/>
	<guideline x="432" y="0" angle="75.96" identifier="JKcf0jXdbR"/>
	<guideline x="482" y="0" angle="75.96" identifier="OsdNygtWAV"/>
	<guideline x="532" y="0" angle="75.96" identifier="VBEE89Ahkx"/>
	<guideline x="-68" y="-250" angle="0" identifier="OzpVc24CRH"/>
	<guideline x="-68" y="-200" angle="0" identifier="3pXrV3SHi9"/>
	<guideline x="-68" y="-150" angle="0" identifier="W1QHlp8qF1"/>
	<guideline x="-68" y="-100" angle="0" identifier="qLozBIjp5a"/>
	<guideline x="-68" y="-50" angle="0" identifier="n3z0CnPklL"/>
	<guideline x="-68" y="0" angle="0" identifier="rQerhyu5yI"/>
	<guideline x="-68" y="50" angle="0" identifier="r8YE1qngEW"/>
	<guideline x="-68" y="100" angle="0" identifier="krrsaEO39P"/>
	<guideline x="-68" y="150" angle="0" identifier="xfoMHvAKUO"/>
	<guideline x="-68" y="200" angle="0" identifier="7sEbN8QMdw"/>
	<guideline x="-68" y="250" angle="0" identifier="3CBsSNjlE8"/>
	<guideline x="-68" y="300" angle="0" identifier="xNwmXtI0AQ"/>
	<guideline x="-68" y="350" angle="0" identifier="Jg4nFiUe2S"/>
	<guideline x="-68" y="400" angle="0" identifier="ewOlsrBxAW"/>
	<guideline x="-68" y="450" angle="0" identifier="3S9zVtu3G6"/>
	<guideline x="-68" y="500" angle="0" identifier="uu4SAMoFED"/>
	<guideline x="-68" y="550" angle="0" identifier="Z77PGQJfve"/>
	<guideline x="-68" y="600" angle="0" identifier="pA7NUfgVjr"/>
	<guideline x="-68" y="650" angle="0" identifier="a8XP2w1nsa"/>
	<guideline x="-68" y="700" angle="0" identifier="qZiCZYYoLa"/>
</glyph>
<glyph name="T" format="2">
	<unicode hex="0054"/>
	<advance width="600"/>
	<outline>
		<contour>
			<point x="126" y="700" type="line"/>
			<point x="109" y="635"/>
			<point x="92" y="569"/>
			<point x="75" y="504" type="curve"/>
			<point x="73" y="499"/>
			<point x="76" y="493"/>
			<point x="83" y="493" type="curve"/>
			<point x="632" y="493" type="line"/>
			<point x="649" y="558"/>
			<point x="666" y="624"/>
			<point x="683" y="689" type="curve"/>
			<point x="685" y="695"/>
			<point x="681" y="700"/>
			<point x="675" y="700" type="curve"/>
		</contour>
		<contour>
			<point x="344" y="0" type="curve"/>
			<point x="352" y="33"/>
			<point x="361" y="67"/>
			<point x="369" y="100" type="curve"/>
			<point x="393" y="194"/>
			<point x="416" y="288"/>
			<point x="440" y="382" type="curve"/>
			<point x="460" y="458"/>
			<point x="482.688" y="553.419"/>
			<point x="504" y="639" type="curve" smooth="yes"/>
			<point x="518" y="650" type="line"/>
			<point x="280" y="650" type="line"/>
			<point x="227" y="437"/>
			<point x="173" y="224"/>
			<point x="120" y="11" type="curve"/>
			<point x="118" y="6"/>
			<point x="120" y="0"/>
			<point x="128" y="0" type="curve"/>
			<point x="200" y="0"/>
			<point x="272" y="0"/>
		</contour>
	</outline>
	<anchor name="top" x="409.7995302052" y="711"/>
	<anchor name="bottom" x="242" y="-1"/>
	<guideline x="-69" y="0" angle="75.96" identifier="U7G3zIVPv9"/>
	<guideline x="-19" y="0" angle="75.96" identifier="suijhZEbI8"/>
	<guideline x="31" y="0" angle="75.96" identifier="rj4WNT4VAK"/>
	<guideline x="81" y="0" angle="75.96" identifier="2cWCNZbC8d"/>
	<guideline x="131" y="0" angle="75.96" identifier="tNlxKwfWhd"/>
	<guideline x="181" y="0" angle="75.96" identifier="3UivTwfsyO"/>
	<guideline x="231" y="0" angle="75.96" identifier="AtWsCGFR6i"/>
	<guideline x="281" y="0" angle="75.96" identifier="kvqSP3yJSY"/>
	<guideline x="331" y="0" angle="75.96" identifier="QGQeWXRyKL"/>
	<guideline x="381" y="0" angle="75.96" identifier="v6BgDJJHcm"/>
	<guideline x="431" y="0" angle="75.96" identifier="FAZwUfYOHb"/>
	<guideline x="481" y="0" angle="75.96" identifier="pDWm5ChrgA"/>
	<guideline x="531" y="0" angle="75.96" identifier="15LDfyLL5x"/>
	<guideline x="-69" y="-250" angle="0" identifier="55hLc2lCXh"/>
	<guideline x="-69" y="-200" angle="0" identifier="MsBiYyEVuZ"/>
	<guideline x="-69" y="-150" angle="0" identifier="9LRvls3FKE"/>
	<guideline x="-69" y="-100" angle="0" identifier="qcSG3PbfBr"/>
	<guideline x="-69" y="-50" angle="0" identifier="20lFF2EgrG"/>
	<guideline x="-69" y="0" angle="0" identifier="QJfGLd0dox"/>
	<guideline x="-69" y="50" angle="0" identifier="lsRPjHj0mW"/>
	<guideline x="-69" y="100" angle="0" identifier="AewSOgYKmS"/>
	<guideline x="-69" y="150" angle="0" identifier="4hfc9X1bzS"/>
	<guideline x="-69" y="200" angle="0" identifier="2amyJ5030j"/>
	<guideline x="-69" y="250" angle="0" identifier="5TO7dlq7a8"/>
	<guideline x="-69" y="300" angle="0" identifier="Z4vprRuRI2"/>
	<guideline x="-69" y="350" angle="0" identifier="wyTxyB6iqE"/>
	<guideline x="-69" y="400" angle="0" identifier="Kk5U9zjwEJ"/>
	<guideline x="-69" y="450" angle="0" identifier="gPsAAAwVky"/>
	<guideline x="-69" y="500" angle="0" identifier="uRlr6QeQ7u"/>
	<guideline x="-69" y="550" angle="0" identifier="wg1kzhyrra"/>
	<guideline x="-69" y="600" angle="0" identifier="1VszHgOoo3"/>
	<guideline x="-69" y="650" angle="0" identifier="TRcx366Oji"/>
	<guideline x="-69" y="700" angle="0" identifier="uciV1NuwV1"/>
</glyph>
<glyph name="U" format="2">
	<unicode hex="0055"/>
	<advance width="600"/>
	<outline>
		<contour>
			<point x="495" y="0" type="curve"/>
			<point x="503" y="32"/>
			<point x="513" y="70"/>
			<point x="523" y="110" type="curve" smooth="yes"/>
			<point x="571" y="303"/>
			<point x="619" y="496"/>
			<point x="667" y="689" type="curve" smooth="yes"/>
			<point x="669" y="695"/>
			<point x="665" y="700"/>
			<point x="659" y="700" type="curve" smooth="yes"/>
			<point x="587.1879194631" y="700"/>
			<point x="517" y="700"/>
			<point x="445" y="700" type="curve"/>
			<point x="388" y="471"/>
			<point x="330" y="240"/>
			<point x="273" y="11" type="curve" smooth="yes"/>
			<point x="271.209430585" y="5.6282917549"/>
			<point x="274" y="0"/>
			<point x="281" y="0" type="curve" smooth="yes"/>
			<point x="353" y="0"/>
			<point x="423" y="0"/>
		</contour>
		<contour>
			<point x="119" y="-10" type="curve"/>
			<point x="175" y="-10"/>
			<point x="221" y="17"/>
			<point x="269" y="78" type="curve"/>
			<point x="349" y="78" type="line"/>
			<point x="405" y="286" type="line"/>
			<point x="360" y="233"/>
			<point x="310" y="200"/>
			<point x="283" y="200" type="curve"/>
			<point x="258" y="200"/>
			<point x="245" y="212"/>
			<point x="255" y="245" type="curve" smooth="yes"/>
			<point x="290" y="393"/>
			<point x="326" y="541"/>
			<point x="361" y="689" type="curve" smooth="yes"/>
			<point x="362" y="695"/>
			<point x="359" y="700"/>
			<point x="353" y="700" type="curve" smooth="yes"/>
			<point x="282" y="700"/>
			<point x="212" y="700"/>
			<point x="141" y="700" type="curve"/>
			<point x="133" y="667"/>
			<point x="124" y="633"/>
			<point x="116" y="600" type="curve"/>
			<point x="79" y="453"/>
			<point x="43" y="305"/>
			<point x="6" y="158" type="curve"/>
			<point x="-19" y="62"/>
			<point x="23" y="-10"/>
		</contour>
	</outline>
	<anchor name="top" x="409.7995302052" y="711"/>
	<anchor name="ogonek" x="495" y="-1"/>
	<anchor name="bottom" x="231.7499303373" y="-1"/>
	<anchor name="ring" x="409.7995302052" y="711"/>
	<guideline x="341" y="200" angle="0" identifier="Iq9CtPyaFU"/>
</glyph>
<glyph name="X" format="2">
	<unicode hex="0058"/>
	<advance width="600"/>
	<outline>
		<contour>
			<point x="317" y="0" type="curve" smooth="yes"/>
			<point x="393" y="0"/>
			<point x="443.3684210526" y="0"/>
			<point x="520" y="0" type="curve"/>
			<point x="491" y="128"/>
			<point x="462" y="257"/>
			<point x="433" y="385" type="curve"/>
			<point x="365" y="446" type="line"/>
			<point x="353.074040117" y="527.4940592004"/>
			<point x="341.1180378724" y="613.2524268079"/>
			<point x="329" y="690" type="curve"/>
			<point x="328" y="697"/>
			<point x="321" y="700"/>
			<point x="312" y="700" type="curve"/>
			<point x="246.6666666667" y="700"/>
			<point x="181.3333333333" y="700"/>
			<point x="116" y="700" type="curve"/>
			<point x="145" y="573"/>
			<point x="173" y="446"/>
			<point x="202" y="319" type="curve"/>
			<point x="267" y="254" type="line"/>
			<point x="278" y="173"/>
			<point x="290" y="91"/>
			<point x="301" y="10" type="curve"/>
			<point x="303" y="2"/>
			<point x="309" y="0"/>
		</contour>
		<contour>
			<point x="685" y="700" type="curve"/>
			<point x="609.3009708738" y="700"/>
			<point x="534.6990291262" y="700"/>
			<point x="459" y="700" type="curve"/>
			<point x="394" y="551"/>
			<point x="396" y="559"/>
			<point x="379" y="473" type="curve"/>
			<point x="331" y="473" type="line"/>
			<point x="394" y="305" type="line"/>
			<point x="492" y="430"/>
			<point x="591" y="556"/>
			<point x="689" y="681" type="curve"/>
			<point x="698.3852900965" y="692.2623481158"/>
			<point x="695" y="700"/>
		</contour>
		<contour>
			<point x="-52" y="0" type="curve"/>
			<point x="28.6968325792" y="0"/>
			<point x="108.3031674208" y="0"/>
			<point x="189" y="0" type="curve"/>
			<point x="237" y="116"/>
			<point x="233" y="104"/>
			<point x="254" y="220" type="curve"/>
			<point x="308" y="220" type="line"/>
			<point x="239" y="395" type="line"/>
			<point x="141" y="270"/>
			<point x="42" y="144"/>
			<point x="-56" y="19" type="curve"/>
			<point x="-63.2360679775" y="10.316718427"/>
			<point x="-64" y="0"/>
		</contour>
	</outline>
</glyph>
<glyph name="Z" format="2">
	<unicode hex="005A"/>
	<advance width="600"/>
	<outline>
		<contour>
			<point x="500" y="0" type="line"/>
			<point x="518" y="71"/>
			<point x="533" y="133"/>
			<point x="551" y="204" type="curve"/>
			<point x="553" y="211"/>
			<point x="548" y="215"/>
			<point x="543" y="215" type="curve"/>
			<point x="463" y="215" type="line"/>
			<point x="345" y="215"/>
			<point x="301" y="210"/>
			<point x="215" y="194" type="curve"/>
			<point x="240" y="159" type="line"/>
			<point x="264" y="255" type="line"/>
			<point x="203" y="191" type="line"/>
			<point x="333" y="264"/>
			<point x="342" y="269"/>
			<point x="428" y="334" type="curve" smooth="yes"/>
			<point x="494" y="384"/>
			<point x="545" y="424"/>
			<point x="614" y="477" type="curve"/>
			<point x="668" y="688" type="line" smooth="yes"/>
			<point x="670" y="695"/>
			<point x="665" y="700"/>
			<point x="659" y="700" type="curve"/>
			<point x="132" y="700" type="line"/>
			<point x="106" y="597"/>
			<point x="153" y="500"/>
			<point x="269" y="500" type="curve" smooth="yes"/>
			<point x="291" y="500" type="line"/>
			<point x="338" y="500"/>
			<point x="368" y="503"/>
			<point x="435" y="514" type="curve"/>
			<point x="417" y="534" type="line"/>
			<point x="396" y="449" type="line"/>
			<point x="450" y="513" type="line"/>
			<point x="305" y="436"/>
			<point x="297" y="432"/>
			<point x="221" y="373" type="curve" smooth="yes"/>
			<point x="151" y="318"/>
			<point x="101" y="281"/>
			<point x="23" y="223" type="curve"/>
			<point x="-30" y="11" type="line" smooth="yes"/>
			<point x="-31" y="5"/>
			<point x="-28" y="0"/>
			<point x="-22" y="0" type="curve" smooth="yes"/>
		</contour>
		<contour>
			<point x="261" y="455" type="curve"/>
			<point x="265" y="471"/>
			<point x="269" y="484"/>
			<point x="273" y="501" type="curve"/>
			<point x="305" y="631"/>
			<point x="256" y="700"/>
			<point x="132" y="700" type="curve"/>
			<point x="101" y="577"/>
			<point x="94" y="550"/>
			<point x="73" y="466" type="curve" smooth="yes"/>
			<point x="71" y="460"/>
			<point x="75" y="455"/>
			<point x="81" y="455" type="curve" smooth="yes"/>
			<point x="141" y="455"/>
			<point x="201" y="455"/>
		</contour>
	</outline>
	<anchor name="top" x="410" y="711"/>
	<anchor name="bottom" x="243" y="0"/>
	<guideline x="-69" y="0" angle="75.96" identifier="CE9yUGY3Ni"/>
	<guideline x="-19" y="0" angle="75.96" identifier="jFk4ef4cHe"/>
	<guideline x="31" y="0" angle="75.96" identifier="C4VF9dfqJN"/>
	<guideline x="81" y="0" angle="75.96" identifier="xXQyZ7kPna"/>
	<guideline x="131" y="0" angle="75.96" identifier="vtTVykBPt8"/>
	<guideline x="181" y="0" angle="75.96" identifier="LUoofiP2D2"/>
	<guideline x="231" y="0" angle="75.96" identifier="f4IYTF1txj"/>
	<guideline x="281" y="0" angle="75.96" identifier="13M4rgA6AY"/>
	<guideline x="331" y="0" angle="75.96" identifier="UKbzPP6TFV"/>
	<guideline x="381" y="0" angle="75.96" identifier="lFRlFRhjg2"/>
	<guideline x="431" y="0" angle="75.96" identifier="gUvSZFemUC"/>
	<guideline x="481" y="0" angle="75.96" identifier="0eRJPhjGoa"/>
	<guideline x="531" y="0" angle="75.96" identifier="QeCTpUJBZW"/>
	<guideline x="-69" y="-250" angle="0" identifier="DAKhF4GSXM"/>
	<guideline x="-69" y="-200" angle="0" identifier="WtXDCNn8MV"/>
	<guideline x="-69" y="-150" angle="0" identifier="jzKfa2NNJA"/>
	<guideline x="-69" y="-100" angle="0" identifier="AXr6AVrY6k"/>
	<guideline x="-69" y="-50" angle="0" identifier="aUN3Dk7eR5"/>
	<guideline x="-69" y="0" angle="0" identifier="9kwN4G9ro0"/>
	<guideline x="-69" y="50" angle="0" identifier="8PjUaOl3PJ"/>
	<guideline x="-69" y="100" angle="0" identifier="HI1AiJy9KF"/>
	<guideline x="-69" y="150" angle="0" identifier="BPbevZt81B"/>
	<guideline x="-69" y="200" angle="0" identifier="v4gfpI8xwd"/>
	<guideline x="-69" y="250" angle="0" identifier="muf47twAwJ"/>
	<guideline x="-69" y="300" angle="0" identifier="6yKd5JC8iV"/>
	<guideline x="-69" y="350" angle="0" identifier="foqOGjbRmd"/>
	<guideline x="-69" y="400" angle="0" identifier="JylRULCKxg"/>
	<guideline x="-69" y="450" angle="0" identifier="D62ECW2nwV"/>
	<guideline x="-69" y="500" angle="0" identifier="IOuquEfrqi"/>
	<guideline x="-69" y="550" angle="0" identifier="lk10UodddX"/>
	<guideline x="-69" y="600" angle="0" identifier="s7tbHzzJVK"/>
	<guideline x="-69" y="650" angle="0" identifier="WobGB5b4GG"/>
	<guideline x="-69" y="700" angle="0" identifier="hMOLYbVq5d"/>
</glyph>
<glyph name="bracketleft" format="2">
	<unicode hex="005B"/>
	<advance width="600"/>
	<outline>
		<contour>
			<point x="373" y="-111" type="line"/>
			<point x="389" y="-45"/>
			<point x="405" y="16"/>
			<point x="421" y="82" type="curve" smooth="yes"/>
			<point x="423" y="88"/>
			<point x="419" y="93"/>
			<point x="413" y="93" type="curve" smooth="yes"/>
			<point x="324" y="93" type="line"/>
			<point x="436" y="540" type="line"/>
			<point x="446" y="540"/>
			<point x="467" y="540"/>
			<point x="477" y="540" type="curve" smooth="yes"/>
			<point x="536" y="540" type="line"/>
			<point x="552" y="606"/>
			<point x="568" y="667"/>
			<point x="584" y="733" type="curve" smooth="yes"/>
			<point x="586" y="740"/>
			<point x="583" y="744"/>
			<point x="576" y="744" type="curve" smooth="yes"/>
			<point x="324" y="744" type="line" smooth="yes"/>
			<point x="307" y="744"/>
			<point x="289" y="744"/>
			<point x="272" y="744" type="curve"/>
			<point x="261" y="700"/>
			<point x="250" y="656"/>
			<point x="239" y="612" type="curve" smooth="yes"/>
			<point x="61" y="-100" type="line" smooth="yes"/>
			<point x="59" y="-107"/>
			<point x="62" y="-111"/>
			<point x="69" y="-111" type="curve" smooth="yes"/>
		</contour>
	</outline>
</glyph>
<glyph name="a" format="2">
	<unicode hex="0061"/>
	<advance width="600"/>
	<outline>
		<contour>
			<point x="553" y="337" type="curve" smooth="yes"/>
			<point x="588" y="471"/>
			<point x="512" y="565"/>
			<point x="321" y="565" type="curve" smooth="yes"/>
			<point x="216" y="565"/>
			<point x="108" y="548"/>
			<point x="92" y="537" type="curve" smooth="yes"/>
			<point x="89" y="535"/>
			<point x="87" y="532"/>
			<point x="86" y="527" type="curve" smooth="yes"/>
			<point x="73" y="474"/>
			<point x="60" y="423"/>
			<point x="47" y="370" type="curve"/>
			<point x="67" y="370" type="line"/>
			<point x="130" y="383"/>
			<point x="184" y="389"/>
			<point x="262" y="389" type="curve"/>
			<point x="327" y="389"/>
			<point x="346" y="369"/>
			<point x="336" y="333" type="curve" smooth="yes"/>
			<point x="330" y="313"/>
			<point x="326" y="294"/>
			<point x="321" y="274" type="curve" smooth="yes"/>
			<point x="309" y="229"/>
			<point x="299" y="185"/>
			<point x="288" y="142" type="curve" smooth="yes"/>
			<point x="266" y="53"/>
			<point x="355" y="0"/>
			<point x="449" y="0" type="curve" smooth="yes"/>
			<point x="470" y="0"/>
			<point x="505" y="0"/>
			<point x="512" y="0" type="curve" smooth="yes"/>
			<point x="518" y="0"/>
			<point x="521" y="4"/>
			<point x="523" y="11" type="curve" smooth="yes"/>
			<point x="538" y="70"/>
			<point x="553" y="130"/>
			<point x="568" y="189" type="curve"/>
			<point x="533" y="189" type="line"/>
			<point x="532" y="189"/>
			<point x="531" y="189"/>
			<point x="531" y="189" type="curve" smooth="yes"/>
			<point x="530" y="189"/>
			<point x="529" y="189"/>
			<point x="528" y="189" type="curve" smooth="yes"/>
			<point x="518" y="189"/>
			<point x="517" y="196"/>
			<point x="519" y="205" type="curve" smooth="yes"/>
			<point x="532" y="254"/>
			<point x="540" y="288"/>
		</contour>
		<contour>
			<point x="193" y="171" type="curve" smooth="yes"/>
			<point x="196" y="184" type="line" smooth="yes"/>
			<point x="198" y="194"/>
			<point x="202" y="201"/>
			<point x="207" y="206" type="curve" smooth="yes"/>
			<point x="215" y="214"/>
			<point x="225" y="217"/>
			<point x="238" y="217" type="curve" smooth="yes"/>
			<point x="280" y="217"/>
			<point x="324" y="217"/>
			<point x="366" y="217" type="curve"/>
			<point x="375" y="255"/>
			<point x="392" y="316"/>
			<point x="364" y="316" type="curve" smooth="yes"/>
			<point x="327" y="316"/>
			<point x="269" y="316"/>
			<point x="195" y="316" type="curve" smooth="yes"/>
			<point x="85" y="316"/>
			<point x="14" y="269"/>
			<point x="-9" y="180" type="curve" smooth="yes"/>
			<point x="-16" y="153" type="line" smooth="yes"/>
			<point x="-39" y="63"/>
			<point x="22" y="-10"/>
			<point x="110" y="-10" type="curve" smooth="yes"/>
			<point x="187" y="-10"/>
			<point x="234" y="20"/>
			<point x="280" y="96" type="curve" smooth="yes"/>
			<point x="304" y="134"/>
			<point x="311" y="159"/>
			<point x="313" y="174" type="curve"/>
			<point x="281" y="152"/>
			<point x="251" y="140"/>
			<point x="216" y="140" type="curve" smooth="yes"/>
			<point x="195" y="140"/>
			<point x="187" y="148"/>
		</contour>
		<contour>
			<point x="335" y="179" type="line"/>
			<point x="262" y="82" type="line"/>
			<point x="300" y="82" type="line"/>
			<point x="349" y="176" type="line"/>
		</contour>
	</outline>
	<anchor name="top" x="310" y="561"/>
	<anchor name="bottom" x="310" y="-1"/>
	<anchor name="ogonek" x="591" y="6"/>
	<guideline x="-69" y="0" angle="75.96" identifier="i1HiXlHn6f"/>
	<guideline x="-19" y="0" angle="75.96" identifier="RMuRc7Jz2l"/>
	<guideline x="31" y="0" angle="75.96" identifier="9Zf3p8pujn"/>
	<guideline x="81" y="0" angle="75.96" identifier="8UNqvIPZgM"/>
	<guideline x="131" y="0" angle="75.96" identifier="y5hmxCIAeg"/>
	<guideline x="181" y="0" angle="75.96" identifier="XuukrjWLoO"/>
	<guideline x="231" y="0" angle="75.96" identifier="njCF7jlQnP"/>
	<guideline x="281" y="0" angle="75.96" identifier="7b5doW5zw1"/>
	<guideline x="331" y="0" angle="75.96" identifier="cMpWlK4B0x"/>
	<guideline x="381" y="0" angle="75.96" identifier="XYSMxJFzvR"/>
	<guideline x="431" y="0" angle="75.96" identifier="3V2N2wqCjz"/>
	<guideline x="481" y="0" angle="75.96" identifier="rcZ4AvwUVb"/>
	<guideline x="531" y="0" angle="75.96" identifier="Rhp7p94Djv"/>
	<guideline x="-69" y="-250" angle="0" identifier="ITzFJIEoKe"/>
	<guideline x="-69" y="-200" angle="0" identifier="Ld4u2BPKhd"/>
	<guideline x="-69" y="-150" angle="0" identifier="DJq1wyh7Zz"/>
	<guideline x="-69" y="-100" angle="0" identifier="LO848rEMsz"/>
	<guideline x="-69" y="-50" angle="0" identifier="VV84jpekyr"/>
	<guideline x="-69" y="0" angle="0" identifier="546Kb99Dwc"/>
	<guideline x="-69" y="50" angle="0" identifier="ZNduktLuqV"/>
	<guideline x="-69" y="100" angle="0" identifier="GmZZ6KXYjm"/>
	<guideline x="-69" y="150" angle="0" identifier="yNh9w4BYEr"/>
	<guideline x="-69" y="200" angle="0" identifier="1quPQquw1d"/>
	<guideline x="-69" y="250" angle="0" identifier="rB80ttkwg0"/>
	<guideline x="-69" y="300" angle="0" identifier="g8aGNGoED2"/>
	<guideline x="-69" y="350" angle="0" identifier="zCqYnDsI2d"/>
	<guideline x="-69" y="400" angle="0" identifier="Uez6Z77hrs"/>
	<guideline x="-69" y="450" angle="0" identifier="YRNmJzQZEn"/>
	<guideline x="-69" y="500" angle="0" identifier="MzMThFPEpA"/>
	<guideline x="-69" y="550" angle="0" identifier="qxP2tppv0c"/>
	<guideline x="-69" y="600" angle="0" identifier="KuWafET6NO"/>
	<guideline x="-69" y="650" angle="0" identifier="6YK1DxNd3J"/>
	<guideline x="-69" y="700" angle="0" identifier="wkWE4qLZJP"/>
</glyph>
<glyph name="d" format="2">
	<unicode hex="0064"/>
	<advance width="600"/>
	<outline>
		<contour>
			<point x="256" y="560" type="curve" smooth="yes"/>
			<point x="142" y="560"/>
			<point x="75" y="474"/>
			<point x="47" y="360" type="curve" smooth="yes"/>
			<point x="7" y="199" type="line" smooth="yes"/>
			<point x="-25" y="71"/>
			<point x="34" y="-10"/>
			<point x="117" y="-10" type="curve" smooth="yes"/>
			<point x="187" y="-10"/>
			<point x="221" y="20"/>
			<point x="269" y="87" type="curve"/>
			<point x="304" y="87" type="line"/>
			<point x="334" y="201" type="line"/>
			<point x="320" y="192"/>
			<point x="304" y="184"/>
			<point x="270" y="184" type="curve" smooth="yes"/>
			<point x="253" y="184"/>
			<point x="243" y="187"/>
			<point x="238" y="194" type="curve" smooth="yes"/>
			<point x="233" y="200"/>
			<point x="233" y="210"/>
			<point x="236" y="223" type="curve" smooth="yes"/>
			<point x="262" y="326" type="line" smooth="yes"/>
			<point x="272" y="365"/>
			<point x="291" y="380"/>
			<point x="320" y="380" type="curve" smooth="yes"/>
			<point x="340" y="380"/>
			<point x="359" y="377"/>
			<point x="370" y="368" type="curve"/>
			<point x="395" y="475" type="line"/>
			<point x="366" y="475" type="line"/>
			<point x="346" y="521"/>
			<point x="313" y="560"/>
		</contour>
		<contour>
			<point x="669" y="750" type="curve" smooth="yes"/>
			<point x="621" y="750"/>
			<point x="503" y="750"/>
			<point x="455" y="750" type="curve"/>
			<point x="448" y="721"/>
			<point x="440" y="688"/>
			<point x="430" y="649" type="curve" smooth="yes"/>
			<point x="377" y="437"/>
			<point x="323" y="223"/>
			<point x="270" y="11" type="curve" smooth="yes"/>
			<point x="268" y="4"/>
			<point x="271" y="0"/>
			<point x="278" y="0" type="curve" smooth="yes"/>
			<point x="326" y="0"/>
			<point x="444" y="0"/>
			<point x="492" y="0" type="curve"/>
			<point x="501" y="34"/>
			<point x="510" y="69"/>
			<point x="518" y="103" type="curve" smooth="yes"/>
			<point x="571" y="315"/>
			<point x="624" y="527"/>
			<point x="677" y="739" type="curve" smooth="yes"/>
			<point x="679" y="746"/>
			<point x="676" y="750"/>
		</contour>
	</outline>
	<anchor name="caronslovak" x="650" y="711"/>
	<anchor name="bottom" x="243" y="0"/>
	<guideline x="-190" y="466" angle="0" identifier="ugwo23eTZZ"/>
	<guideline x="-30" y="77" angle="0" identifier="nZi687kMAu"/>
</glyph>
<glyph name="g" format="2">
	<unicode hex="0067"/>
	<advance width="600"/>
	<outline>
		<contour>
			<point x="7" y="98" type="curve"/>
			<point x="-8" y="33"/>
			<point x="46" y="0"/>
			<point x="153" y="0" type="curve"/>
			<point x="292" y="0" type="line" smooth="yes"/>
			<point x="299" y="0"/>
			<point x="302" y="-3"/>
			<point x="300" y="-11" type="curve" smooth="yes"/>
			<point x="288" y="-59" type="line" smooth="yes"/>
			<point x="287" y="-63"/>
			<point x="285" y="-66"/>
			<point x="284" y="-67" type="curve" smooth="yes"/>
			<point x="282" y="-69"/>
			<point x="279" y="-70"/>
			<point x="275" y="-70" type="curve"/>
			<point x="130" y="-70" type="line"/>
			<point x="122" y="-70"/>
			<point x="120" y="-67"/>
			<point x="122" y="-59" type="curve" smooth="yes"/>
			<point x="126" y="-44" type="line" smooth="yes"/>
			<point x="130" y="-26"/>
			<point x="134" y="-13"/>
			<point x="138" y="3" type="curve"/>
			<point x="46" y="36" type="line"/>
			<point x="37" y="0" type="line"/>
			<point x="-23" y="-8"/>
			<point x="-63" y="-40"/>
			<point x="-76" y="-91" type="curve" smooth="yes"/>
			<point x="-79" y="-103" type="line" smooth="yes"/>
			<point x="-92" y="-154"/>
			<point x="-51" y="-200"/>
			<point x="24" y="-200" type="curve" smooth="yes"/>
			<point x="283" y="-200" type="line" smooth="yes"/>
			<point x="418" y="-200"/>
			<point x="478" y="-137"/>
			<point x="503" y="-40" type="curve" smooth="yes"/>
			<point x="513" y="2" type="line" smooth="yes"/>
			<point x="536" y="91"/>
			<point x="465" y="142"/>
			<point x="368" y="142" type="curve" smooth="yes"/>
			<point x="260" y="142" type="line" smooth="yes"/>
			<point x="233" y="142"/>
			<point x="228" y="148"/>
			<point x="233" y="167" type="curve" smooth="yes"/>
			<point x="235" y="175"/>
			<point x="239" y="190"/>
			<point x="241" y="199" type="curve"/>
			<point x="159" y="223" type="line"/>
			<point x="151" y="189" type="line"/>
			<point x="65" y="179"/>
			<point x="20" y="148"/>
		</contour>
		<contour>
			<point x="396" y="419" type="line"/>
			<point x="393" y="408"/>
			<point x="390" y="397"/>
			<point x="388" y="387" type="curve"/>
			<point x="385" y="374" type="line"/>
			<point x="379" y="351"/>
			<point x="362" y="337"/>
			<point x="320" y="337" type="curve"/>
			<point x="292" y="337"/>
			<point x="273" y="341"/>
			<point x="265" y="351" type="curve" smooth="yes"/>
			<point x="261" y="356"/>
			<point x="260" y="364"/>
			<point x="262" y="372" type="curve" smooth="yes"/>
			<point x="265" y="382" type="line" smooth="yes"/>
			<point x="271" y="403"/>
			<point x="289" y="415"/>
			<point x="325" y="415" type="curve"/>
			<point x="420" y="415"/>
			<point x="531" y="415"/>
			<point x="613" y="415" type="curve"/>
			<point x="620" y="415"/>
			<point x="624" y="420"/>
			<point x="626" y="426" type="curve" smooth="yes"/>
			<point x="637" y="470"/>
			<point x="648" y="515"/>
			<point x="659" y="560" type="curve"/>
			<point x="563" y="560"/>
			<point x="467" y="560"/>
			<point x="351" y="560" type="curve"/>
			<point x="191" y="560"/>
			<point x="84" y="500"/>
			<point x="57" y="390" type="curve" smooth="yes"/>
			<point x="50" y="363" type="line" smooth="yes"/>
			<point x="25" y="265"/>
			<point x="115" y="188"/>
			<point x="296" y="188" type="curve"/>
			<point x="452" y="188"/>
			<point x="535" y="224"/>
			<point x="554" y="293" type="curve" smooth="yes"/>
			<point x="557" y="304" type="line" smooth="yes"/>
			<point x="573" y="361"/>
			<point x="538" y="387"/>
			<point x="484" y="395" type="curve"/>
			<point x="490" y="419" type="line"/>
		</contour>
	</outline>
	<anchor name="top" x="304" y="561"/>
</glyph>
<glyph name="i" format="2">
	<unicode hex="0069"/>
	<advance width="600"/>
	<outline>
		<contour>
			<point x="179" y="176" type="line"/>
			<point x="406" y="176" type="line"/>
			<point x="438" y="307"/>
			<point x="464" y="408"/>
			<point x="497" y="539" type="curve"/>
			<point x="499" y="546"/>
			<point x="496" y="550"/>
			<point x="489" y="550" type="curve" smooth="yes"/>
			<point x="360" y="550"/>
			<point x="230" y="550"/>
			<point x="101" y="550" type="curve"/>
			<point x="85" y="486"/>
			<point x="69" y="423"/>
			<point x="53" y="359" type="curve"/>
			<point x="51" y="352"/>
			<point x="54" y="348"/>
			<point x="61" y="348" type="curve" smooth="yes"/>
			<point x="109" y="348"/>
			<point x="154" y="348"/>
			<point x="202" y="348" type="curve" smooth="yes"/>
			<point x="222" y="348" type="line"/>
			<point x="215" y="318"/>
			<point x="207" y="290"/>
			<point x="200" y="261" type="curve" smooth="yes"/>
			<point x="196" y="247"/>
			<point x="193" y="232"/>
			<point x="189" y="217" type="curve" smooth="yes"/>
		</contour>
		<contour>
			<point x="3" y="197" type="line"/>
			<point x="-13" y="135"/>
			<point x="-28" y="73"/>
			<point x="-44" y="11" type="curve"/>
			<point x="-46" y="4"/>
			<point x="-43" y="0"/>
			<point x="-36" y="0" type="curve"/>
			<point x="513" y="0" type="line"/>
			<point x="529" y="62"/>
			<point x="544" y="124"/>
			<point x="560" y="186" type="curve"/>
			<point x="562" y="193"/>
			<point x="559" y="197"/>
			<point x="552" y="197" type="curve"/>
		</contour>
		<contour>
			<point x="516" y="615" type="curve"/>
			<point x="559" y="789" type="line" smooth="yes"/>
			<point x="561" y="796"/>
			<point x="558" y="800"/>
			<point x="551" y="800" type="curve" smooth="yes"/>
			<point x="495" y="800"/>
			<point x="368" y="800"/>
			<point x="312" y="800" type="curve"/>
			<point x="269" y="626" type="line" smooth="yes"/>
			<point x="267" y="619"/>
			<point x="270" y="615"/>
			<point x="277" y="615" type="curve" smooth="yes"/>
			<point x="333" y="615"/>
			<point x="460" y="615"/>
		</contour>
	</outline>
	<anchor name="bottom" x="303" y="-1"/>
	<anchor name="ogonek" x="584" y="0"/>
</glyph>
<glyph name="j" format="2">
	<unicode hex="006A"/>
	<advance width="600"/>
	<outline>
		<contour>
			<point x="628" y="615" type="curve"/>
			<point x="671" y="789" type="line" smooth="yes"/>
			<point x="673" y="796"/>
			<point x="670" y="800"/>
			<point x="663" y="800" type="curve" smooth="yes"/>
			<point x="607" y="800"/>
			<point x="480" y="800"/>
			<point x="424" y="800" type="curve"/>
			<point x="381" y="626" type="line" smooth="yes"/>
			<point x="379" y="619"/>
			<point x="382" y="615"/>
			<point x="389" y="615" type="curve" smooth="yes"/>
			<point x="445" y="615"/>
			<point x="572" y="615"/>
		</contour>
		<contour>
			<point x="586" y="550" type="curve" smooth="yes"/>
			<point x="431" y="550"/>
			<point x="277" y="550"/>
			<point x="122" y="550" type="curve"/>
			<point x="105" y="482"/>
			<point x="88" y="414"/>
			<point x="71" y="346" type="curve" smooth="yes"/>
			<point x="69" y="339"/>
			<point x="72" y="335"/>
			<point x="79" y="335" type="curve" smooth="yes"/>
			<point x="151" y="335"/>
			<point x="222" y="335"/>
			<point x="294" y="335" type="curve"/>
			<point x="313" y="335" type="line"/>
			<point x="292" y="253"/>
			<point x="272" y="171"/>
			<point x="251" y="89" type="curve"/>
			<point x="246" y="68"/>
			<point x="239" y="53"/>
			<point x="227" y="41" type="curve" smooth="yes"/>
			<point x="207" y="21"/>
			<point x="178" y="15"/>
			<point x="134" y="15" type="curve"/>
			<point x="74" y="15"/>
			<point x="33" y="25"/>
			<point x="-15" y="45" type="curve"/>
			<point x="-35" y="45" type="line"/>
			<point x="-52" y="-24"/>
			<point x="-65" y="-76"/>
			<point x="-82" y="-143" type="curve"/>
			<point x="-83" y="-147"/>
			<point x="-84" y="-151"/>
			<point x="-80" y="-155" type="curve" smooth="yes"/>
			<point x="-66" y="-169"/>
			<point x="8" y="-200"/>
			<point x="119" y="-200" type="curve"/>
			<point x="326" y="-200"/>
			<point x="428" y="-125"/>
			<point x="477" y="73" type="curve" smooth="yes"/>
			<point x="515" y="225"/>
			<point x="555" y="383"/>
			<point x="594" y="539" type="curve" smooth="yes"/>
			<point x="596" y="546"/>
			<point x="593" y="550"/>
		</contour>
	</outline>
	<guideline x="560" y="-200" angle="0" identifier="82wXDgth7G"/>
</glyph>
<glyph name="l" format="2">
	<unicode hex="006C"/>
	<advance width="600"/>
	<outline>
		<contour>
			<point x="150" y="750" type="curve"/>
			<point x="133" y="682"/>
			<point x="116" y="614"/>
			<point x="99" y="546" type="curve" smooth="yes"/>
			<point x="97" y="539"/>
			<point x="100" y="535"/>
			<point x="107" y="535" type="curve" smooth="yes"/>
			<point x="160" y="535"/>
			<point x="212" y="535"/>
			<point x="265" y="535" type="curve"/>
			<point x="235" y="415"/>
			<point x="205" y="296"/>
			<point x="175" y="176" type="curve" smooth="yes"/>
			<point x="170" y="156"/>
			<point x="263" y="147"/>
			<point x="393" y="147" type="curve"/>
			<point x="442" y="344"/>
			<point x="492" y="542"/>
			<point x="541" y="739" type="curve"/>
			<point x="543" y="746"/>
			<point x="540" y="750"/>
			<point x="533" y="750" type="curve" smooth="yes"/>
			<point x="405" y="750"/>
			<point x="278" y="750"/>
		</contour>
		<contour>
			<point x="4" y="207" type="line"/>
			<point x="-12" y="142"/>
			<point x="-29" y="76"/>
			<point x="-45" y="11" type="curve"/>
			<point x="-47" y="4"/>
			<point x="-44" y="0"/>
			<point x="-37" y="0" type="curve"/>
			<point x="512" y="0" type="line"/>
			<point x="528" y="65"/>
			<point x="545" y="131"/>
			<point x="561" y="196" type="curve"/>
			<point x="563" y="203"/>
			<point x="560" y="207"/>
			<point x="553" y="207" type="curve"/>
		</contour>
		<contour>
			<point x="282" y="529" type="line"/>
			<point x="313" y="579" type="line"/>
			<point x="299" y="582" type="line"/>
			<point x="262" y="545" type="line"/>
		</contour>
		<contour>
			<point x="176" y="193" type="line"/>
			<point x="222" y="174" type="line"/>
			<point x="228" y="189" type="line"/>
			<point x="195" y="220" type="line"/>
		</contour>
	</outline>
	<anchor name="top" x="300" y="730"/>
	<anchor name="bottom" x="300" y="-1"/>
	<anchor name="dot" x="450" y="400"/>
	<anchor name="caronslovak" x="530" y="671"/>
	<guideline x="-69" y="0" angle="75.96" identifier="4EyAGOSUFM"/>
	<guideline x="-19" y="0" angle="75.96" identifier="bM6yuuUKvZ"/>
	<guideline x="31" y="0" angle="75.96" identifier="B2zZtSzfcD"/>
	<guideline x="81" y="0" angle="75.96" identifier="OegeG33bOj"/>
	<guideline x="131" y="0" angle="75.96" identifier="m1WjfJGPMH"/>
	<guideline x="181" y="0" angle="75.96" identifier="3X7wdenlHp"/>
	<guideline x="231" y="0" angle="75.96" identifier="n9F7qffvr0"/>
	<guideline x="281" y="0" angle="75.96" identifier="3Qlva09dg3"/>
	<guideline x="331" y="0" angle="75.96" identifier="lJISARbG5z"/>
	<guideline x="381" y="0" angle="75.96" identifier="8Ng8yrzx33"/>
	<guideline x="431" y="0" angle="75.96" identifier="GZx54jvyw8"/>
	<guideline x="481" y="0" angle="75.96" identifier="ePKu7HxmHf"/>
	<guideline x="531" y="0" angle="75.96" identifier="mYZ1QO7m6p"/>
	<guideline x="-69" y="-250" angle="0" identifier="h7lJ3xTua1"/>
	<guideline x="-69" y="-200" angle="0" identifier="uhtewnOjs9"/>
	<guideline x="-69" y="-150" angle="0" identifier="OxY7QGqxx5"/>
	<guideline x="-69" y="-100" angle="0" identifier="bAVFwYZIxs"/>
	<guideline x="-69" y="-50" angle="0" identifier="Un8I4E3Aj1"/>
	<guideline x="-69" y="0" angle="0" identifier="uudPEtSHIJ"/>
	<guideline x="-69" y="50" angle="0" identifier="l03QEHKwmb"/>
	<guideline x="-69" y="100" angle="0" identifier="G1W44L5U8O"/>
	<guideline x="-69" y="150" angle="0" identifier="DwGnzn62nn"/>
	<guideline x="-69" y="200" angle="0" identifier="4OYSLZ7rh9"/>
	<guideline x="-69" y="250" angle="0" identifier="E543scgwFY"/>
	<guideline x="-69" y="300" angle="0" identifier="MukZgPxdQc"/>
	<guideline x="-69" y="350" angle="0" identifier="4uPa0wzvka"/>
	<guideline x="-69" y="400" angle="0" identifier="ortFxzB3pl"/>
	<guideline x="-69" y="450" angle="0" identifier="y8NgBiNxBF"/>
	<guideline x="-69" y="500" angle="0" identifier="Uo5FnIkPGb"/>
	<guideline x="-69" y="550" angle="0" identifier="N0zJpTDznR"/>
	<guideline x="-69" y="600" angle="0" identifier="IV4SG4IHuZ"/>
	<guideline x="-69" y="650" angle="0" identifier="LIk4y4xgyG"/>
	<guideline x="-69" y="700" angle="0" identifier="ZQ5GqJfAM2"/>
</glyph>
<glyph name="n" format="2">
	<unicode hex="006E"/>
	<advance width="600"/>
	<outline>
		<contour>
			<point x="498" y="0" type="curve"/>
			<point x="506" y="33"/>
			<point x="514" y="65"/>
			<point x="523" y="98" type="curve" smooth="yes"/>
			<point x="547" y="196"/>
			<point x="571" y="294"/>
			<point x="596" y="392" type="curve" smooth="yes"/>
			<point x="623" y="498"/>
			<point x="579" y="560"/>
			<point x="500" y="560" type="curve" smooth="yes"/>
			<point x="433" y="560"/>
			<point x="372" y="517"/>
			<point x="327" y="465" type="curve"/>
			<point x="265" y="465" type="line"/>
			<point x="250" y="334" type="line"/>
			<point x="292" y="362"/>
			<point x="315" y="370"/>
			<point x="338" y="370" type="curve" smooth="yes"/>
			<point x="356" y="370"/>
			<point x="361" y="360"/>
			<point x="356" y="342" type="curve" smooth="yes"/>
			<point x="329" y="232"/>
			<point x="305" y="120"/>
			<point x="274" y="11" type="curve" smooth="yes"/>
			<point x="272" y="4"/>
			<point x="275" y="0"/>
			<point x="282" y="0" type="curve"/>
			<point x="353" y="0"/>
			<point x="427" y="0"/>
		</contour>
		<contour>
			<point x="191" y="0" type="curve"/>
			<point x="236" y="179"/>
			<point x="281" y="360"/>
			<point x="326" y="539" type="curve" smooth="yes"/>
			<point x="328" y="546"/>
			<point x="325" y="550"/>
			<point x="318" y="550" type="curve" smooth="yes"/>
			<point x="269" y="550"/>
			<point x="160" y="550"/>
			<point x="101" y="550" type="curve"/>
			<point x="94" y="522"/>
			<point x="86" y="488"/>
			<point x="77" y="452" type="curve" smooth="yes"/>
			<point x="40" y="305"/>
			<point x="4" y="158"/>
			<point x="-33" y="11" type="curve" smooth="yes"/>
			<point x="-35" y="4"/>
			<point x="-32" y="0"/>
			<point x="-25" y="0" type="curve" smooth="yes"/>
			<point x="28" y="0"/>
			<point x="137" y="0"/>
		</contour>
	</outline>
	<anchor name="top" x="300" y="561"/>
	<anchor name="bottom" x="300" y="-1"/>
	<anchor name="caronslovak" x="105" y="711"/>
	<guideline x="-69" y="0" angle="75.96" identifier="E4mc2S1bpk"/>
	<guideline x="-19" y="0" angle="75.96" identifier="pkMBFKcFv8"/>
	<guideline x="31" y="0" angle="75.96" identifier="aBP6IFtNHf"/>
	<guideline x="81" y="0" angle="75.96" identifier="RdvaXF89fP"/>
	<guideline x="131" y="0" angle="75.96" identifier="t2XM1yYzq4"/>
	<guideline x="181" y="0" angle="75.96" identifier="YVGqTl5pzd"/>
	<guideline x="231" y="0" angle="75.96" identifier="RYcCSrKKJX"/>
	<guideline x="281" y="0" angle="75.96" identifier="tcb5ef1Kpo"/>
	<guideline x="331" y="0" angle="75.96" identifier="MaJXEXnpJw"/>
	<guideline x="381" y="0" angle="75.96" identifier="7y53Nwr1jV"/>
	<guideline x="431" y="0" angle="75.96" identifier="f4WlET0sop"/>
	<guideline x="481" y="0" angle="75.96" identifier="Yy5nFExiTV"/>
	<guideline x="531" y="0" angle="75.96" identifier="hrQUkoMABt"/>
	<guideline x="-69" y="-250" angle="0" identifier="VZ0XaHuvNW"/>
	<guideline x="-69" y="-200" angle="0" identifier="tRwEK2sAEp"/>
	<guideline x="-69" y="-150" angle="0" identifier="irknaaZ3EN"/>
	<guideline x="-69" y="-100" angle="0" identifier="zx8NiwHPBL"/>
	<guideline x="-69" y="-50" angle="0" identifier="7BUW4jkJld"/>
	<guideline x="-69" y="0" angle="0" identifier="KyO7l4p4x2"/>
	<guideline x="-69" y="50" angle="0" identifier="ypxlossQCp"/>
	<guideline x="-69" y="100" angle="0" identifier="2tPWsxMmD8"/>
	<guideline x="-69" y="150" angle="0" identifier="BPc9n9Lns7"/>
	<guideline x="-69" y="200" angle="0" identifier="dAH4xCVU3K"/>
	<guideline x="-69" y="250" angle="0" identifier="t463KRMoDv"/>
	<guideline x="-69" y="300" angle="0" identifier="mXdqK8gZ9E"/>
	<guideline x="-69" y="350" angle="0" identifier="wRcXhX1nk6"/>
	<guideline x="-69" y="400" angle="0" identifier="COmPblizPH"/>
	<guideline x="-69" y="450" angle="0" identifier="TsxVYiJRMN"/>
	<guideline x="-69" y="500" angle="0" identifier="JASly5llvd"/>
	<guideline x="-69" y="550" angle="0" identifier="nRi57K5yj6"/>
	<guideline x="-69" y="600" angle="0" identifier="ESjqcKzqjB"/>
	<guideline x="-69" y="650" angle="0" identifier="Jkmtp3dL0W"/>
	<guideline x="-69" y="700" angle="0" identifier="YJe4jJ0ZFH"/>
</glyph>
<glyph name="o" format="2">
	<unicode hex="006F"/>
	<advance width="600"/>
	<outline>
		<contour>
			<point x="346" y="570" type="curve"/>
			<point x="194" y="570"/>
			<point x="92" y="497"/>
			<point x="54" y="349" type="curve" smooth="yes"/>
			<point x="26" y="239" type="line"/>
			<point x="-13" y="80"/>
			<point x="68" y="-20"/>
			<point x="250" y="-20" type="curve"/>
			<point x="398" y="-20"/>
			<point x="500" y="53"/>
			<point x="546" y="201" type="curve"/>
			<point x="570" y="311" type="line" smooth="yes"/>
			<point x="605" y="470"/>
			<point x="524" y="570"/>
		</contour>
		<contour>
			<point x="320" y="370" type="curve"/>
			<point x="340" y="370"/>
			<point x="351" y="367"/>
			<point x="357" y="359" type="curve" smooth="yes"/>
			<point x="363" y="351"/>
			<point x="363" y="339"/>
			<point x="358" y="320" type="curve" smooth="yes"/>
			<point x="336" y="230" type="line" smooth="yes"/>
			<point x="327" y="192"/>
			<point x="313" y="180"/>
			<point x="280" y="180" type="curve"/>
			<point x="260" y="180"/>
			<point x="249" y="183"/>
			<point x="243" y="191" type="curve" smooth="yes"/>
			<point x="237" y="199"/>
			<point x="237" y="211"/>
			<point x="242" y="230" type="curve" smooth="yes"/>
			<point x="264" y="320" type="line"/>
			<point x="274" y="358"/>
			<point x="287" y="370"/>
		</contour>
	</outline>
	<anchor name="top" x="352" y="550"/>
	<anchor name="bottom" x="251" y="-1"/>
	<anchor name="ogonek" x="388" y="8"/>
</glyph>
<glyph name="q" format="2">
	<unicode hex="0071"/>
	<advance width="600"/>
	<outline>
		<contour>
			<point x="409" y="550" type="curve"/>
			<point x="399" y="513"/>
			<point x="390" y="477"/>
			<point x="381" y="440" type="curve"/>
			<point x="329" y="231"/>
			<point x="276" y="20"/>
			<point x="224" y="-189" type="curve" smooth="yes"/>
			<point x="222" y="-196"/>
			<point x="225" y="-200"/>
			<point x="232" y="-200" type="curve"/>
			<point x="303" y="-200"/>
			<point x="375" y="-200"/>
			<point x="446" y="-200" type="curve"/>
			<point x="458" y="-150"/>
			<point x="471" y="-99"/>
			<point x="484" y="-49" type="curve"/>
			<point x="533" y="147"/>
			<point x="582" y="343"/>
			<point x="631" y="539" type="curve"/>
			<point x="633" y="546"/>
			<point x="630" y="550"/>
			<point x="623" y="550" type="curve"/>
			<point x="555" y="550"/>
			<point x="477" y="550"/>
		</contour>
		<contour>
			<point x="299" y="87" type="line"/>
			<point x="334" y="196" type="line"/>
			<point x="317" y="188"/>
			<point x="297" y="184"/>
			<point x="274" y="184" type="curve" smooth="yes"/>
			<point x="257" y="184"/>
			<point x="247" y="187"/>
			<point x="242" y="194" type="curve" smooth="yes"/>
			<point x="237" y="200"/>
			<point x="237" y="210"/>
			<point x="240" y="224" type="curve"/>
			<point x="267" y="331" type="line" smooth="yes"/>
			<point x="277" y="372"/>
			<point x="294" y="380"/>
			<point x="323" y="380" type="curve" smooth="yes"/>
			<point x="347" y="380"/>
			<point x="361" y="373"/>
			<point x="370" y="363" type="curve"/>
			<point x="395" y="474" type="line"/>
			<point x="370" y="474" type="line"/>
			<point x="355" y="511"/>
			<point x="323" y="560"/>
			<point x="244" y="560" type="curve"/>
			<point x="157" y="560"/>
			<point x="90" y="516"/>
			<point x="54" y="367" type="curve" smooth="yes"/>
			<point x="12" y="202" type="line" smooth="yes"/>
			<point x="-21" y="68"/>
			<point x="18" y="-10"/>
			<point x="125" y="-10" type="curve"/>
			<point x="204" y="-10"/>
			<point x="243" y="30"/>
			<point x="273" y="87" type="curve"/>
		</contour>
	</outline>
	<guideline x="-4" y="468" angle="0" identifier="LbseNySHUK"/>
	<guideline x="482" y="87" angle="0" identifier="LysbGNL3XU"/>
	<guideline x="464.1186788836" y="217.9906491994" angle="0" identifier="jTKzTFE3Pg"/>
</glyph>
<glyph name="r" format="2">
	<unicode hex="0072"/>
	<advance width="600"/>
	<outline>
		<contour>
			<point x="301" y="424" type="line"/>
			<point x="261" y="264" type="line"/>
			<point x="324" y="301"/>
			<point x="374" y="313"/>
			<point x="443" y="313" type="curve"/>
			<point x="489" y="313"/>
			<point x="519" y="303"/>
			<point x="548" y="287" type="curve"/>
			<point x="568" y="287" type="line"/>
			<point x="587.3615399576" y="363.4780828323"/>
			<point x="609.6384600424" y="451.5219171677"/>
			<point x="629" y="528" type="curve"/>
			<point x="630.3722643154" y="534.861321577"/>
			<point x="630.3588159928" y="536.6411840072"/>
			<point x="626" y="541" type="curve" smooth="yes"/>
			<point x="616.8067599201" y="550.1932400799"/>
			<point x="588.9743589744" y="560"/>
			<point x="550" y="560" type="curve"/>
			<point x="471" y="560"/>
			<point x="403" y="528"/>
			<point x="341" y="424" type="curve"/>
		</contour>
		<contour>
			<point x="212" y="0" type="curve"/>
			<point x="257" y="179"/>
			<point x="302" y="360"/>
			<point x="347" y="539" type="curve" smooth="yes"/>
			<point x="349" y="546"/>
			<point x="346" y="550"/>
			<point x="339" y="550" type="curve" smooth="yes"/>
			<point x="290" y="550"/>
			<point x="181" y="550"/>
			<point x="122" y="550" type="curve"/>
			<point x="115" y="522"/>
			<point x="107" y="488"/>
			<point x="98" y="452" type="curve" smooth="yes"/>
			<point x="61" y="305"/>
			<point x="25" y="158"/>
			<point x="-12" y="11" type="curve" smooth="yes"/>
			<point x="-14" y="4"/>
			<point x="-11" y="0"/>
			<point x="-4" y="0" type="curve" smooth="yes"/>
			<point x="49" y="0"/>
			<point x="158" y="0"/>
		</contour>
	</outline>
	<anchor name="top" x="300" y="561"/>
	<anchor name="bottom" x="300" y="-1"/>
</glyph>
<glyph name="s" format="2">
	<unicode hex="0073"/>
	<advance width="600"/>
	<outline>
		<contour>
			<point x="266" y="163" type="curve" smooth="yes"/>
			<point x="162" y="163"/>
			<point x="91" y="173"/>
			<point x="29" y="198" type="curve"/>
			<point x="9" y="198" type="line"/>
			<point x="-5" y="141"/>
			<point x="-20" y="85"/>
			<point x="-34" y="28" type="curve" smooth="yes"/>
			<point x="-35" y="24"/>
			<point x="-33" y="21"/>
			<point x="-29" y="19" type="curve" smooth="yes"/>
			<point x="-19" y="14"/>
			<point x="99" y="-12"/>
			<point x="213" y="-12" type="curve" smooth="yes"/>
			<point x="423" y="-12"/>
			<point x="519" y="35"/>
			<point x="551" y="166" type="curve" smooth="yes"/>
			<point x="571" y="247"/>
			<point x="523" y="307"/>
			<point x="429" y="319" type="curve" smooth="yes"/>
			<point x="297" y="336" type="line" smooth="yes"/>
			<point x="265" y="340"/>
			<point x="249" y="344"/>
			<point x="253" y="362" type="curve" smooth="yes"/>
			<point x="258" y="380"/>
			<point x="280" y="387"/>
			<point x="343" y="387" type="curve" smooth="yes"/>
			<point x="428" y="387"/>
			<point x="477" y="378"/>
			<point x="548" y="359" type="curve"/>
			<point x="568" y="359" type="line"/>
			<point x="582" y="414"/>
			<point x="596" y="470"/>
			<point x="610" y="524" type="curve" smooth="yes"/>
			<point x="611" y="528"/>
			<point x="609" y="531"/>
			<point x="605" y="533" type="curve"/>
			<point x="592" y="540"/>
			<point x="507" y="563"/>
			<point x="403" y="563" type="curve" smooth="yes"/>
			<point x="194" y="563"/>
			<point x="92" y="513"/>
			<point x="60" y="383" type="curve" smooth="yes"/>
			<point x="40" y="302"/>
			<point x="88" y="245"/>
			<point x="188" y="231" type="curve" smooth="yes"/>
			<point x="321" y="212" type="line" smooth="yes"/>
			<point x="357" y="207"/>
			<point x="367" y="200"/>
			<point x="365" y="190" type="curve"/>
			<point x="362" y="177"/>
			<point x="342" y="163"/>
		</contour>
	</outline>
	<anchor name="top" x="305" y="561"/>
	<anchor name="bottom" x="303" y="-1"/>
	<guideline x="-69" y="0" angle="75.96" identifier="66YAIphU1C"/>
	<guideline x="-19" y="0" angle="75.96" identifier="1b2D2JEg5y"/>
	<guideline x="31" y="0" angle="75.96" identifier="N8XLoLXtRO"/>
	<guideline x="81" y="0" angle="75.96" identifier="tbjEZnwoXr"/>
	<guideline x="131" y="0" angle="75.96" identifier="lVJiy0NQzU"/>
	<guideline x="181" y="0" angle="75.96" identifier="ByqgiVUS7m"/>
	<guideline x="231" y="0" angle="75.96" identifier="HaWoONJE3u"/>
	<guideline x="281" y="0" angle="75.96" identifier="zEVnCti5hT"/>
	<guideline x="331" y="0" angle="75.96" identifier="0cAN6gc8f7"/>
	<guideline x="381" y="0" angle="75.96" identifier="LM2uPVDLgX"/>
	<guideline x="431" y="0" angle="75.96" identifier="HpVx8y9HF4"/>
	<guideline x="612" y="523" angle="75.96" identifier="V8GOLCEGpT"/>
	<guideline x="531" y="0" angle="75.96" identifier="MFCo8WDNEU"/>
	<guideline x="-69" y="-250" angle="0" identifier="9LrszcDtUY"/>
	<guideline x="-69" y="-200" angle="0" identifier="KOkFMVKtTv"/>
	<guideline x="-69" y="-150" angle="0" identifier="xmS28ERm50"/>
	<guideline x="-69" y="-100" angle="0" identifier="zMXyQgFI9W"/>
	<guideline x="-69" y="-50" angle="0" identifier="pJtXFOU21u"/>
	<guideline x="-69" y="0" angle="0" identifier="PJptnvGdha"/>
	<guideline x="-69" y="50" angle="0" identifier="AMjs6EUM00"/>
	<guideline x="-69" y="100" angle="0" identifier="gpLKH4n6q8"/>
	<guideline x="-69" y="150" angle="0" identifier="WRYaiGSavg"/>
	<guideline x="-69" y="200" angle="0" identifier="kQuz3J9UPu"/>
	<guideline x="-69" y="250" angle="0" identifier="rBykGKEHnQ"/>
	<guideline x="-69" y="300" angle="0" identifier="M0twj8HMnN"/>
	<guideline x="-69" y="350" angle="0" identifier="Lkv1sxzRPS"/>
	<guideline x="-69" y="400" angle="0" identifier="5zBm5ruZJl"/>
	<guideline x="-69" y="450" angle="0" identifier="UukQ2fkNaw"/>
	<guideline x="-69" y="500" angle="0" identifier="q1tpNWedj2"/>
	<guideline x="-69" y="550" angle="0" identifier="WXfKKenTXD"/>
	<guideline x="-69" y="600" angle="0" identifier="3fxC3eUVMb"/>
	<guideline x="-69" y="650" angle="0" identifier="O2ac6R3Wsx"/>
	<guideline x="-69" y="700" angle="0" identifier="OKpgUmUS68"/>
</glyph>
<glyph name="u" format="2">
	<unicode hex="0075"/>
	<advance width="600"/>
	<outline>
		<contour>
			<point x="317" y="550" type="curve" smooth="yes"/>
			<point x="245" y="550"/>
			<point x="173" y="550"/>
			<point x="101" y="550" type="curve"/>
			<point x="93" y="517"/>
			<point x="85" y="485"/>
			<point x="77" y="452" type="curve" smooth="yes"/>
			<point x="53" y="358"/>
			<point x="30" y="264"/>
			<point x="6" y="170" type="curve" smooth="yes"/>
			<point x="-25" y="47"/>
			<point x="22" y="-10"/>
			<point x="108" y="-10" type="curve" smooth="yes"/>
			<point x="168" y="-10"/>
			<point x="223" y="29"/>
			<point x="272" y="89" type="curve"/>
			<point x="329" y="89" type="line"/>
			<point x="368" y="256" type="line"/>
			<point x="340" y="222"/>
			<point x="298" y="205"/>
			<point x="269" y="205" type="curve" smooth="yes"/>
			<point x="250" y="205"/>
			<point x="245" y="216"/>
			<point x="249" y="236" type="curve"/>
			<point x="275" y="337"/>
			<point x="300" y="438"/>
			<point x="325" y="539" type="curve" smooth="yes"/>
			<point x="327" y="546"/>
			<point x="324" y="550"/>
		</contour>
		<contour>
			<point x="623" y="550" type="curve" smooth="yes"/>
			<point x="570" y="550"/>
			<point x="462" y="550"/>
			<point x="408" y="550" type="curve"/>
			<point x="363" y="371"/>
			<point x="318" y="190"/>
			<point x="273" y="11" type="curve" smooth="yes"/>
			<point x="271" y="4"/>
			<point x="274" y="0"/>
			<point x="281" y="0" type="curve" smooth="yes"/>
			<point x="330" y="0"/>
			<point x="437" y="0"/>
			<point x="496" y="0" type="curve"/>
			<point x="503" y="28"/>
			<point x="512" y="62"/>
			<point x="521" y="98" type="curve" smooth="yes"/>
			<point x="558" y="245"/>
			<point x="595" y="392"/>
			<point x="631" y="539" type="curve" smooth="yes"/>
			<point x="633" y="546"/>
			<point x="630" y="550"/>
		</contour>
	</outline>
	<anchor name="top" x="363" y="550"/>
	<anchor name="bottom" x="233" y="-1"/>
	<anchor name="ogonek" x="499" y="0"/>
	<guideline x="987" y="78" angle="0" identifier="hyExwEP6eA"/>
</glyph>
<glyph name="v" format="2">
	<unicode hex="0076"/>
	<advance width="600"/>
	<outline>
		<contour>
			<point x="275" y="550" type="curve" smooth="yes"/>
			<point x="210.3333333333" y="550"/>
			<point x="145.3557692308" y="550"/>
			<point x="81" y="550" type="curve"/>
			<point x="77" y="372"/>
			<point x="73" y="193"/>
			<point x="70" y="15" type="curve" smooth="yes"/>
			<point x="69" y="5"/>
			<point x="77" y="0"/>
			<point x="87" y="0" type="curve" smooth="yes"/>
			<point x="189" y="0"/>
			<point x="290" y="0"/>
			<point x="392" y="0" type="curve"/>
			<point x="477" y="177"/>
			<point x="562" y="354"/>
			<point x="648" y="531" type="curve" smooth="yes"/>
			<point x="653" y="541"/>
			<point x="651" y="550"/>
			<point x="640" y="550" type="curve" smooth="yes"/>
			<point x="572" y="550"/>
			<point x="503" y="550"/>
			<point x="435" y="550" type="curve"/>
			<point x="372" y="420"/>
			<point x="321" y="300"/>
			<point x="285" y="192" type="curve"/>
			<point x="265" y="192" type="line"/>
			<point x="276" y="297"/>
			<point x="284" y="419"/>
			<point x="288" y="533" type="curve"/>
			<point x="288" y="544"/>
			<point x="284" y="550"/>
		</contour>
	</outline>
</glyph>
<glyph name="w" format="2">
	<unicode hex="0077"/>
	<advance width="600"/>
	<outline>
		<contour>
			<point x="303" y="470" type="line"/>
			<point x="267" y="375"/>
			<point x="231" y="281"/>
			<point x="196" y="186" type="curve"/>
			<point x="176" y="186" type="line"/>
			<point x="203" y="301"/>
			<point x="228" y="416"/>
			<point x="252" y="532" type="curve"/>
			<point x="255" y="547"/>
			<point x="252" y="550"/>
			<point x="244" y="550" type="curve" smooth="yes"/>
			<point x="188" y="550"/>
			<point x="131" y="550"/>
			<point x="75" y="550" type="curve"/>
			<point x="54" y="373"/>
			<point x="32" y="193"/>
			<point x="11" y="15" type="curve" smooth="yes"/>
			<point x="10" y="5"/>
			<point x="18" y="0"/>
			<point x="28" y="0" type="curve" smooth="yes"/>
			<point x="83" y="0"/>
			<point x="139" y="0"/>
			<point x="194" y="0" type="curve"/>
			<point x="221" y="71"/>
			<point x="248" y="143"/>
			<point x="275" y="215" type="curve"/>
			<point x="295" y="215" type="line"/>
			<point x="287" y="148"/>
			<point x="280" y="81"/>
			<point x="272" y="15" type="curve" smooth="yes"/>
			<point x="271" y="5"/>
			<point x="279" y="0"/>
			<point x="289" y="0" type="curve" smooth="yes"/>
			<point x="343" y="0"/>
			<point x="397" y="0"/>
			<point x="451" y="0" type="curve"/>
			<point x="518" y="175"/>
			<point x="589" y="357"/>
			<point x="659" y="537" type="curve" smooth="yes"/>
			<point x="662" y="546"/>
			<point x="659" y="550"/>
			<point x="653" y="550" type="curve"/>
			<point x="596" y="550"/>
			<point x="540" y="550"/>
			<point x="483" y="550" type="curve"/>
			<point x="448" y="430"/>
			<point x="416" y="311"/>
			<point x="385" y="190" type="curve"/>
			<point x="365" y="190" type="line"/>
			<point x="374" y="280"/>
			<point x="384" y="370"/>
			<point x="393" y="459" type="curve"/>
			<point x="394" y="466"/>
			<point x="390" y="470"/>
			<point x="384" y="470" type="curve" smooth="yes"/>
		</contour>
	</outline>
	<anchor name="top" x="299" y="561"/>
	<guideline x="0" y="0" angle="90" identifier="xG7VmQlS0H"/>
	<guideline x="50" y="0" angle="90" identifier="0rxWm7dUUf"/>
	<guideline x="100" y="0" angle="90" identifier="gksNpqKNWE"/>
	<guideline x="150" y="0" angle="90" identifier="sZvtoULyIa"/>
	<guideline x="200" y="0" angle="90" identifier="pNQQ4zkyIR"/>
	<guideline x="250" y="0" angle="90" identifier="6cevHuk3t3"/>
	<guideline x="300" y="0" angle="90" identifier="nB3FAe28iO"/>
	<guideline x="350" y="0" angle="90" identifier="dvnvDqJSfz"/>
	<guideline x="400" y="0" angle="90" identifier="LBAcrTIwt3"/>
	<guideline x="450" y="0" angle="90" identifier="uI6rzpDITF"/>
	<guideline x="500" y="0" angle="90" identifier="hGtyqxsNku"/>
	<guideline x="550" y="0" angle="90" identifier="DSMPotZVGF"/>
	<guideline x="600" y="0" angle="90" identifier="jvbYXiyHpj"/>
	<guideline x="0" y="-250" angle="0" identifier="TewUB5avbC"/>
	<guideline x="0" y="-200" angle="0" identifier="LcC2mLwNSs"/>
	<guideline x="0" y="-150" angle="0" identifier="HOE5shk9YD"/>
	<guideline x="0" y="-100" angle="0" identifier="HDpZlCMMn7"/>
	<guideline x="0" y="-50" angle="0" identifier="83oxBbiHI3"/>
	<guideline x="0" y="0" angle="0" identifier="BAAS1uXcab"/>
	<guideline x="0" y="50" angle="0" identifier="6Fji9vKt6a"/>
	<guideline x="0" y="100" angle="0" identifier="l0R4muMaCW"/>
	<guideline x="0" y="150" angle="0" identifier="Xr6KRBQPnp"/>
	<guideline x="0" y="200" angle="0" identifier="u375ofLdnO"/>
	<guideline x="0" y="250" angle="0" identifier="JLP2fbHC53"/>
	<guideline x="0" y="300" angle="0" identifier="l6EiDDd83P"/>
	<guideline x="0" y="350" angle="0" identifier="LPwQTrSSuT"/>
	<guideline x="0" y="400" angle="0" identifier="GNPrbwWsS1"/>
	<guideline x="0" y="450" angle="0" identifier="u6LqeEfsnr"/>
	<guideline x="0" y="500" angle="0" identifier="AO9Yq9GQB1"/>
	<guideline x="0" y="550" angle="0" identifier="rQtp4jcXoO"/>
	<guideline x="0" y="600" angle="0" identifier="99WFfjgEA9"/>
	<guideline x="0" y="650" angle="0" identifier="YxOlrYna3F"/>
	<guideline x="0" y="700" angle="0" identifier="0G8huiH99t"/>
</glyph>
<glyph name="y" format="2">
	<unicode hex="0079"/>
	<advance width="600"/>
	<outline>
		<contour>
			<point x="640" y="550" type="curve" smooth="yes"/>
			<point x="589" y="550"/>
			<point x="461" y="550"/>
			<point x="417" y="550" type="curve"/>
			<point x="345" y="373"/>
			<point x="263" y="175"/>
			<point x="191" y="-2" type="curve" smooth="yes"/>
			<point x="181" y="-25"/>
			<point x="173" y="-31"/>
			<point x="148" y="-31" type="curve" smooth="yes"/>
			<point x="102" y="-31"/>
			<point x="57" y="-31"/>
			<point x="11" y="-31" type="curve"/>
			<point x="-9" y="-31" type="line"/>
			<point x="-45" y="-188" type="line"/>
			<point x="-47" y="-196"/>
			<point x="-44" y="-200"/>
			<point x="-37" y="-200" type="curve" smooth="yes"/>
			<point x="-27" y="-200"/>
			<point x="64" y="-200"/>
			<point x="114" y="-200" type="curve"/>
			<point x="249" y="-200"/>
			<point x="309" y="-153"/>
			<point x="380" y="-12" type="curve" smooth="yes"/>
			<point x="469" y="170"/>
			<point x="555" y="348"/>
			<point x="646" y="534" type="curve"/>
			<point x="650" y="544"/>
			<point x="647" y="550"/>
		</contour>
		<contour>
			<point x="277" y="550" type="curve" smooth="yes"/>
			<point x="221" y="550"/>
			<point x="125" y="550"/>
			<point x="79" y="550" type="curve"/>
			<point x="71" y="378"/>
			<point x="63" y="64"/>
			<point x="63" y="51" type="curve" smooth="yes"/>
			<point x="63" y="44"/>
			<point x="67" y="40"/>
			<point x="75" y="40" type="curve" smooth="yes"/>
			<point x="256" y="40" type="line"/>
			<point x="345" y="216" type="line"/>
			<point x="262" y="216" type="line"/>
			<point x="270" y="304"/>
			<point x="281" y="436"/>
			<point x="290" y="535" type="curve" smooth="yes"/>
			<point x="291" y="543"/>
			<point x="286" y="550"/>
		</contour>
	</outline>
	<anchor name="top" x="353" y="550"/>
	<anchor name="dot" x="453" y="-161"/>
	<anchor name="hook" x="362" y="584"/>
	<guideline x="-69" y="0" angle="75.96" identifier="zDIa6Xnfjt"/>
	<guideline x="-19" y="0" angle="75.96" identifier="jENdsQzDPf"/>
	<guideline x="31" y="0" angle="75.96" identifier="YXIqjTawM6"/>
	<guideline x="81" y="0" angle="75.96" identifier="Xx8WumkdUI"/>
	<guideline x="131" y="0" angle="75.96" identifier="L0RIHL17IN"/>
	<guideline x="181" y="0" angle="75.96" identifier="sfL0Tu43tm"/>
	<guideline x="231" y="0" angle="75.96" identifier="IRuZlgHHz8"/>
	<guideline x="281" y="0" angle="75.96" identifier="wSrUqKtIo9"/>
	<guideline x="331" y="0" angle="75.96" identifier="RaWtZnp00s"/>
	<guideline x="381" y="0" angle="75.96" identifier="OlLdEN2w61"/>
	<guideline x="431" y="0" angle="75.96" identifier="WaxZxGQYAD"/>
	<guideline x="481" y="0" angle="75.96" identifier="lyhdGE60Db"/>
	<guideline x="531" y="0" angle="75.96" identifier="fapEdH9JG3"/>
	<guideline x="-69" y="-250" angle="0" identifier="inJrcGYliC"/>
	<guideline x="-69" y="-200" angle="0" identifier="1STXiCLy8G"/>
	<guideline x="-69" y="-150" angle="0" identifier="odEMIWGCSB"/>
	<guideline x="-69" y="-100" angle="0" identifier="vaXQfGWUAc"/>
	<guideline x="-69" y="-50" angle="0" identifier="N3l8PV2ZoV"/>
	<guideline x="-69" y="0" angle="0" identifier="AjzcpyyVTA"/>
	<guideline x="-69" y="50" angle="0" identifier="ZCboB0XlUa"/>
	<guideline x="-69" y="100" angle="0" identifier="Dym6qcAIaQ"/>
	<guideline x="-69" y="150" angle="0" identifier="z4C6bXPlts"/>
	<guideline x="-69" y="200" angle="0" identifier="p1y8ODekfl"/>
	<guideline x="-69" y="250" angle="0" identifier="4ilTCohsp5"/>
	<guideline x="-69" y="300" angle="0" identifier="PIbGx5Hoe9"/>
	<guideline x="-69" y="350" angle="0" identifier="mj4M2kbenR"/>
	<guideline x="-69" y="400" angle="0" identifier="ohs0VLGn5Q"/>
	<guideline x="-69" y="450" angle="0" identifier="IMN86LovOI"/>
	<guideline x="-69" y="500" angle="0" identifier="7zYN5rFnk9"/>
	<guideline x="-69" y="550" angle="0" identifier="or8JawfCHg"/>
	<guideline x="-69" y="600" angle="0" identifier="SyN0a5SOzn"/>
	<guideline x="-69" y="650" angle="0" identifier="pwgCzTkOqJ"/>
	<guideline x="-69" y="700" angle="0" identifier="tr3fWKhTcT"/>
</glyph>
<glyph name="z" format="2">
	<unicode hex="007A"/>
	<advance width="600"/>
	<outline>
		<contour>
			<point x="99" y="550" type="line"/>
			<point x="82" y="482"/>
			<point x="65" y="414"/>
			<point x="48" y="346" type="curve" smooth="yes"/>
			<point x="46" y="339"/>
			<point x="49" y="335"/>
			<point x="56" y="335" type="curve"/>
			<point x="172" y="335" type="line" smooth="yes"/>
			<point x="226" y="335"/>
			<point x="279" y="341"/>
			<point x="335" y="354" type="curve"/>
			<point x="334" y="345" type="line"/>
			<point x="6" y="180" type="line"/>
			<point x="-36" y="11" type="line" smooth="yes"/>
			<point x="-38" y="4"/>
			<point x="-35" y="0"/>
			<point x="-28" y="0" type="curve" smooth="yes"/>
			<point x="501" y="0" type="line"/>
			<point x="518" y="68"/>
			<point x="535" y="136"/>
			<point x="552" y="204" type="curve"/>
			<point x="554" y="211"/>
			<point x="551" y="215"/>
			<point x="544" y="215" type="curve"/>
			<point x="430" y="215" type="line" smooth="yes"/>
			<point x="386" y="215"/>
			<point x="335" y="208"/>
			<point x="283" y="195" type="curve"/>
			<point x="284" y="205" type="line"/>
			<point x="385" y="255"/>
			<point x="591" y="356.7931034483"/>
			<point x="591" y="360" type="curve"/>
			<point x="636" y="539" type="line" smooth="yes"/>
			<point x="638" y="546"/>
			<point x="635" y="550"/>
			<point x="628" y="550" type="curve" smooth="yes"/>
		</contour>
		<contour>
			<point x="294" y="297" type="line"/>
			<point x="337" y="297" type="line"/>
			<point x="366" y="412" type="line"/>
			<point x="323" y="412" type="line"/>
		</contour>
		<contour>
			<point x="262" y="134" type="line"/>
			<point x="295" y="134" type="line"/>
			<point x="324" y="249" type="line"/>
			<point x="291" y="249" type="line"/>
		</contour>
	</outline>
	<anchor name="top" x="300" y="561"/>
	<guideline x="0" y="0" angle="90" identifier="Lmvw44uRmr"/>
	<guideline x="50" y="0" angle="90" identifier="eoO2lTBUVB"/>
	<guideline x="100" y="0" angle="90" identifier="hbxgcHLuTn"/>
	<guideline x="150" y="0" angle="90" identifier="7p6vumh6KR"/>
	<guideline x="200" y="0" angle="90" identifier="YZqHlKduij"/>
	<guideline x="250" y="0" angle="90" identifier="30e5oidtXu"/>
	<guideline x="300" y="0" angle="90" identifier="hjFltjjB81"/>
	<guideline x="350" y="0" angle="90" identifier="P4IU852Tvc"/>
	<guideline x="400" y="256" angle="90" identifier="oZV0s4enbg"/>
	<guideline x="450" y="0" angle="90" identifier="nAYNc0D6PS"/>
	<guideline x="500" y="0" angle="90" identifier="pa7MEc2N1Z"/>
	<guideline x="550" y="0" angle="90" identifier="ur0r7NK5TD"/>
	<guideline x="600" y="0" angle="90" identifier="OwC7dSUbi9"/>
	<guideline x="0" y="-250" angle="0" identifier="c8liNEyFCs"/>
	<guideline x="0" y="-200" angle="0" identifier="x33WO88hCa"/>
	<guideline x="0" y="-150" angle="0" identifier="gMPNl0BXpT"/>
	<guideline x="0" y="-100" angle="0" identifier="ZKAVn0BIAS"/>
	<guideline x="0" y="-50" angle="0" identifier="6JUZk9GBGJ"/>
	<guideline x="0" y="0" angle="0" identifier="TgBDblHJJL"/>
	<guideline x="0" y="50" angle="0" identifier="MvCtsRKtMk"/>
	<guideline x="0" y="100" angle="0" identifier="rMUPD6NZpv"/>
	<guideline x="0" y="150" angle="0" identifier="4CQiWE9sxV"/>
	<guideline x="0" y="200" angle="0" identifier="sjZlEMQtdj"/>
	<guideline x="0" y="250" angle="0" identifier="z6QnPy4SVd"/>
	<guideline x="0" y="300" angle="0" identifier="rjwfVkA0zT"/>
	<guideline x="0" y="350" angle="0" identifier="nUJfb8qbTS"/>
	<guideline x="0" y="400" angle="0" identifier="OIhHyCS8lK"/>
	<guideline x="0" y="450" angle="0" identifier="p0aFvkgD1r"/>
	<guideline x="0" y="500" angle="0" identifier="4g3jP8YvFE"/>
	<guideline x="0" y="550" angle="0" identifier="fqlBoZ0kky"/>
	<guideline x="0" y="600" angle="0" identifier="uI5if7YlLI"/>
	<guideline x="0" y="650" angle="0" identifier="VgqmbKpt9w"/>
	<guideline x="0" y="700" angle="0" identifier="C7dcOHLnGe"/>
</glyph>
<glyph name="braceleft" format="2">
	<unicode hex="007B"/>
	<advance width="600"/>
	<outline>
		<contour>
			<point x="396" y="183" type="curve" smooth="yes"/>
			<point x="409" y="238"/>
			<point x="389" y="275"/>
			<point x="315" y="296" type="curve"/>
			<point x="317" y="302" type="line"/>
			<point x="394" y="319"/>
			<point x="433" y="346"/>
			<point x="452" y="415" type="curve" smooth="yes"/>
			<point x="467" y="469"/>
			<point x="453" y="513"/>
			<point x="458" y="556" type="curve" smooth="yes"/>
			<point x="459" y="562"/>
			<point x="459" y="569"/>
			<point x="461" y="577" type="curve"/>
			<point x="467" y="577"/>
			<point x="473" y="577"/>
			<point x="479" y="577" type="curve" smooth="yes"/>
			<point x="503" y="577"/>
			<point x="554" y="577"/>
			<point x="592" y="577" type="curve"/>
			<point x="609" y="577" type="line"/>
			<point x="624" y="634"/>
			<point x="638" y="692"/>
			<point x="652" y="749" type="curve" smooth="yes"/>
			<point x="654" y="756"/>
			<point x="651" y="760"/>
			<point x="644" y="760" type="curve" smooth="yes"/>
			<point x="456" y="760" type="line" smooth="yes"/>
			<point x="341" y="760"/>
			<point x="293" y="717"/>
			<point x="274" y="640" type="curve" smooth="yes"/>
			<point x="270" y="622" type="line" smooth="yes"/>
			<point x="249" y="539"/>
			<point x="279" y="504"/>
			<point x="266" y="450" type="curve" smooth="yes"/>
			<point x="257" y="412"/>
			<point x="229" y="400"/>
			<point x="184" y="400" type="curve" smooth="yes"/>
			<point x="81" y="400" type="line"/>
			<point x="34" y="211" type="line" smooth="yes"/>
			<point x="32" y="204"/>
			<point x="35" y="200"/>
			<point x="42" y="200" type="curve" smooth="yes"/>
			<point x="141" y="200" type="line" smooth="yes"/>
			<point x="186" y="200"/>
			<point x="197" y="177"/>
			<point x="190" y="149" type="curve" smooth="yes"/>
			<point x="175" y="90"/>
			<point x="123" y="51"/>
			<point x="108" y="-23" type="curve" smooth="yes"/>
			<point x="105" y="-38" type="line" smooth="yes"/>
			<point x="89" y="-116"/>
			<point x="130" y="-161"/>
			<point x="214" y="-161" type="curve" smooth="yes"/>
			<point x="414" y="-161" type="line" smooth="yes"/>
			<point x="421" y="-161"/>
			<point x="426" y="-157"/>
			<point x="427" y="-150" type="curve" smooth="yes"/>
			<point x="441" y="-94"/>
			<point x="456" y="-35"/>
			<point x="470" y="22" type="curve"/>
			<point x="442" y="22" type="line"/>
			<point x="408" y="22"/>
			<point x="358" y="22"/>
			<point x="340" y="22" type="curve" smooth="yes"/>
			<point x="334" y="22"/>
			<point x="328" y="22"/>
			<point x="322" y="22" type="curve"/>
			<point x="325" y="31"/>
			<point x="328" y="39"/>
			<point x="331" y="47" type="curve" smooth="yes"/>
			<point x="348" y="88"/>
			<point x="381" y="126"/>
		</contour>
	</outline>
</glyph>
<glyph name="yen" format="2">
	<unicode hex="00A5"/>
	<advance width="600"/>
	<outline>
		<contour>
			<point x="70" y="500" type="curve"/>
			<point x="59" y="454"/>
			<point x="45" y="395"/>
			<point x="34" y="349" type="curve" smooth="yes"/>
			<point x="32" y="342"/>
			<point x="35" y="338"/>
			<point x="42" y="338" type="curve" smooth="yes"/>
			<point x="82" y="338"/>
			<point x="159" y="338"/>
			<point x="222" y="338" type="curve"/>
			<point x="262" y="500" type="line"/>
			<point x="198" y="500"/>
			<point x="137" y="500"/>
		</contour>
		<contour>
			<point x="442" y="500" type="curve"/>
			<point x="402" y="338" type="line"/>
			<point x="469" y="338"/>
			<point x="547" y="338"/>
			<point x="601" y="338" type="curve"/>
			<point x="613" y="384"/>
			<point x="629" y="443"/>
			<point x="640" y="489" type="curve" smooth="yes"/>
			<point x="642" y="496"/>
			<point x="638" y="500"/>
			<point x="631" y="500" type="curve" smooth="yes"/>
			<point x="586" y="500"/>
			<point x="505" y="500"/>
		</contour>
		<contour>
			<point x="542" y="98" type="curve"/>
			<point x="546" y="117"/>
			<point x="568" y="203"/>
			<point x="579" y="249" type="curve" smooth="yes"/>
			<point x="581" y="256"/>
			<point x="578" y="260"/>
			<point x="571" y="260" type="curve" smooth="yes"/>
			<point x="538" y="260"/>
			<point x="56" y="260"/>
			<point x="11" y="260" type="curve"/>
			<point x="3" y="226"/>
			<point x="-15" y="154"/>
			<point x="-27" y="109" type="curve" smooth="yes"/>
			<point x="-29" y="102"/>
			<point x="-25" y="98"/>
			<point x="-18" y="98" type="curve" smooth="yes"/>
			<point x="24" y="98"/>
			<point x="490" y="98"/>
		</contour>
		<contour>
			<point x="421" y="300" type="curve"/>
			<point x="385" y="205" type="line"/>
			<point x="487.231" y="363.508"/>
			<point x="626" y="577"/>
			<point x="692" y="681" type="curve" smooth="yes"/>
			<point x="698" y="691"/>
			<point x="695" y="700"/>
			<point x="684" y="700" type="curve" smooth="yes"/>
			<point x="610" y="700"/>
			<point x="536" y="700"/>
			<point x="462" y="700" type="curve"/>
			<point x="414" y="595"/>
			<point x="378" y="504"/>
			<point x="341" y="388" type="curve"/>
			<point x="376" y="400" type="line"/>
			<point x="294" y="400" type="line"/>
			<point x="323" y="388" type="line"/>
			<point x="337" y="502"/>
			<point x="345" y="592"/>
			<point x="350" y="683" type="curve" smooth="yes"/>
			<point x="351" y="694"/>
			<point x="346" y="700"/>
			<point x="337" y="700" type="curve" smooth="yes"/>
			<point x="263" y="700"/>
			<point x="188" y="700"/>
			<point x="114" y="700" type="curve"/>
			<point x="192" y="219" type="line"/>
			<point x="195" y="300" type="line"/>
			<point x="171" y="204"/>
			<point x="148" y="107"/>
			<point x="123" y="11" type="curve" smooth="yes"/>
			<point x="122" y="6"/>
			<point x="123" y="0"/>
			<point x="131" y="0" type="curve" smooth="yes"/>
			<point x="203" y="0"/>
			<point x="274" y="0"/>
			<point x="346" y="0" type="curve"/>
			<point x="354" y="33"/>
			<point x="363" y="67"/>
			<point x="371" y="100" type="curve"/>
			<point x="388" y="167"/>
			<point x="404" y="233"/>
		</contour>
	</outline>
</glyph>
<glyph name="section" format="2">
	<unicode hex="00A7"/>
	<advance width="600"/>
	<outline>
		<contour>
			<point x="427" y="720" type="curve" smooth="yes"/>
			<point x="241" y="720"/>
			<point x="129" y="650"/>
			<point x="96" y="517" type="curve" smooth="yes"/>
			<point x="90" y="493" type="line" smooth="yes"/>
			<point x="66" y="396"/>
			<point x="111" y="344"/>
			<point x="244" y="314" type="curve" smooth="yes"/>
			<point x="325" y="296" type="line" smooth="yes"/>
			<point x="353" y="290"/>
			<point x="362" y="280"/>
			<point x="358" y="262" type="curve" smooth="yes"/>
			<point x="346" y="215" type="line"/>
			<point x="340" y="191"/>
			<point x="334" y="167"/>
			<point x="328" y="143" type="curve"/>
			<point x="348" y="143"/>
			<point x="368" y="143"/>
			<point x="388" y="143" type="curve" smooth="yes"/>
			<point x="479" y="143"/>
			<point x="551" y="196"/>
			<point x="572" y="279" type="curve" smooth="yes"/>
			<point x="574" y="289" type="line" smooth="yes"/>
			<point x="596" y="377"/>
			<point x="556" y="423"/>
			<point x="430" y="450" type="curve" smooth="yes"/>
			<point x="337" y="470" type="line" smooth="yes"/>
			<point x="309" y="476"/>
			<point x="298" y="483"/>
			<point x="301" y="497" type="curve" smooth="yes"/>
			<point x="302" y="499" type="line" smooth="yes"/>
			<point x="308" y="523"/>
			<point x="329" y="530"/>
			<point x="397" y="530" type="curve" smooth="yes"/>
			<point x="422" y="530"/>
			<point x="438" y="527"/>
			<point x="456" y="519" type="curve"/>
			<point x="436" y="557" type="line"/>
			<point x="431" y="537"/>
			<point x="426" y="516"/>
			<point x="421" y="496" type="curve" smooth="yes"/>
			<point x="419" y="489"/>
			<point x="422" y="485"/>
			<point x="429" y="485" type="curve" smooth="yes"/>
			<point x="490" y="485"/>
			<point x="552" y="485"/>
			<point x="613" y="485" type="curve"/>
			<point x="628" y="542"/>
			<point x="642" y="600"/>
			<point x="657" y="659" type="curve"/>
			<point x="659" y="668"/>
			<point x="659" y="671"/>
			<point x="655" y="676" type="curve"/>
			<point x="637" y="700"/>
			<point x="535" y="720"/>
		</contour>
		<contour>
			<point x="214" y="1" type="curve" smooth="yes"/>
			<point x="134" y="1"/>
			<point x="53" y="22"/>
			<point x="-4" y="58" type="curve"/>
			<point x="-24" y="58" type="line"/>
			<point x="-40" y="-7"/>
			<point x="-56" y="-72"/>
			<point x="-72" y="-137" type="curve" smooth="yes"/>
			<point x="-73" y="-140"/>
			<point x="-73" y="-143"/>
			<point x="-71" y="-145" type="curve" smooth="yes"/>
			<point x="-49" y="-174"/>
			<point x="57" y="-200"/>
			<point x="158" y="-200" type="curve" smooth="yes"/>
			<point x="353" y="-200"/>
			<point x="466" y="-140"/>
			<point x="499" y="-13" type="curve" smooth="yes"/>
			<point x="508" y="24" type="line" smooth="yes"/>
			<point x="534" y="129"/>
			<point x="494" y="183"/>
			<point x="369" y="210" type="curve" smooth="yes"/>
			<point x="276" y="230" type="line" smooth="yes"/>
			<point x="246" y="236"/>
			<point x="238" y="245"/>
			<point x="244" y="268" type="curve" smooth="yes"/>
			<point x="255" y="310" type="line"/>
			<point x="260" y="330"/>
			<point x="267" y="359"/>
			<point x="270" y="371" type="curve"/>
			<point x="249" y="371"/>
			<point x="227" y="371"/>
			<point x="206" y="371" type="curve" smooth="yes"/>
			<point x="123" y="371"/>
			<point x="42" y="324"/>
			<point x="31" y="258" type="curve" smooth="yes"/>
			<point x="30" y="252" type="line" smooth="yes"/>
			<point x="13" y="151"/>
			<point x="55" y="102"/>
			<point x="183" y="74" type="curve" smooth="yes"/>
			<point x="265" y="56" type="line" smooth="yes"/>
			<point x="291" y="50"/>
			<point x="302" y="41"/>
			<point x="299" y="28" type="curve" smooth="yes"/>
			<point x="299" y="27" type="line" smooth="yes"/>
			<point x="294" y="8"/>
			<point x="271" y="1"/>
		</contour>
	</outline>
</glyph>
<glyph name="logicalnot" format="2">
	<unicode hex="00AC"/>
	<advance width="600"/>
	<outline>
		<contour>
			<point x="105" y="456" type="line"/>
			<point x="89" y="393"/>
			<point x="73" y="330"/>
			<point x="57" y="267" type="curve" smooth="yes"/>
			<point x="56" y="260"/>
			<point x="59" y="256"/>
			<point x="66" y="256" type="curve"/>
			<point x="375" y="256" type="line"/>
			<point x="350" y="316" type="line"/>
			<point x="334" y="252"/>
			<point x="318" y="188"/>
			<point x="302" y="124" type="curve"/>
			<point x="300" y="117"/>
			<point x="303" y="113"/>
			<point x="310" y="113" type="curve" smooth="yes"/>
			<point x="380" y="113"/>
			<point x="429" y="113"/>
			<point x="499" y="113" type="curve"/>
			<point x="527" y="224"/>
			<point x="554" y="334"/>
			<point x="582" y="445" type="curve"/>
			<point x="584" y="452"/>
			<point x="581" y="456"/>
			<point x="574" y="456" type="curve" smooth="yes"/>
		</contour>
	</outline>
</glyph>
<glyph name="twosuperior" format="2">
	<unicode hex="00B2"/>
	<advance width="600"/>
	<outline>
		<contour>
			<point x="470" y="357" type="curve"/>
			<point x="472" y="367"/>
			<point x="492" y="446"/>
			<point x="494" y="456" type="curve" smooth="yes"/>
			<point x="496" y="463"/>
			<point x="492" y="467"/>
			<point x="485" y="467" type="curve" smooth="yes"/>
			<point x="407" y="467" type="line" smooth="yes"/>
			<point x="339" y="467"/>
			<point x="323" y="461"/>
			<point x="278" y="443" type="curve"/>
			<point x="300" y="436" type="line"/>
			<point x="313" y="487" type="line"/>
			<point x="294" y="443" type="line"/>
			<point x="310" y="477"/>
			<point x="336" y="496"/>
			<point x="402" y="513" type="curve" smooth="yes"/>
			<point x="483" y="534"/>
			<point x="520" y="564"/>
			<point x="533" y="629" type="curve" smooth="yes"/>
			<point x="535" y="639" type="line" smooth="yes"/>
			<point x="548" y="703"/>
			<point x="512" y="750"/>
			<point x="397" y="750" type="curve" smooth="yes"/>
			<point x="347" y="750"/>
			<point x="313" y="745"/>
			<point x="288" y="737" type="curve" smooth="yes"/>
			<point x="278" y="734"/>
			<point x="276" y="730"/>
			<point x="275" y="726" type="curve" smooth="yes"/>
			<point x="273" y="716"/>
			<point x="253" y="638"/>
			<point x="251" y="628" type="curve"/>
			<point x="265" y="628" type="line"/>
			<point x="292" y="636"/>
			<point x="327" y="640"/>
			<point x="359" y="640" type="curve" smooth="yes"/>
			<point x="382" y="640"/>
			<point x="395" y="636"/>
			<point x="399" y="632" type="curve" smooth="yes"/>
			<point x="402" y="628"/>
			<point x="402" y="623"/>
			<point x="401" y="616" type="curve" smooth="yes"/>
			<point x="397" y="600"/>
			<point x="384" y="590"/>
			<point x="313" y="572" type="curve" smooth="yes"/>
			<point x="247" y="555"/>
			<point x="211" y="520"/>
			<point x="193" y="447" type="curve" smooth="yes"/>
			<point x="174" y="368" type="line" smooth="yes"/>
			<point x="172" y="361"/>
			<point x="177" y="357"/>
			<point x="184" y="357" type="curve" smooth="yes"/>
			<point x="196" y="357"/>
			<point x="459" y="357"/>
		</contour>
	</outline>
</glyph>
<glyph name="threesuperior" format="2">
	<unicode hex="00B3"/>
	<advance width="600"/>
	<outline>
		<contour>
			<point x="308" y="452" type="curve" smooth="yes"/>
			<point x="273" y="452"/>
			<point x="245" y="456"/>
			<point x="214" y="466" type="curve"/>
			<point x="202" y="466" type="line"/>
			<point x="200" y="456"/>
			<point x="183" y="390"/>
			<point x="181" y="380" type="curve" smooth="yes"/>
			<point x="179" y="372"/>
			<point x="178" y="368"/>
			<point x="184" y="365" type="curve" smooth="yes"/>
			<point x="205" y="354"/>
			<point x="257" y="347"/>
			<point x="312" y="347" type="curve" smooth="yes"/>
			<point x="408" y="347"/>
			<point x="477" y="375"/>
			<point x="489" y="449" type="curve" smooth="yes"/>
			<point x="490" y="455" type="line" smooth="yes"/>
			<point x="498" y="501"/>
			<point x="471" y="539"/>
			<point x="383" y="544" type="curve"/>
			<point x="424" y="519" type="line"/>
			<point x="436" y="566" type="line"/>
			<point x="382" y="541" type="line"/>
			<point x="477" y="550"/>
			<point x="521" y="583"/>
			<point x="533" y="644" type="curve" smooth="yes"/>
			<point x="535" y="654" type="line" smooth="yes"/>
			<point x="545" y="706"/>
			<point x="508" y="750"/>
			<point x="391" y="750" type="curve" smooth="yes"/>
			<point x="338" y="750"/>
			<point x="298" y="741"/>
			<point x="279" y="735" type="curve" smooth="yes"/>
			<point x="269" y="732"/>
			<point x="267" y="727"/>
			<point x="266" y="723" type="curve" smooth="yes"/>
			<point x="263" y="713"/>
			<point x="243" y="633"/>
			<point x="241" y="623" type="curve"/>
			<point x="253" y="623" type="line"/>
			<point x="286" y="635"/>
			<point x="318" y="641"/>
			<point x="353" y="641" type="curve" smooth="yes"/>
			<point x="389" y="641"/>
			<point x="397" y="630"/>
			<point x="393" y="613" type="curve" smooth="yes"/>
			<point x="388" y="594"/>
			<point x="371" y="585"/>
			<point x="291" y="585" type="curve"/>
			<point x="288" y="575"/>
			<point x="275" y="530"/>
			<point x="272" y="520" type="curve" smooth="yes"/>
			<point x="270" y="512"/>
			<point x="275" y="508"/>
			<point x="283" y="508" type="curve" smooth="yes"/>
			<point x="359" y="508"/>
			<point x="369" y="498"/>
			<point x="365" y="477" type="curve" smooth="yes"/>
			<point x="362" y="459"/>
			<point x="346" y="452"/>
		</contour>
	</outline>
</glyph>
<glyph name="onesuperior" format="2">
	<unicode hex="00B9"/>
	<advance width="600"/>
	<outline>
		<contour>
			<point x="205" y="489" type="curve"/>
			<point x="202" y="479"/>
			<point x="197" y="457"/>
			<point x="194" y="447" type="curve" smooth="yes"/>
			<point x="192" y="437"/>
			<point x="180" y="391"/>
			<point x="179" y="386" type="curve" smooth="yes"/>
			<point x="177" y="378"/>
			<point x="180" y="375"/>
			<point x="187" y="375" type="curve" smooth="yes"/>
			<point x="197" y="375"/>
			<point x="468" y="375"/>
			<point x="478" y="375" type="curve"/>
			<point x="480" y="385"/>
			<point x="502" y="468"/>
			<point x="504" y="478" type="curve" smooth="yes"/>
			<point x="506" y="485"/>
			<point x="503" y="489"/>
			<point x="496" y="489" type="curve" smooth="yes"/>
			<point x="486" y="489"/>
			<point x="215" y="489"/>
		</contour>
		<contour>
			<point x="411" y="415" type="line"/>
			<point x="414" y="425"/>
			<point x="493" y="739"/>
			<point x="495" y="749" type="curve" smooth="yes"/>
			<point x="497" y="756"/>
			<point x="494" y="760"/>
			<point x="487" y="760" type="curve" smooth="yes"/>
			<point x="477" y="760"/>
			<point x="361" y="760"/>
			<point x="351" y="760" type="curve"/>
			<point x="336" y="751"/>
			<point x="321" y="742"/>
			<point x="306" y="733" type="curve" smooth="yes"/>
			<point x="292" y="725"/>
			<point x="278" y="717"/>
			<point x="265" y="710" type="curve"/>
			<point x="231" y="577" type="line" smooth="yes"/>
			<point x="228" y="567"/>
			<point x="230" y="563"/>
			<point x="237" y="563" type="curve" smooth="yes"/>
			<point x="251" y="563"/>
			<point x="273" y="579"/>
			<point x="329" y="672" type="curve"/>
			<point x="308" y="646" type="line"/>
			<point x="349" y="646" type="line"/>
			<point x="339" y="667" type="line"/>
			<point x="324" y="607"/>
			<point x="296" y="496"/>
			<point x="293" y="486" type="curve" smooth="yes"/>
			<point x="291" y="476"/>
			<point x="282" y="443"/>
			<point x="280" y="433" type="curve"/>
			<point x="267" y="415" type="line"/>
		</contour>
	</outline>
</glyph>
<glyph name="onehalf" format="2">
	<unicode hex="00BD"/>
	<advance width="600"/>
	<outline>
		<contour>
			<point x="273" y="395" type="line"/>
			<point x="276" y="405"/>
			<point x="355" y="719"/>
			<point x="357" y="729" type="curve" smooth="yes"/>
			<point x="359" y="736"/>
			<point x="356" y="740"/>
			<point x="349" y="740" type="curve" smooth="yes"/>
			<point x="339" y="740"/>
			<point x="231" y="740"/>
			<point x="221" y="740" type="curve"/>
			<point x="206" y="731"/>
			<point x="191" y="722"/>
			<point x="176" y="713" type="curve" smooth="yes"/>
			<point x="162" y="705"/>
			<point x="148" y="698"/>
			<point x="135" y="690" type="curve"/>
			<point x="100" y="549" type="line" smooth="yes"/>
			<point x="99" y="545"/>
			<point x="100" y="543"/>
			<point x="104" y="543" type="curve" smooth="yes"/>
			<point x="113" y="543"/>
			<point x="137" y="561"/>
			<point x="213" y="652" type="curve"/>
			<point x="178" y="626" type="line"/>
			<point x="219" y="626" type="line"/>
			<point x="209" y="647" type="line"/>
			<point x="194" y="587"/>
			<point x="169" y="486"/>
			<point x="166" y="476" type="curve" smooth="yes"/>
			<point x="164" y="466"/>
			<point x="155" y="433"/>
			<point x="153" y="423" type="curve"/>
			<point x="140" y="405" type="line"/>
		</contour>
		<contour>
			<point x="78" y="479" type="curve"/>
			<point x="75" y="469"/>
			<point x="70" y="447"/>
			<point x="67" y="437" type="curve" smooth="yes"/>
			<point x="65" y="427"/>
			<point x="54" y="383"/>
			<point x="53" y="378" type="curve" smooth="yes"/>
			<point x="51" y="370"/>
			<point x="54" y="367"/>
			<point x="61" y="367" type="curve" smooth="yes"/>
			<point x="71" y="367"/>
			<point x="327" y="367"/>
			<point x="337" y="367" type="curve"/>
			<point x="339" y="377"/>
			<point x="360" y="458"/>
			<point x="362" y="468" type="curve" smooth="yes"/>
			<point x="364" y="475"/>
			<point x="361" y="479"/>
			<point x="354" y="479" type="curve" smooth="yes"/>
			<point x="344" y="479"/>
			<point x="88" y="479"/>
		</contour>
		<contour>
			<point x="513" y="-32" type="curve"/>
			<point x="515" y="-22"/>
			<point x="535" y="52"/>
			<point x="537" y="62" type="curve" smooth="yes"/>
			<point x="539" y="69"/>
			<point x="535" y="73"/>
			<point x="528" y="73" type="curve" smooth="yes"/>
			<point x="450" y="73" type="line" smooth="yes"/>
			<point x="382" y="73"/>
			<point x="366" y="67"/>
			<point x="321" y="49" type="curve"/>
			<point x="343" y="42" type="line"/>
			<point x="356" y="93" type="line"/>
			<point x="337" y="49" type="line"/>
			<point x="353" y="83"/>
			<point x="375" y="98"/>
			<point x="426" y="112" type="curve" smooth="yes"/>
			<point x="526" y="139"/>
			<point x="562" y="170"/>
			<point x="576" y="240" type="curve" smooth="yes"/>
			<point x="578" y="250" type="line" smooth="yes"/>
			<point x="591" y="314"/>
			<point x="555" y="351"/>
			<point x="440" y="351" type="curve" smooth="yes"/>
			<point x="390" y="351"/>
			<point x="356" y="346"/>
			<point x="331" y="338" type="curve" smooth="yes"/>
			<point x="321" y="335"/>
			<point x="319" y="331"/>
			<point x="318" y="327" type="curve" smooth="yes"/>
			<point x="316" y="317"/>
			<point x="296" y="243"/>
			<point x="294" y="233" type="curve"/>
			<point x="308" y="233" type="line"/>
			<point x="335" y="241"/>
			<point x="370" y="245"/>
			<point x="402" y="245" type="curve" smooth="yes"/>
			<point x="425" y="245"/>
			<point x="438" y="241"/>
			<point x="442" y="237" type="curve" smooth="yes"/>
			<point x="445" y="233"/>
			<point x="445" y="228"/>
			<point x="444" y="221" type="curve" smooth="yes"/>
			<point x="440" y="205"/>
			<point x="427" y="195"/>
			<point x="356" y="177" type="curve" smooth="yes"/>
			<point x="290" y="160"/>
			<point x="254" y="131"/>
			<point x="236" y="58" type="curve" smooth="yes"/>
			<point x="217" y="-21" type="line" smooth="yes"/>
			<point x="215" y="-28"/>
			<point x="220" y="-32"/>
			<point x="227" y="-32" type="curve" smooth="yes"/>
			<point x="239" y="-32"/>
			<point x="502" y="-32"/>
		</contour>
		<contour>
			<point x="394" y="391" type="curve"/>
			<point x="433" y="391"/>
			<point x="451" y="391"/>
			<point x="490" y="391" type="curve" smooth="yes"/>
			<point x="495" y="391"/>
			<point x="499" y="392"/>
			<point x="503" y="399" type="curve" smooth="yes"/>
			<point x="562" y="498"/>
			<point x="620" y="597"/>
			<point x="679" y="697" type="curve" smooth="yes"/>
			<point x="684" y="705"/>
			<point x="682" y="710"/>
			<point x="674" y="710" type="curve" smooth="yes"/>
			<point x="640" y="710"/>
			<point x="543" y="710"/>
			<point x="505" y="710" type="curve"/>
			<point x="468" y="604"/>
			<point x="431" y="497"/>
		</contour>
		<contour>
			<point x="243" y="310" type="curve"/>
			<point x="204" y="310"/>
			<point x="186" y="310"/>
			<point x="147" y="310" type="curve" smooth="yes"/>
			<point x="142" y="310"/>
			<point x="138" y="309"/>
			<point x="134" y="302" type="curve" smooth="yes"/>
			<point x="76" y="203"/>
			<point x="18" y="104"/>
			<point x="-42" y="4" type="curve" smooth="yes"/>
			<point x="-47" y="-4"/>
			<point x="-45" y="-9"/>
			<point x="-37" y="-9" type="curve" smooth="yes"/>
			<point x="-3" y="-9"/>
			<point x="111" y="-9"/>
			<point x="132" y="-9" type="curve"/>
			<point x="169" y="97"/>
			<point x="206" y="204"/>
		</contour>
	</outline>
</glyph>
<glyph name="AE" format="2">
	<unicode hex="00C6"/>
	<advance width="600"/>
	<outline>
		<contour>
			<point x="117" y="0" type="curve"/>
			<point x="186" y="178"/>
			<point x="257" y="357"/>
			<point x="337" y="565" type="curve"/>
			<point x="295" y="535" type="line"/>
			<point x="371" y="535" type="line"/>
			<point x="347" y="565" type="line"/>
			<point x="306" y="358"/>
			<point x="271" y="187"/>
			<point x="235" y="7" type="curve"/>
			<point x="235" y="1"/>
			<point x="238" y="0"/>
			<point x="244" y="0" type="curve"/>
			<point x="524" y="0" type="line"/>
			<point x="538" y="53"/>
			<point x="551" y="106"/>
			<point x="564" y="159" type="curve" smooth="yes"/>
			<point x="566" y="165"/>
			<point x="562" y="170"/>
			<point x="556" y="170" type="curve"/>
			<point x="444" y="170" type="line"/>
			<point x="465" y="284"/>
			<point x="488" y="396"/>
			<point x="509" y="509" type="curve" smooth="yes"/>
			<point x="512" y="527"/>
			<point x="516" y="545"/>
			<point x="519" y="563" type="curve"/>
			<point x="532" y="579" type="line"/>
			<point x="563" y="700" type="line"/>
			<point x="219" y="700" type="line"/>
			<point x="125" y="471"/>
			<point x="31" y="242"/>
			<point x="-62" y="13" type="curve"/>
			<point x="-67" y="3"/>
			<point x="-62" y="0"/>
			<point x="-58" y="0" type="curve" smooth="yes"/>
			<point x="0" y="0"/>
			<point x="59" y="0"/>
		</contour>
		<contour>
			<point x="415" y="700" type="curve"/>
			<point x="408" y="672"/>
			<point x="400" y="643"/>
			<point x="393" y="615" type="curve"/>
			<point x="386" y="587"/>
			<point x="379" y="558"/>
			<point x="372" y="530" type="curve"/>
			<point x="467" y="530"/>
			<point x="562" y="530"/>
			<point x="657" y="530" type="curve"/>
			<point x="670" y="583"/>
			<point x="684" y="636"/>
			<point x="697" y="689" type="curve" smooth="yes"/>
			<point x="699" y="696"/>
			<point x="696" y="700"/>
			<point x="689" y="700" type="curve"/>
			<point x="598" y="700"/>
			<point x="506" y="700"/>
		</contour>
		<contour>
			<point x="132" y="260" type="line"/>
			<point x="95" y="111" type="line" smooth="yes"/>
			<point x="94" y="105"/>
			<point x="97" y="100"/>
			<point x="103" y="100" type="curve"/>
			<point x="280" y="100" type="line"/>
			<point x="323" y="269" type="line"/>
			<point x="309" y="260" type="line"/>
			<point x="295" y="260"/>
			<point x="280" y="260"/>
			<point x="266" y="260" type="curve"/>
		</contour>
		<contour>
			<point x="388" y="433" type="line"/>
			<point x="348" y="273" type="line"/>
			<point x="553" y="273" type="line"/>
			<point x="565" y="322"/>
			<point x="578" y="372"/>
			<point x="590" y="422" type="curve" smooth="yes"/>
			<point x="592" y="429"/>
			<point x="589" y="433"/>
			<point x="582" y="433" type="curve"/>
		</contour>
	</outline>
	<anchor name="top" x="344" y="711"/>
</glyph>
<glyph name="Eth" format="2">
	<unicode hex="00D0"/>
	<advance width="600"/>
	<outline>
		<contour>
			<point x="2" y="410" type="line"/>
			<point x="2" y="377"/>
			<point x="2" y="345"/>
			<point x="2" y="311" type="curve" smooth="yes"/>
			<point x="2" y="304"/>
			<point x="6" y="300"/>
			<point x="13" y="300" type="curve" smooth="yes"/>
			<point x="305" y="300" type="line"/>
			<point x="305" y="333.835443038"/>
			<point x="305" y="365.6292134831"/>
			<point x="305" y="399" type="curve" smooth="yes"/>
			<point x="305" y="405"/>
			<point x="300" y="410"/>
			<point x="294" y="410" type="curve" smooth="yes"/>
		</contour>
		<component base="D"/>
	</outline>
</glyph>
<glyph name="Oslash" format="2">
	<unicode hex="00D8"/>
	<advance width="600"/>
	<outline>
		<contour>
			<point x="512" y="578" type="line"/>
			<point x="449" y="534"/>
			<point x="398" y="495"/>
			<point x="361" y="458" type="curve" smooth="yes"/>
			<point x="319.7672063868" y="415.7363865465"/>
			<point x="298.6710971416" y="383.6843885666"/>
			<point x="286" y="333" type="curve"/>
			<point x="309" y="356" type="line"/>
			<point x="202" y="356" type="line"/>
			<point x="141" y="138" type="line"/>
			<point x="191" y="169"/>
			<point x="245" y="206"/>
			<point x="274" y="236" type="curve" smooth="yes"/>
			<point x="304.944971935" y="267.9764709995"/>
			<point x="331.9826511965" y="303.0436435419"/>
			<point x="351" y="377" type="curve"/>
			<point x="340" y="355" type="line"/>
			<point x="451" y="355" type="line"/>
		</contour>
		<component base="O"/>
	</outline>
	<anchor name="top" x="247" y="721"/>
	<guideline x="358" y="763" angle="258.2839955638" identifier="E5BjJj38lU"/>
	<guideline x="565" y="776" angle="240.9704779566" identifier="sSeQlVxmWw"/>
</glyph>
<glyph name="germandbls" format="2">
	<unicode hex="00DF"/>
	<advance width="600"/>
	<outline>
		<contour>
			<point x="415" y="761" type="curve"/>
			<point x="241" y="761"/>
			<point x="127" y="683"/>
			<point x="91" y="542" type="curve" smooth="yes"/>
			<point x="46" y="364"/>
			<point x="2" y="190"/>
			<point x="-43" y="11" type="curve"/>
			<point x="-45" y="4"/>
			<point x="-42" y="0"/>
			<point x="-35" y="0" type="curve" smooth="yes"/>
			<point x="30" y="0"/>
			<point x="95" y="0"/>
			<point x="160" y="0" type="curve"/>
			<point x="168" y="33"/>
			<point x="176" y="66"/>
			<point x="185" y="99" type="curve"/>
			<point x="218" y="231"/>
			<point x="250" y="362"/>
			<point x="284" y="494" type="curve"/>
			<point x="291" y="522"/>
			<point x="301" y="542"/>
			<point x="315" y="555" type="curve" smooth="yes"/>
			<point x="333" y="573"/>
			<point x="358" y="580"/>
			<point x="395" y="580" type="curve" smooth="yes"/>
			<point x="444" y="580"/>
			<point x="453" y="566"/>
			<point x="450" y="555" type="curve" smooth="yes"/>
			<point x="447" y="544"/>
			<point x="439" y="535"/>
			<point x="410" y="514" type="curve" smooth="yes"/>
			<point x="378" y="491" type="line" smooth="yes"/>
			<point x="341" y="464"/>
			<point x="317" y="429"/>
			<point x="306" y="385" type="curve" smooth="yes"/>
			<point x="298" y="354" type="line" smooth="yes"/>
			<point x="286" y="309"/>
			<point x="299" y="270"/>
			<point x="333" y="251" type="curve" smooth="yes"/>
			<point x="351" y="241" type="line" smooth="yes"/>
			<point x="371" y="230"/>
			<point x="380" y="217"/>
			<point x="377" y="204" type="curve"/>
			<point x="376" y="198"/>
			<point x="372" y="192"/>
			<point x="368" y="188" type="curve" smooth="yes"/>
			<point x="361" y="180"/>
			<point x="349" y="176"/>
			<point x="336" y="176" type="curve" smooth="yes"/>
			<point x="314" y="176"/>
			<point x="299" y="180"/>
			<point x="280" y="189" type="curve"/>
			<point x="260" y="189" type="line"/>
			<point x="246.5815859427" y="134.3678856239"/>
			<point x="233" y="81"/>
			<point x="220" y="26" type="curve" smooth="yes"/>
			<point x="219" y="23"/>
			<point x="219" y="20"/>
			<point x="222" y="18" type="curve" smooth="yes"/>
			<point x="252" y="0"/>
			<point x="297" y="-10"/>
			<point x="346" y="-10" type="curve"/>
			<point x="454" y="-10"/>
			<point x="516" y="41"/>
			<point x="543" y="139" type="curve" smooth="yes"/>
			<point x="557" y="190" type="line" smooth="yes"/>
			<point x="574" y="253"/>
			<point x="562" y="300"/>
			<point x="523" y="324" type="curve" smooth="yes"/>
			<point x="505" y="335" type="line" smooth="yes"/>
			<point x="479" y="351"/>
			<point x="477" y="353"/>
			<point x="478" y="360" type="curve" smooth="yes"/>
			<point x="479" y="366"/>
			<point x="487" y="372"/>
			<point x="513" y="392" type="curve" smooth="yes"/>
			<point x="541" y="413" type="line" smooth="yes"/>
			<point x="591" y="451"/>
			<point x="608" y="476"/>
			<point x="620" y="522" type="curve" smooth="yes"/>
			<point x="635" y="580" type="line" smooth="yes"/>
			<point x="661" y="682"/>
			<point x="565" y="761"/>
		</contour>
	</outline>
</glyph>
<glyph name="ae" format="2">
	<unicode hex="00E6"/>
	<advance width="600"/>
	<outline>
		<contour>
			<point x="216" y="562" type="curve" smooth="yes"/>
			<point x="162" y="562"/>
			<point x="118" y="552"/>
			<point x="103" y="540" type="curve" smooth="yes"/>
			<point x="101" y="538"/>
			<point x="99" y="535"/>
			<point x="98" y="532" type="curve" smooth="yes"/>
			<point x="84" y="475"/>
			<point x="70" y="414"/>
			<point x="56" y="357" type="curve"/>
			<point x="76" y="357" type="line"/>
			<point x="107" y="369"/>
			<point x="144" y="377"/>
			<point x="182" y="377" type="curve" smooth="yes"/>
			<point x="232" y="377"/>
			<point x="257" y="368"/>
			<point x="250" y="338" type="curve" smooth="yes"/>
			<point x="217" y="208" type="line" smooth="yes"/>
			<point x="207" y="168"/>
			<point x="191" y="161"/>
			<point x="166" y="161" type="curve" smooth="yes"/>
			<point x="163" y="161" type="line" smooth="yes"/>
			<point x="139" y="161"/>
			<point x="128" y="168"/>
			<point x="133" y="187" type="curve" smooth="yes"/>
			<point x="134" y="191" type="line" smooth="yes"/>
			<point x="136" y="201"/>
			<point x="142" y="210"/>
			<point x="150" y="217" type="curve"/>
			<point x="158" y="224"/>
			<point x="168" y="229"/>
			<point x="179" y="229" type="curve" smooth="yes"/>
			<point x="208" y="229"/>
			<point x="265" y="229"/>
			<point x="285" y="229" type="curve"/>
			<point x="311" y="329" type="line"/>
			<point x="286" y="329" type="line"/>
			<point x="266" y="329"/>
			<point x="244" y="329"/>
			<point x="182" y="329" type="curve" smooth="yes"/>
			<point x="61" y="329"/>
			<point x="14" y="272"/>
			<point x="-6" y="190" type="curve" smooth="yes"/>
			<point x="-20" y="134" type="line" smooth="yes"/>
			<point x="-41" y="51"/>
			<point x="4" y="-10"/>
			<point x="103" y="-10" type="curve" smooth="yes"/>
			<point x="168" y="-10"/>
			<point x="230" y="12"/>
			<point x="277" y="90" type="curve"/>
			<point x="238" y="90" type="line"/>
			<point x="255" y="19"/>
			<point x="315" y="-12"/>
			<point x="394" y="-12" type="curve" smooth="yes"/>
			<point x="437" y="-12"/>
			<point x="490" y="0"/>
			<point x="510" y="10" type="curve" smooth="yes"/>
			<point x="515" y="13"/>
			<point x="517" y="17"/>
			<point x="518" y="20" type="curve" smooth="yes"/>
			<point x="532" y="76"/>
			<point x="547" y="137"/>
			<point x="561" y="193" type="curve"/>
			<point x="541" y="193" type="line"/>
			<point x="499" y="181"/>
			<point x="477" y="178"/>
			<point x="426" y="178" type="curve" smooth="yes"/>
			<point x="403" y="178"/>
			<point x="384" y="182"/>
			<point x="371" y="193" type="curve"/>
			<point x="360" y="204"/>
			<point x="356" y="221"/>
			<point x="363" y="247" type="curve" smooth="yes"/>
			<point x="387" y="342" type="line" smooth="yes"/>
			<point x="393" y="368"/>
			<point x="402" y="382"/>
			<point x="440" y="382" type="curve" smooth="yes"/>
			<point x="455" y="382"/>
			<point x="469" y="379"/>
			<point x="473" y="372" type="curve"/>
			<point x="479" y="365"/>
			<point x="475" y="354"/>
			<point x="471" y="337" type="curve" smooth="yes"/>
			<point x="470" y="334"/>
			<point x="469" y="331"/>
			<point x="468" y="329" type="curve"/>
			<point x="417" y="329"/>
			<point x="368" y="329"/>
			<point x="317" y="329" type="curve"/>
			<point x="290" y="222" type="line"/>
			<point x="356" y="229" type="line"/>
			<point x="425" y="229"/>
			<point x="494" y="229"/>
			<point x="563" y="229" type="curve" smooth="yes"/>
			<point x="569" y="229"/>
			<point x="574" y="233"/>
			<point x="576" y="239" type="curve" smooth="yes"/>
			<point x="585" y="276"/>
			<point x="595" y="313"/>
			<point x="604" y="350" type="curve" smooth="yes"/>
			<point x="634" y="479"/>
			<point x="600" y="562"/>
			<point x="487" y="562" type="curve" smooth="yes"/>
			<point x="421" y="562"/>
			<point x="367" y="536"/>
			<point x="325" y="465" type="curve"/>
			<point x="359" y="465" type="line" smooth="yes"/>
			<point x="341" y="530"/>
			<point x="287" y="562"/>
		</contour>
	</outline>
	<anchor name="top" x="370" y="561"/>
</glyph>
<glyph name="oslash" format="2">
	<unicode hex="00F8"/>
	<advance width="600"/>
	<outline>
		<contour>
			<point x="643" y="626" type="curve"/>
			<point x="629" y="626"/>
			<point x="477" y="626"/>
			<point x="456" y="626" type="curve" smooth="yes"/>
			<point x="445" y="626"/>
			<point x="437" y="622"/>
			<point x="433" y="613" type="curve"/>
			<point x="422" y="590"/>
			<point x="410" y="567"/>
			<point x="399" y="542" type="curve"/>
			<point x="425" y="508"/>
			<point x="451" y="475"/>
			<point x="478" y="441" type="curve"/>
			<point x="420.2360843539" y="427.9565351767"/>
			<point x="380.4218464097" y="408.9000747704"/>
			<point x="349" y="387" type="curve" smooth="yes"/>
			<point x="304" y="356"/>
			<point x="282" y="313"/>
			<point x="268" y="251" type="curve"/>
			<point x="288" y="270" type="line"/>
			<point x="241" y="270" type="line"/>
			<point x="57" y="64" type="line"/>
			<point x="36" y="37"/>
			<point x="-26" y="-42"/>
			<point x="-53" y="-76" type="curve"/>
			<point x="-43" y="-76"/>
			<point x="104" y="-76"/>
			<point x="116" y="-76" type="curve" smooth="yes"/>
			<point x="124" y="-76"/>
			<point x="126" y="-75"/>
			<point x="132" y="-68" type="curve" smooth="yes"/>
			<point x="157" y="-35"/>
			<point x="218" y="40"/>
			<point x="253" y="86" type="curve"/>
			<point x="212" y="98"/>
			<point x="171" y="111"/>
			<point x="130" y="123" type="curve"/>
			<point x="186" y="136"/>
			<point x="228" y="151"/>
			<point x="258" y="171" type="curve" smooth="yes"/>
			<point x="298" y="198"/>
			<point x="319" y="234"/>
			<point x="330" y="288" type="curve"/>
			<point x="306" y="269" type="line"/>
			<point x="430" y="269" type="line"/>
			<point x="506" y="461" type="line"/>
			<point x="561" y="527"/>
			<point x="580" y="550"/>
		</contour>
		<component base="o"/>
	</outline>
	<anchor name="top" x="352" y="550"/>
</glyph>
<glyph name="dcaron" format="2">
	<unicode hex="010F"/>
	<advance width="600"/>
	<outline>
		<contour>
			<point x="656" y="536" type="curve" smooth="yes"/>
			<point x="665" y="536"/>
			<point x="672" y="540"/>
			<point x="675" y="547" type="curve" smooth="yes"/>
			<point x="704" y="615"/>
			<point x="725" y="665"/>
			<point x="753" y="735" type="curve" smooth="yes"/>
			<point x="756" y="743"/>
			<point x="754" y="750"/>
			<point x="746" y="750" type="curve" smooth="yes"/>
			<point x="722" y="750"/>
			<point x="694" y="750"/>
			<point x="650" y="750" type="curve"/>
			<point x="630" y="670"/>
			<point x="616" y="614"/>
			<point x="596" y="536" type="curve"/>
			<point x="611" y="536"/>
			<point x="629" y="536"/>
		</contour>
		<contour>
			<point x="244" y="560" type="curve" smooth="yes"/>
			<point x="142" y="560"/>
			<point x="75" y="474"/>
			<point x="47" y="360" type="curve" smooth="yes"/>
			<point x="7" y="199" type="line" smooth="yes"/>
			<point x="-27" y="63"/>
			<point x="26" y="-10"/>
			<point x="97" y="-10" type="curve" smooth="yes"/>
			<point x="152" y="-10"/>
			<point x="200" y="9"/>
			<point x="239" y="87" type="curve"/>
			<point x="274" y="87" type="line"/>
			<point x="304" y="201" type="line"/>
			<point x="289" y="190"/>
			<point x="277" y="184"/>
			<point x="263" y="184" type="curve" smooth="yes"/>
			<point x="249" y="184"/>
			<point x="243" y="187"/>
			<point x="238" y="194" type="curve" smooth="yes"/>
			<point x="233" y="200"/>
			<point x="233" y="210"/>
			<point x="236" y="223" type="curve" smooth="yes"/>
			<point x="262" y="326" type="line" smooth="yes"/>
			<point x="272" y="365"/>
			<point x="281" y="380"/>
			<point x="310" y="380" type="curve" smooth="yes"/>
			<point x="321" y="380"/>
			<point x="329" y="377"/>
			<point x="340" y="368" type="curve"/>
			<point x="365" y="475" type="line"/>
			<point x="336" y="475" type="line"/>
			<point x="325" y="539"/>
			<point x="304" y="560"/>
		</contour>
		<contour>
			<point x="619" y="750" type="curve" smooth="yes"/>
			<point x="571" y="750"/>
			<point x="473" y="750"/>
			<point x="425" y="750" type="curve"/>
			<point x="418" y="721"/>
			<point x="410" y="688"/>
			<point x="400" y="649" type="curve" smooth="yes"/>
			<point x="347" y="437"/>
			<point x="293" y="223"/>
			<point x="240" y="11" type="curve" smooth="yes"/>
			<point x="238" y="4"/>
			<point x="241" y="0"/>
			<point x="248" y="0" type="curve" smooth="yes"/>
			<point x="296" y="0"/>
			<point x="394" y="0"/>
			<point x="442" y="0" type="curve"/>
			<point x="451" y="34"/>
			<point x="460" y="69"/>
			<point x="468" y="103" type="curve" smooth="yes"/>
			<point x="521" y="315"/>
			<point x="574" y="527"/>
			<point x="627" y="739" type="curve" smooth="yes"/>
			<point x="629" y="746"/>
			<point x="626" y="750"/>
		</contour>
	</outline>
</glyph>
<glyph name="dotlessi" format="2">
	<unicode hex="0131"/>
	<advance width="600"/>
	<outline>
		<contour>
			<point x="179" y="11" type="curve" smooth="yes"/>
			<point x="177" y="4"/>
			<point x="180" y="0"/>
			<point x="187" y="0" type="curve" smooth="yes"/>
			<point x="258" y="0"/>
			<point x="332" y="0"/>
			<point x="403" y="0" type="curve"/>
			<point x="411" y="33"/>
			<point x="419" y="65"/>
			<point x="428" y="98" type="curve" smooth="yes"/>
			<point x="455" y="205"/>
			<point x="511" y="432"/>
			<point x="538" y="539" type="curve"/>
			<point x="540" y="546"/>
			<point x="537" y="550"/>
			<point x="530" y="550" type="curve" smooth="yes"/>
			<point x="404" y="550"/>
			<point x="247" y="550"/>
			<point x="121" y="550" type="curve"/>
			<point x="105" y="485"/>
			<point x="88" y="419"/>
			<point x="72" y="354" type="curve" smooth="yes"/>
			<point x="70" y="347"/>
			<point x="73" y="343"/>
			<point x="80" y="343" type="curve" smooth="yes"/>
			<point x="123" y="343"/>
			<point x="195" y="343"/>
			<point x="245" y="343" type="curve"/>
			<point x="265" y="343" type="line"/>
			<point x="252" y="294"/>
			<point x="192" y="62"/>
		</contour>
	</outline>
	<anchor name="top" x="430" y="550"/>
	<anchor name="bottom" x="287" y="0"/>
	<anchor name="ogonek" x="404" y="0"/>
</glyph>
<glyph name="Lslash" format="2">
	<unicode hex="0141"/>
	<advance width="600"/>
	<outline>
		<contour>
			<point x="76" y="0" type="curve" smooth="yes"/>
			<point x="570" y="0" type="line"/>
			<point x="570" y="70"/>
			<point x="570" y="139"/>
			<point x="570" y="209" type="curve" smooth="yes"/>
			<point x="570" y="215"/>
			<point x="565" y="220"/>
			<point x="559" y="220" type="curve" smooth="yes"/>
			<point x="300" y="220" type="line"/>
			<point x="300" y="376"/>
			<point x="300" y="533"/>
			<point x="300" y="689" type="curve"/>
			<point x="300" y="696"/>
			<point x="296" y="700"/>
			<point x="289" y="700" type="curve"/>
			<point x="214" y="700"/>
			<point x="140" y="700"/>
			<point x="65" y="700" type="curve"/>
			<point x="65" y="667"/>
			<point x="65" y="633"/>
			<point x="65" y="600" type="curve"/>
			<point x="65" y="404"/>
			<point x="65" y="207"/>
			<point x="65" y="11" type="curve" smooth="yes"/>
			<point x="65" y="5"/>
			<point x="70" y="0"/>
		</contour>
		<contour>
			<point x="407" y="557" type="curve"/>
			<point x="205" y="449" type="line" smooth="yes"/>
			<point x="171" y="431"/>
			<point x="149" y="466"/>
			<point x="113" y="448" type="curve" smooth="yes"/>
			<point x="28" y="405" type="line" smooth="yes"/>
			<point x="20" y="401"/>
			<point x="20" y="397"/>
			<point x="20" y="386" type="curve" smooth="yes"/>
			<point x="20" y="313"/>
			<point x="20" y="256"/>
			<point x="20" y="233" type="curve"/>
			<point x="117" y="284" type="line" smooth="yes"/>
			<point x="149" y="301"/>
			<point x="172" y="268"/>
			<point x="217" y="291" type="curve" smooth="yes"/>
			<point x="398" y="385" type="line" smooth="yes"/>
			<point x="405" y="389"/>
			<point x="407" y="393"/>
			<point x="407" y="403" type="curve" smooth="yes"/>
			<point x="407" y="479"/>
			<point x="407" y="535"/>
		</contour>
	</outline>
</glyph>
<glyph name="OE" format="2">
	<unicode hex="0152"/>
	<advance width="600"/>
	<outline>
		<contour>
			<point x="249" y="710" type="curve" smooth="yes"/>
			<point x="102" y="710"/>
			<point x="20" y="618"/>
			<point x="20" y="480" type="curve" smooth="yes"/>
			<point x="20" y="230" type="line" smooth="yes"/>
			<point x="20" y="84"/>
			<point x="102" y="-10"/>
			<point x="249" y="-10" type="curve" smooth="yes"/>
			<point x="273" y="-10"/>
			<point x="296" y="-6"/>
			<point x="315" y="0" type="curve"/>
			<point x="324" y="0"/>
			<point x="333" y="0"/>
			<point x="342" y="0" type="curve"/>
			<point x="590" y="0" type="line"/>
			<point x="590" y="53"/>
			<point x="590" y="106"/>
			<point x="590" y="159" type="curve" smooth="yes"/>
			<point x="590" y="166"/>
			<point x="586" y="170"/>
			<point x="579" y="170" type="curve" smooth="yes"/>
			<point x="538" y="170"/>
			<point x="496" y="170"/>
			<point x="455" y="170" type="curve"/>
			<point x="455" y="283"/>
			<point x="455" y="397"/>
			<point x="455" y="510" type="curve"/>
			<point x="455" y="550"/>
			<point x="455" y="589"/>
			<point x="455" y="629" type="curve"/>
			<point x="464" y="650" type="line"/>
			<point x="285" y="650" type="line"/>
			<point x="285" y="500"/>
			<point x="285" y="347"/>
			<point x="285" y="197" type="curve"/>
			<point x="274" y="196"/>
			<point x="262" y="195"/>
			<point x="248" y="195" type="curve" smooth="yes"/>
			<point x="215" y="195"/>
			<point x="196" y="216"/>
			<point x="196" y="251" type="curve" smooth="yes"/>
			<point x="196" y="449" type="line" smooth="yes"/>
			<point x="196" y="484"/>
			<point x="216" y="505"/>
			<point x="248" y="505" type="curve"/>
			<point x="302" y="505"/>
			<point x="326" y="495"/>
			<point x="352" y="471" type="curve"/>
			<point x="387" y="516"/>
			<point x="382" y="570"/>
			<point x="382" y="617" type="curve"/>
			<point x="382" y="667"/>
			<point x="329" y="710"/>
		</contour>
		<contour>
			<point x="305" y="700" type="curve"/>
			<point x="305" y="672"/>
			<point x="305" y="645"/>
			<point x="305" y="617" type="curve"/>
			<point x="305" y="588"/>
			<point x="305" y="559"/>
			<point x="305" y="530" type="curve"/>
			<point x="400" y="530"/>
			<point x="495" y="530"/>
			<point x="590" y="530" type="curve"/>
			<point x="590" y="583"/>
			<point x="590" y="636"/>
			<point x="590" y="689" type="curve" smooth="yes"/>
			<point x="590" y="696"/>
			<point x="586" y="700"/>
			<point x="579" y="700" type="curve"/>
			<point x="488" y="700"/>
			<point x="396" y="700"/>
		</contour>
		<contour>
			<point x="345" y="433" type="line"/>
			<point x="345" y="273" type="line" smooth="yes"/>
			<point x="550" y="273" type="line"/>
			<point x="550" y="322"/>
			<point x="550" y="372"/>
			<point x="550" y="422" type="curve" smooth="yes"/>
			<point x="550" y="429"/>
			<point x="546" y="433"/>
			<point x="539" y="433" type="curve"/>
		</contour>
	</outline>
</glyph>
<glyph name="tbar" format="2">
	<unicode hex="0167"/>
	<advance width="600"/>
	<outline>
		<contour>
			<point x="54" y="305" type="line"/>
			<point x="50" y="289"/>
			<point x="46" y="273"/>
			<point x="42" y="257" type="curve" smooth="yes"/>
			<point x="40" y="250"/>
			<point x="43" y="246"/>
			<point x="50" y="246" type="curve" smooth="yes"/>
			<point x="542" y="246" type="line"/>
			<point x="546" y="262"/>
			<point x="551" y="278"/>
			<point x="555" y="294" type="curve" smooth="yes"/>
			<point x="556" y="301"/>
			<point x="553" y="305"/>
			<point x="546" y="305" type="curve" smooth="yes"/>
		</contour>
		<component base="t"/>
	</outline>
</glyph>
<glyph name="Schwa" format="2">
	<unicode hex="018F"/>
	<advance width="600"/>
	<outline>
		<contour>
			<point x="361" y="714" type="curve"/>
			<point x="267" y="714"/>
			<point x="175" y="698"/>
			<point x="151" y="679" type="curve" smooth="yes"/>
			<point x="149" y="677"/>
			<point x="147" y="674"/>
			<point x="146" y="671" type="curve" smooth="yes"/>
			<point x="133" y="618"/>
			<point x="120" y="566"/>
			<point x="107" y="513" type="curve"/>
			<point x="127" y="513" type="line"/>
			<point x="195" y="532"/>
			<point x="243" y="539"/>
			<point x="328" y="539" type="curve" smooth="yes"/>
			<point x="366" y="539"/>
			<point x="384" y="534"/>
			<point x="394" y="521" type="curve" smooth="yes"/>
			<point x="402" y="510"/>
			<point x="403" y="499"/>
			<point x="397" y="474" type="curve" smooth="yes"/>
			<point x="333" y="217" type="line" smooth="yes"/>
			<point x="324" y="180"/>
			<point x="302" y="161"/>
			<point x="269" y="161" type="curve"/>
			<point x="254" y="161"/>
			<point x="241" y="165"/>
			<point x="234" y="172" type="curve" smooth="yes"/>
			<point x="225" y="181"/>
			<point x="223" y="197"/>
			<point x="228" y="217" type="curve" smooth="yes"/>
			<point x="244" y="279" type="line"/>
			<point x="295.664516129" y="279"/>
			<point x="346.335483871" y="279"/>
			<point x="398" y="279" type="curve"/>
			<point x="442" y="454" type="line"/>
			<point x="412" y="444" type="line"/>
			<point x="377" y="444"/>
			<point x="342" y="444"/>
			<point x="308" y="444" type="curve"/>
			<point x="81" y="444" type="line"/>
			<point x="76" y="444"/>
			<point x="74" y="441"/>
			<point x="72" y="433" type="curve" smooth="yes"/>
			<point x="15" y="207" type="line"/>
			<point x="-15" y="87"/>
			<point x="86" y="-14"/>
			<point x="238" y="-14" type="curve"/>
			<point x="406" y="-14"/>
			<point x="516" y="65"/>
			<point x="551" y="209" type="curve" smooth="yes"/>
			<point x="616" y="471" type="line" smooth="yes"/>
			<point x="653" y="620"/>
			<point x="555" y="714"/>
		</contour>
	</outline>
	<guideline x="-69" y="0" angle="75.96" identifier="tapKG0fzea"/>
	<guideline x="-19" y="0" angle="75.96" identifier="l65GHnQQco"/>
	<guideline x="31" y="0" angle="75.96" identifier="T1RtePTSa4"/>
	<guideline x="81" y="0" angle="75.96" identifier="FH0UQ0jcnG"/>
	<guideline x="131" y="0" angle="75.96" identifier="tzJvO1PRTg"/>
	<guideline x="181" y="0" angle="75.96" identifier="GW1yOwVBjl"/>
	<guideline x="231" y="0" angle="75.96" identifier="CIZsSKZcwb"/>
	<guideline x="281" y="0" angle="75.96" identifier="25CsK6YZhn"/>
	<guideline x="331" y="0" angle="75.96" identifier="eqTkBkWTDB"/>
	<guideline x="381" y="0" angle="75.96" identifier="81cIQRqGVE"/>
	<guideline x="431" y="0" angle="75.96" identifier="UjNyUBS47a"/>
	<guideline x="481" y="0" angle="75.96" identifier="OyYvBJtJLU"/>
	<guideline x="531" y="0" angle="75.96" identifier="AuXrqKvzr5"/>
	<guideline x="-69" y="-250" angle="0" identifier="Xm02uYG8Ye"/>
	<guideline x="-69" y="-200" angle="0" identifier="GifquCvUzh"/>
	<guideline x="-69" y="-150" angle="0" identifier="CjzfVtA6Nj"/>
	<guideline x="-69" y="-100" angle="0" identifier="2PqFqtyCii"/>
	<guideline x="-69" y="-50" angle="0" identifier="CKO9qTDw1V"/>
	<guideline x="-69" y="0" angle="0" identifier="aNHqelYQKQ"/>
	<guideline x="-69" y="50" angle="0" identifier="QwoxxUnEwo"/>
	<guideline x="-69" y="100" angle="0" identifier="b8T1oHkAhs"/>
	<guideline x="-69" y="150" angle="0" identifier="AlYRpZPXaL"/>
	<guideline x="-69" y="200" angle="0" identifier="aIwDH2rJTC"/>
	<guideline x="-69" y="250" angle="0" identifier="nWSTjTSXp1"/>
	<guideline x="-69" y="300" angle="0" identifier="amcmpLTS91"/>
	<guideline x="-69" y="350" angle="0" identifier="HgfZgE7p4M"/>
	<guideline x="-69" y="400" angle="0" identifier="D3br1Lkds7"/>
	<guideline x="-69" y="450" angle="0" identifier="jnGf6CM2fI"/>
	<guideline x="-69" y="500" angle="0" identifier="nsFyceWs0b"/>
	<guideline x="-69" y="550" angle="0" identifier="hhDkmXViSm"/>
	<guideline x="-69" y="600" angle="0" identifier="NNLARqZ2oS"/>
	<guideline x="-69" y="650" angle="0" identifier="GsIIoZ39lP"/>
	<guideline x="-69" y="700" angle="0" identifier="ShwI6IqPVY"/>
</glyph>
<glyph name="DZcaron" format="2">
	<unicode hex="01C4"/>
	<advance width="600"/>
	<outline>
		<contour>
			<point x="288" y="207" type="curve" smooth="yes"/>
			<point x="372" y="537" type="line" smooth="yes"/>
			<point x="398" y="639"/>
			<point x="352" y="700"/>
			<point x="245" y="700" type="curve" smooth="yes"/>
			<point x="204" y="700"/>
			<point x="138" y="700"/>
			<point x="96" y="700" type="curve"/>
			<point x="80" y="637"/>
			<point x="63" y="574"/>
			<point x="47" y="511" type="curve" smooth="yes"/>
			<point x="46" y="504"/>
			<point x="49" y="500"/>
			<point x="56" y="500" type="curve" smooth="yes"/>
			<point x="78" y="500"/>
			<point x="185" y="500"/>
			<point x="201" y="500" type="curve" smooth="yes"/>
			<point x="222" y="500"/>
			<point x="225" y="493"/>
			<point x="219" y="471" type="curve" smooth="yes"/>
			<point x="158" y="228" type="line" smooth="yes"/>
			<point x="153" y="205"/>
			<point x="145" y="200"/>
			<point x="125" y="200" type="curve" smooth="yes"/>
			<point x="123" y="200"/>
			<point x="117" y="200"/>
			<point x="116" y="200" type="curve"/>
			<point x="130" y="254"/>
			<point x="154" y="349"/>
			<point x="178" y="448" type="curve" smooth="yes"/>
			<point x="195" y="514"/>
			<point x="212" y="581"/>
			<point x="226" y="639" type="curve"/>
			<point x="238" y="650" type="line"/>
			<point x="94" y="650" type="line"/>
			<point x="41" y="437"/>
			<point x="-13" y="224"/>
			<point x="-66" y="11" type="curve" smooth="yes"/>
			<point x="-68" y="4"/>
			<point x="-65" y="0"/>
			<point x="-58" y="0" type="curve" smooth="yes"/>
			<point x="-28" y="0"/>
			<point x="15" y="0"/>
			<point x="42" y="0" type="curve" smooth="yes"/>
			<point x="186" y="0"/>
			<point x="242" y="25"/>
		</contour>
		<contour>
			<point x="531" y="0" type="line"/>
			<point x="548" y="66"/>
			<point x="565" y="133"/>
			<point x="581" y="199" type="curve" smooth="yes"/>
			<point x="583" y="206"/>
			<point x="580" y="210"/>
			<point x="573" y="210" type="curve" smooth="yes"/>
			<point x="543" y="210" type="line" smooth="yes"/>
			<point x="493" y="210"/>
			<point x="457" y="199"/>
			<point x="396" y="176" type="curve"/>
			<point x="436" y="155" type="line"/>
			<point x="455" y="231" type="line"/>
			<point x="409" y="158" type="line"/>
			<point x="487" y="257"/>
			<point x="543" y="332"/>
			<point x="643" y="470" type="curve"/>
			<point x="699" y="689" type="line" smooth="yes"/>
			<point x="701" y="696"/>
			<point x="698" y="700"/>
			<point x="691" y="700" type="curve" smooth="yes"/>
			<point x="425" y="700" type="line"/>
			<point x="398" y="593"/>
			<point x="391" y="500"/>
			<point x="444" y="500" type="curve" smooth="yes"/>
			<point x="456" y="500" type="line" smooth="yes"/>
			<point x="497" y="500"/>
			<point x="522" y="504"/>
			<point x="593" y="541" type="curve"/>
			<point x="519" y="549" type="line"/>
			<point x="484" y="409" type="line"/>
			<point x="559" y="567" type="line"/>
			<point x="484" y="464"/>
			<point x="390" y="336"/>
			<point x="305" y="223" type="curve"/>
			<point x="252" y="11" type="line" smooth="yes"/>
			<point x="250" y="4"/>
			<point x="253" y="0"/>
			<point x="260" y="0" type="curve" smooth="yes"/>
		</contour>
		<contour>
			<point x="483" y="474" type="curve"/>
			<point x="488" y="494"/>
			<point x="490" y="502"/>
			<point x="495" y="522" type="curve" smooth="yes"/>
			<point x="521" y="628"/>
			<point x="490" y="700"/>
			<point x="425" y="700" type="curve"/>
			<point x="405" y="622"/>
			<point x="390" y="562"/>
			<point x="371" y="484" type="curve" smooth="yes"/>
			<point x="369" y="478"/>
			<point x="373" y="474"/>
			<point x="379" y="474" type="curve" smooth="yes"/>
			<point x="396" y="474"/>
			<point x="457" y="474"/>
		</contour>
		<contour>
			<point x="661" y="775" type="curve"/>
			<point x="689" y="805"/>
			<point x="758" y="881"/>
			<point x="787" y="914" type="curve" smooth="yes"/>
			<point x="797" y="925"/>
			<point x="801" y="934"/>
			<point x="802" y="939" type="curve" smooth="yes"/>
			<point x="804" y="944"/>
			<point x="801" y="947"/>
			<point x="793" y="947" type="curve" smooth="yes"/>
			<point x="656" y="947" type="line"/>
			<point x="644" y="928"/>
			<point x="625" y="905"/>
			<point x="593" y="864" type="curve"/>
			<point x="649" y="888" type="line"/>
			<point x="625" y="888"/>
			<point x="601" y="888"/>
			<point x="577" y="888" type="curve"/>
			<point x="600" y="863" type="line"/>
			<point x="590" y="902"/>
			<point x="588" y="916"/>
			<point x="585" y="930" type="curve" smooth="yes"/>
			<point x="583" y="942"/>
			<point x="579" y="947"/>
			<point x="562" y="947" type="curve" smooth="yes"/>
			<point x="511" y="947"/>
			<point x="480" y="947"/>
			<point x="429" y="947" type="curve"/>
			<point x="453" y="893"/>
			<point x="485" y="822"/>
			<point x="496" y="797" type="curve" smooth="yes"/>
			<point x="504" y="778"/>
			<point x="512" y="775"/>
			<point x="530" y="775" type="curve" smooth="yes"/>
			<point x="565" y="775"/>
			<point x="621" y="775"/>
		</contour>
	</outline>
</glyph>
<glyph name="Dzcaron" format="2">
	<unicode hex="01C5"/>
	<advance width="600"/>
	<outline>
		<contour>
			<point x="303" y="193" type="curve" smooth="yes"/>
			<point x="391" y="537" type="line" smooth="yes"/>
			<point x="417" y="638"/>
			<point x="380" y="700"/>
			<point x="273" y="700" type="curve" smooth="yes"/>
			<point x="232" y="700"/>
			<point x="136" y="700"/>
			<point x="94" y="700" type="curve"/>
			<point x="78" y="637"/>
			<point x="62" y="574"/>
			<point x="47" y="511" type="curve" smooth="yes"/>
			<point x="45" y="504"/>
			<point x="48" y="500"/>
			<point x="55" y="500" type="curve" smooth="yes"/>
			<point x="77" y="500"/>
			<point x="194" y="500"/>
			<point x="210" y="500" type="curve" smooth="yes"/>
			<point x="221" y="500"/>
			<point x="227" y="498"/>
			<point x="229" y="494" type="curve" smooth="yes"/>
			<point x="232" y="489"/>
			<point x="231" y="482"/>
			<point x="229" y="471" type="curve" smooth="yes"/>
			<point x="168" y="228" type="line" smooth="yes"/>
			<point x="162" y="205"/>
			<point x="155" y="200"/>
			<point x="135" y="200" type="curve" smooth="yes"/>
			<point x="133" y="200"/>
			<point x="127" y="200"/>
			<point x="126" y="200" type="curve"/>
			<point x="139" y="254"/>
			<point x="163" y="349"/>
			<point x="188" y="448" type="curve" smooth="yes"/>
			<point x="204" y="514"/>
			<point x="221" y="581"/>
			<point x="236" y="639" type="curve"/>
			<point x="247" y="650" type="line"/>
			<point x="93" y="650" type="line"/>
			<point x="40" y="437"/>
			<point x="-13" y="224"/>
			<point x="-67" y="11" type="curve" smooth="yes"/>
			<point x="-68" y="4"/>
			<point x="-65" y="0"/>
			<point x="-58" y="0" type="curve" smooth="yes"/>
			<point x="-28" y="0"/>
			<point x="35" y="0"/>
			<point x="62" y="0" type="curve" smooth="yes"/>
			<point x="206" y="0"/>
			<point x="260" y="26"/>
		</contour>
		<contour>
			<point x="405" y="550" type="line"/>
			<point x="386" y="472"/>
			<point x="371" y="414"/>
			<point x="354" y="346" type="curve" smooth="yes"/>
			<point x="352" y="339"/>
			<point x="353" y="335"/>
			<point x="356" y="335" type="curve" smooth="yes"/>
			<point x="384" y="335" type="line" smooth="yes"/>
			<point x="415" y="335"/>
			<point x="437" y="343"/>
			<point x="471" y="363" type="curve"/>
			<point x="466" y="343" type="line"/>
			<point x="411" y="289"/>
			<point x="375" y="254"/>
			<point x="318" y="202" type="curve"/>
			<point x="270" y="11" type="line" smooth="yes"/>
			<point x="269" y="4"/>
			<point x="270" y="0"/>
			<point x="273" y="0" type="curve" smooth="yes"/>
			<point x="531" y="0" type="line"/>
			<point x="548" y="68"/>
			<point x="565" y="136"/>
			<point x="582" y="204" type="curve"/>
			<point x="583" y="211"/>
			<point x="582" y="215"/>
			<point x="578" y="215" type="curve" smooth="yes"/>
			<point x="543" y="215" type="line" smooth="yes"/>
			<point x="515" y="215"/>
			<point x="501" y="210"/>
			<point x="473" y="199" type="curve"/>
			<point x="477" y="215" type="line"/>
			<point x="528" y="262"/>
			<point x="571" y="303"/>
			<point x="618" y="348" type="curve"/>
			<point x="666" y="539" type="line" smooth="yes"/>
			<point x="668" y="546"/>
			<point x="666" y="550"/>
			<point x="662" y="550" type="curve" smooth="yes"/>
		</contour>
		<contour>
			<point x="618" y="639" type="curve"/>
			<point x="653" y="676"/>
			<point x="732" y="767"/>
			<point x="764" y="804" type="curve" smooth="yes"/>
			<point x="783" y="826"/>
			<point x="782" y="826"/>
			<point x="784" y="832" type="curve" smooth="yes"/>
			<point x="785" y="837"/>
			<point x="783" y="841"/>
			<point x="775" y="841" type="curve" smooth="yes"/>
			<point x="651" y="841" type="line"/>
			<point x="630" y="817"/>
			<point x="607" y="787"/>
			<point x="568" y="743" type="curve"/>
			<point x="604" y="763" type="line"/>
			<point x="542" y="763" type="line"/>
			<point x="579" y="743" type="line"/>
			<point x="563" y="787"/>
			<point x="557" y="809"/>
			<point x="551" y="825" type="curve" smooth="yes"/>
			<point x="547" y="837"/>
			<point x="542" y="841"/>
			<point x="527" y="841" type="curve" smooth="yes"/>
			<point x="480" y="841"/>
			<point x="454" y="841"/>
			<point x="407" y="841" type="curve"/>
			<point x="431" y="779"/>
			<point x="470" y="687"/>
			<point x="479" y="661" type="curve" smooth="yes"/>
			<point x="486" y="643"/>
			<point x="491" y="639"/>
			<point x="510" y="639" type="curve" smooth="yes"/>
			<point x="549" y="639"/>
			<point x="573" y="639"/>
		</contour>
	</outline>
</glyph>
<glyph name="dzcaron" format="2">
	<unicode hex="01C6"/>
	<advance width="600"/>
	<outline>
		<contour>
			<point x="146" y="560" type="curve" smooth="yes"/>
			<point x="95" y="560"/>
			<point x="61" y="520"/>
			<point x="40" y="436" type="curve" smooth="yes"/>
			<point x="-44" y="99" type="line" smooth="yes"/>
			<point x="-65" y="15"/>
			<point x="-40" y="-10"/>
			<point x="4" y="-10" type="curve" smooth="yes"/>
			<point x="44" y="-10"/>
			<point x="76" y="8"/>
			<point x="109" y="87" type="curve"/>
			<point x="150" y="87" type="line"/>
			<point x="179" y="203" type="line"/>
			<point x="167" y="192"/>
			<point x="153" y="184"/>
			<point x="142" y="184" type="curve" smooth="yes"/>
			<point x="134" y="184"/>
			<point x="128" y="186"/>
			<point x="126" y="190" type="curve"/>
			<point x="123" y="194"/>
			<point x="124" y="201"/>
			<point x="127" y="211" type="curve" smooth="yes"/>
			<point x="163" y="356" type="line" smooth="yes"/>
			<point x="167" y="374"/>
			<point x="173" y="380"/>
			<point x="186" y="380" type="curve" smooth="yes"/>
			<point x="195" y="380"/>
			<point x="199" y="376"/>
			<point x="205" y="368" type="curve"/>
			<point x="232" y="475" type="line"/>
			<point x="208" y="475" type="line"/>
			<point x="213" y="534"/>
			<point x="191" y="560"/>
		</contour>
		<contour>
			<point x="432" y="750" type="curve" smooth="yes"/>
			<point x="403" y="750"/>
			<point x="323" y="750"/>
			<point x="294" y="750" type="curve"/>
			<point x="286" y="721"/>
			<point x="278" y="688"/>
			<point x="268" y="649" type="curve" smooth="yes"/>
			<point x="215" y="437"/>
			<point x="162" y="223"/>
			<point x="109" y="11" type="curve" smooth="yes"/>
			<point x="107" y="4"/>
			<point x="109" y="0"/>
			<point x="113" y="0" type="curve" smooth="yes"/>
			<point x="142" y="0"/>
			<point x="222" y="0"/>
			<point x="251" y="0" type="curve"/>
			<point x="259" y="34"/>
			<point x="268" y="69"/>
			<point x="277" y="103" type="curve" smooth="yes"/>
			<point x="330" y="315"/>
			<point x="383" y="527"/>
			<point x="436" y="739" type="curve" smooth="yes"/>
			<point x="438" y="746"/>
			<point x="436" y="750"/>
		</contour>
		<contour>
			<point x="407" y="550" type="line"/>
			<point x="387" y="472"/>
			<point x="371" y="414"/>
			<point x="354" y="346" type="curve" smooth="yes"/>
			<point x="353" y="339"/>
			<point x="354" y="335"/>
			<point x="357" y="335" type="curve" smooth="yes"/>
			<point x="385" y="335" type="line" smooth="yes"/>
			<point x="416" y="335"/>
			<point x="440" y="343"/>
			<point x="474" y="363" type="curve"/>
			<point x="469" y="343" type="line"/>
			<point x="414" y="289"/>
			<point x="375" y="254"/>
			<point x="319" y="202" type="curve"/>
			<point x="271" y="11" type="line" smooth="yes"/>
			<point x="269" y="4"/>
			<point x="270" y="0"/>
			<point x="273" y="0" type="curve" smooth="yes"/>
			<point x="531" y="0" type="line"/>
			<point x="548" y="68"/>
			<point x="565" y="136"/>
			<point x="582" y="204" type="curve"/>
			<point x="584" y="211"/>
			<point x="583" y="215"/>
			<point x="579" y="215" type="curve" smooth="yes"/>
			<point x="544" y="215" type="line" smooth="yes"/>
			<point x="516" y="215"/>
			<point x="499" y="210"/>
			<point x="472" y="199" type="curve"/>
			<point x="476" y="215" type="line"/>
			<point x="528" y="262"/>
			<point x="571" y="303"/>
			<point x="618" y="348" type="curve"/>
			<point x="666" y="539" type="line" smooth="yes"/>
			<point x="668" y="546"/>
			<point x="667" y="550"/>
			<point x="663" y="550" type="curve" smooth="yes"/>
		</contour>
		<contour>
			<point x="641" y="639" type="curve"/>
			<point x="676" y="676"/>
			<point x="755" y="767"/>
			<point x="787" y="804" type="curve" smooth="yes"/>
			<point x="807" y="826"/>
			<point x="806" y="826"/>
			<point x="807" y="832" type="curve" smooth="yes"/>
			<point x="808" y="837"/>
			<point x="806" y="841"/>
			<point x="798" y="841" type="curve" smooth="yes"/>
			<point x="673" y="841" type="line"/>
			<point x="652" y="817"/>
			<point x="629" y="787"/>
			<point x="590" y="743" type="curve"/>
			<point x="626" y="763" type="line"/>
			<point x="564" y="763" type="line"/>
			<point x="601" y="743" type="line"/>
			<point x="585" y="787"/>
			<point x="578" y="810"/>
			<point x="574" y="826" type="curve" smooth="yes"/>
			<point x="571" y="838"/>
			<point x="564" y="841"/>
			<point x="549" y="841" type="curve" smooth="yes"/>
			<point x="502" y="841"/>
			<point x="477" y="841"/>
			<point x="430" y="841" type="curve"/>
			<point x="454" y="779"/>
			<point x="493" y="687"/>
			<point x="502" y="661" type="curve" smooth="yes"/>
			<point x="509" y="643"/>
			<point x="514" y="639"/>
			<point x="533" y="639" type="curve" smooth="yes"/>
			<point x="572" y="639"/>
			<point x="596" y="639"/>
		</contour>
	</outline>
</glyph>
<glyph name="DZ" format="2">
	<unicode hex="01F1"/>
	<advance width="600"/>
	<outline>
		<contour>
			<point x="245" y="700" type="curve" smooth="yes"/>
			<point x="204" y="700"/>
			<point x="138" y="700"/>
			<point x="96" y="700" type="curve"/>
			<point x="80" y="637"/>
			<point x="63" y="574"/>
			<point x="47" y="511" type="curve" smooth="yes"/>
			<point x="46" y="504"/>
			<point x="49" y="500"/>
			<point x="56" y="500" type="curve" smooth="yes"/>
			<point x="78" y="500"/>
			<point x="185" y="500"/>
			<point x="201" y="500" type="curve" smooth="yes"/>
			<point x="212" y="500"/>
			<point x="218" y="498"/>
			<point x="220" y="493" type="curve" smooth="yes"/>
			<point x="223" y="489"/>
			<point x="222" y="482"/>
			<point x="219" y="471" type="curve" smooth="yes"/>
			<point x="158" y="228" type="line" smooth="yes"/>
			<point x="153" y="205"/>
			<point x="145" y="200"/>
			<point x="125" y="200" type="curve" smooth="yes"/>
			<point x="123" y="200"/>
			<point x="117" y="200"/>
			<point x="116" y="200" type="curve"/>
			<point x="130" y="254"/>
			<point x="154" y="349"/>
			<point x="178" y="448" type="curve" smooth="yes"/>
			<point x="195" y="514"/>
			<point x="212" y="581"/>
			<point x="226" y="639" type="curve"/>
			<point x="238" y="650" type="line"/>
			<point x="94" y="650" type="line"/>
			<point x="41" y="437"/>
			<point x="-13" y="224"/>
			<point x="-66" y="11" type="curve" smooth="yes"/>
			<point x="-68" y="4"/>
			<point x="-65" y="0"/>
			<point x="-58" y="0" type="curve" smooth="yes"/>
			<point x="-28" y="0"/>
			<point x="15" y="0"/>
			<point x="42" y="0" type="curve" smooth="yes"/>
			<point x="186" y="0"/>
			<point x="242" y="25"/>
			<point x="288" y="207" type="curve" smooth="yes"/>
			<point x="372" y="537" type="line" smooth="yes"/>
			<point x="398" y="639"/>
			<point x="352" y="700"/>
		</contour>
		<contour>
			<point x="531" y="0" type="line"/>
			<point x="548" y="66"/>
			<point x="565" y="133"/>
			<point x="581" y="199" type="curve" smooth="yes"/>
			<point x="583" y="206"/>
			<point x="580" y="210"/>
			<point x="573" y="210" type="curve" smooth="yes"/>
			<point x="543" y="210" type="line" smooth="yes"/>
			<point x="493" y="210"/>
			<point x="457" y="199"/>
			<point x="396" y="176" type="curve"/>
			<point x="436" y="155" type="line"/>
			<point x="455" y="231" type="line"/>
			<point x="409" y="158" type="line"/>
			<point x="457" y="219"/>
			<point x="496" y="270"/>
			<point x="543" y="333" type="curve" smooth="yes"/>
			<point x="572" y="372"/>
			<point x="604" y="416"/>
			<point x="643" y="470" type="curve"/>
			<point x="699" y="689" type="line" smooth="yes"/>
			<point x="701" y="696"/>
			<point x="698" y="700"/>
			<point x="691" y="700" type="curve" smooth="yes"/>
			<point x="425" y="700" type="line"/>
			<point x="398" y="593"/>
			<point x="391" y="508"/>
			<point x="444" y="508" type="curve" smooth="yes"/>
			<point x="456" y="508" type="line" smooth="yes"/>
			<point x="497" y="508"/>
			<point x="528" y="513"/>
			<point x="593" y="541" type="curve"/>
			<point x="519" y="549" type="line"/>
			<point x="484" y="409" type="line"/>
			<point x="559" y="567" type="line"/>
			<point x="514" y="505"/>
			<point x="461" y="433"/>
			<point x="408" y="361" type="curve" smooth="yes"/>
			<point x="374" y="315"/>
			<point x="339" y="268"/>
			<point x="305" y="223" type="curve"/>
			<point x="252" y="11" type="line" smooth="yes"/>
			<point x="250" y="4"/>
			<point x="253" y="0"/>
			<point x="260" y="0" type="curve" smooth="yes"/>
		</contour>
		<contour>
			<point x="463" y="474" type="curve"/>
			<point x="468" y="494"/>
			<point x="470" y="502"/>
			<point x="475" y="522" type="curve" smooth="yes"/>
			<point x="501" y="628"/>
			<point x="490" y="700"/>
			<point x="425" y="700" type="curve"/>
			<point x="405" y="622"/>
			<point x="390" y="562"/>
			<point x="371" y="484" type="curve" smooth="yes"/>
			<point x="369" y="478"/>
			<point x="373" y="474"/>
			<point x="379" y="474" type="curve" smooth="yes"/>
			<point x="396" y="474"/>
			<point x="437" y="474"/>
		</contour>
	</outline>
</glyph>
